<svg width="180" height="180" viewBox="0 0 180 180" fill="none" xmlns="http://www.w3.org/2000/svg">
<path fill-rule="evenodd" clip-rule="evenodd" d="M171 157.5C169.759 157.5 168.75 156.491 168.75 155.25C168.75 154.009 169.759 153 171 153C172.241 153 173.25 154.009 173.25 155.25C173.25 156.491 172.241 157.5 171 157.5Z" fill="#CACAFB"/>
<path fill-rule="evenodd" clip-rule="evenodd" d="M87.75 9C86.5093 9 85.5 7.99065 85.5 6.75C85.5 5.50924 86.5093 4.5 87.75 4.5C88.9907 4.5 90 5.50924 90 6.75C90 7.99065 88.9907 9 87.75 9Z" fill="#CACAFB"/>
<path fill-rule="evenodd" clip-rule="evenodd" d="M9 139.5C7.75935 139.5 6.75 138.491 6.75 137.25C6.75 136.009 7.75935 135 9 135C10.2407 135 11.25 136.009 11.25 137.25C11.25 138.491 10.2407 139.5 9 139.5Z" fill="#CACAFB"/>
<path fill-rule="evenodd" clip-rule="evenodd" d="M122.066 97.1886L130.804 76.1256C131.756 73.8301 134.389 72.7412 136.685 73.6935C137.781 74.1484 138.653 75.018 139.112 76.1129L147.927 97.1796C148.433 98.3882 148.387 99.7573 147.801 100.929L144.384 107.762C144.273 107.986 144.144 108.197 144 108.395V116.635L148.385 129.789C148.463 130.024 148.502 130.27 148.5 130.517L148.485 130.763L145.303 157.763C145.18 158.809 144.352 159.617 143.328 159.735L143.069 159.75H126.931C125.878 159.75 124.979 159.023 124.742 158.02L124.697 157.763L123.653 148.904C123.508 147.67 124.39 146.552 125.624 146.406C126.77 146.271 127.816 147.022 128.076 148.119L128.122 148.377L128.932 155.25H141.066L143.955 130.732L140.128 119.25H129.87L125.885 131.212C125.52 132.306 124.395 132.934 123.292 132.703L123.038 132.635C121.944 132.27 121.316 131.145 121.547 130.042L121.615 129.789L126 116.635V108.395C125.856 108.197 125.727 107.986 125.616 107.762L122.197 100.925C121.613 99.7579 121.565 98.3943 122.066 97.1886ZM130.5 110.25V114.75H139.5V110.25H130.5ZM132.75 83.1781L126.222 98.913L129.641 105.75H140.359L143.776 98.9167L137.25 83.3214V94.5C137.25 95.7427 136.243 96.75 135 96.75C133.846 96.75 132.895 95.8814 132.765 94.7624L132.75 94.5V83.1781Z" fill="#E1000F"/>
<path d="M105.75 119.25C109.993 119.25 112.5 121.757 112.5 126C112.5 126.184 112.477 126.367 112.433 126.546C111.296 131.094 106.24 134.05 97.2186 135.68L95.7611 135.926C95.2643 136.004 94.7566 136.079 94.2378 136.15L92.6484 136.353C92.378 136.385 92.1049 136.417 91.829 136.447L90.1405 136.618L88.386 136.768L86.5653 136.897L84.6785 137.006C84.3585 137.022 84.0357 137.038 83.7102 137.053L81.724 137.131L79.6715 137.19L77.5527 137.228L74.25 137.25C73.0074 137.25 72 136.243 72 135C72 133.757 73.0074 132.75 74.25 132.75L76.3875 132.74C76.738 132.737 77.0856 132.733 77.4303 132.728L79.4642 132.69L81.4288 132.632L83.3243 132.556L85.1505 132.462L86.9073 132.35L88.5948 132.22L90.2129 132.073C90.4768 132.047 90.7378 132.02 90.9959 131.993L92.5097 131.82C93.2492 131.729 93.9627 131.632 94.6501 131.529L95.9899 131.315L97.2601 131.084L98.4606 130.838C103.9 129.654 107.06 127.966 107.919 125.902L107.993 125.696L107.978 125.431C107.874 124.22 107.374 123.805 106.047 123.755L105.75 123.75C103.413 123.75 100.951 124.981 98.341 127.591C96.9852 128.947 94.7088 128.087 94.5135 126.256L94.5 126C94.5 124.243 94.0074 123.75 92.25 123.75C89.9127 123.75 87.4513 124.981 84.841 127.591C83.9623 128.47 82.5377 128.47 81.659 127.591C80.7803 126.712 80.7803 125.288 81.659 124.409C85.0487 121.019 88.5873 119.25 92.25 119.25C94.8259 119.25 96.7621 120.174 97.8859 121.85L97.974 121.993L98.4141 121.687C100.613 120.202 102.868 119.382 105.173 119.265L105.75 119.25Z" fill="#E1000F"/>
<path d="M125.985 26.7376C125.855 25.6186 124.904 24.75 123.75 24.75H38.25L37.9876 24.7651C36.8686 24.8951 36 25.8461 36 27V148.5L36.0151 148.762C36.1451 149.881 37.0961 150.75 38.25 150.75H110.25L110.512 150.735C111.631 150.605 112.5 149.654 112.5 148.5L112.485 148.238C112.355 147.119 111.404 146.25 110.25 146.25H40.5V29.25H121.5V72L121.515 72.2624C121.645 73.3814 122.596 74.25 123.75 74.25C124.993 74.25 126 73.2426 126 72V27L125.985 26.7376Z" fill="#000091"/>
<path d="M90 40.5C90 39.2574 88.9926 38.25 87.75 38.25H51.75L51.4876 38.2651C50.3686 38.3951 49.5 39.3461 49.5 40.5C49.5 41.7426 50.5074 42.75 51.75 42.75H87.75L88.0124 42.7349C89.1314 42.6049 90 41.6539 90 40.5Z" fill="#000091"/>
<path d="M110.25 51.75C111.493 51.75 112.5 52.7574 112.5 54C112.5 55.1539 111.631 56.1049 110.512 56.2349L110.25 56.25H51.75C50.5074 56.25 49.5 55.2426 49.5 54C49.5 52.8461 50.3686 51.8951 51.4876 51.7651L51.75 51.75H110.25Z" fill="#000091"/>
<path d="M99 67.5C99 66.2574 97.9926 65.25 96.75 65.25H51.75L51.4876 65.2651C50.3686 65.3951 49.5 66.3461 49.5 67.5C49.5 68.7426 50.5074 69.75 51.75 69.75H96.75L97.0124 69.7349C98.1314 69.6049 99 68.6539 99 67.5Z" fill="#000091"/>
<path d="M110.25 78.75C111.493 78.75 112.5 79.7574 112.5 81C112.5 82.1539 111.631 83.1049 110.512 83.2349L110.25 83.25H51.75C50.5074 83.25 49.5 82.2426 49.5 81C49.5 79.8461 50.3686 78.8951 51.4876 78.7651L51.75 78.75H110.25Z" fill="#000091"/>
<path d="M134.985 44.7376C134.855 43.6186 133.904 42.75 132.75 42.75C131.507 42.75 130.5 43.7574 130.5 45V63L130.515 63.2624C130.645 64.3814 131.596 65.25 132.75 65.25C133.993 65.25 135 64.2426 135 63V45L134.985 44.7376Z" fill="#000091"/>
<path d="M114.75 155.25C115.993 155.25 117 156.257 117 157.5C117 158.654 116.131 159.605 115.012 159.735L114.75 159.75H56.25C55.0074 159.75 54 158.743 54 157.5C54 156.346 54.8686 155.395 55.9876 155.265L56.25 155.25H114.75Z" fill="#000091"/>
<path d="M99 94.5C99 93.2574 97.9926 92.25 96.75 92.25H51.75L51.4876 92.2651C50.3686 92.3951 49.5 93.3461 49.5 94.5C49.5 95.7426 50.5074 96.75 51.75 96.75H96.75L97.0124 96.7349C98.1314 96.6049 99 95.6539 99 94.5Z" fill="#000091"/>
</svg>
