<svg width="258" height="306" viewBox="0 0 258 306" fill="none" xmlns="http://www.w3.org/2000/svg">
<g clip-path="url(#clip0_157_81720)">
<path d="M211.042 81.5309L202.337 78.0014C202.337 78.0014 190.85 98.9592 187.559 100.022C183.083 101.461 173.825 105.465 168.323 106.211C167.577 107.081 166.357 109.811 166.471 110.812C173.852 113.271 190.069 110.004 193.544 107.423C201.459 101.541 211.042 81.5309 211.042 81.5309V81.5309Z" fill="#FEEBD0"/>
<path d="M213.719 76.781C215.342 82.7865 206.549 94.8502 206.549 94.8502L195.001 88.3705C195.001 88.3705 197.151 83.4098 199.792 78.3614C204.048 70.2048 211.876 69.9326 213.728 76.781H213.719Z" fill="#FA7A35"/>
<path opacity="0.2" d="M213.719 76.781C215.342 82.7865 206.549 94.8502 206.549 94.8502L195.001 88.3705C195.001 88.3705 197.151 83.4098 199.792 78.3614C204.048 70.2048 211.876 69.9326 213.728 76.781H213.719Z" fill="#2F2F2F"/>
<path opacity="0.2" d="M199.608 90.9431L204.145 93.4893L204.935 79.5555C202.302 81.5836 200.433 87.6945 199.608 90.9431Z" fill="#2F2F2F"/>
<path d="M206.146 72.2505C206.146 72.2505 197.177 92.2162 202.407 129.391H237.746C238.308 123.965 236.447 97.4842 243.178 71.9169C243.178 71.9169 237.193 70.6964 231.437 70.4243C226.935 70.2048 220.406 70.0643 216.413 70.4243C211.148 70.8984 206.146 72.2593 206.146 72.2593V72.2505Z" fill="#FA7A35"/>
<path opacity="0.2" d="M206.146 72.2505C206.146 72.2505 197.177 92.2162 202.407 129.391H237.746C238.308 123.965 236.447 97.4842 243.178 71.9169C243.178 71.9169 237.193 70.6964 231.437 70.4243C226.935 70.2048 220.406 70.0643 216.413 70.4243C211.148 70.8984 206.146 72.2593 206.146 72.2593V72.2505Z" fill="#2F2F2F"/>
<g style="mix-blend-mode:multiply">
<path d="M197.949 304.288C197.896 305.227 211.297 305.991 227.874 305.991C244.451 305.991 257.947 305.227 258 304.288C258.053 303.348 244.661 302.585 228.075 302.585C211.49 302.585 198.002 303.348 197.949 304.288Z" fill="#E8ECF1"/>
</g>
<path d="M222.369 280.608L216.08 283.032L221.472 297.034L227.761 294.609L222.369 280.608Z" fill="#FEEBD0"/>
<path d="M249.488 297.536H242.88L240.449 282.233H247.057L249.488 297.536Z" fill="#FEEBD0"/>
<path d="M242.45 296.772H249.874C250.146 296.772 250.365 296.957 250.409 297.22L251.366 303.094C251.462 303.7 250.953 304.279 250.33 304.27C247.741 304.226 246.495 304.077 243.231 304.077C241.221 304.077 237.07 304.288 234.297 304.288C231.524 304.288 231.322 301.549 232.472 301.294C237.632 300.179 239.633 298.642 241.353 297.176C241.66 296.913 242.055 296.772 242.45 296.772V296.772Z" fill="#6A6156"/>
<path d="M220.458 294.463L227.496 292.417C227.76 292.338 228.032 292.452 228.146 292.69L230.752 297.958C231.024 298.502 230.699 299.187 230.094 299.354C227.549 300.047 225.829 300.486 222.635 301.417C220.432 302.058 218.185 303.103 216.009 303.796C214.5 304.279 210.954 304.297 209.12 304.297C206.409 304.297 205.803 301.434 206.962 301.303C209.901 300.969 210.296 301.127 211.92 300.311C214.605 298.967 216.685 297.843 219.01 295.411C219.414 294.99 219.888 294.63 220.45 294.463H220.458Z" fill="#6A6156"/>
<path d="M169.438 106.15L162.171 103.086L159.179 111.146C159.179 111.146 163.374 111.91 168.165 111.146L169.438 106.15Z" fill="#FEEBD0"/>
<path d="M156.766 102.893L156.573 108.248L159.17 111.146L162.163 103.086L156.766 102.893Z" fill="#FEEBD0"/>
<path d="M222.4 280.569L216.112 282.998L218.897 290.214L225.184 287.785L222.4 280.569Z" fill="#D5706F"/>
<path d="M247.066 282.233H240.449L241.704 290.126H248.312L247.066 282.233Z" fill="#D5706F"/>
<path opacity="0.2" d="M201.284 119.338C201.407 120.927 201.565 122.551 201.749 124.219L228.023 115.685C232.13 114.456 235.693 111.875 238.132 108.354C238.229 106.01 238.369 103.542 238.562 100.97C238.65 99.7143 238.764 98.4324 238.878 97.133C239.001 95.7809 239.15 94.4024 239.308 93.0064L201.275 119.338H201.284Z" fill="#2F2F2F"/>
<path d="M209.858 90.5392L208.962 90.4339C209.48 86.0526 212.753 82.5933 216.202 82.6723L216.176 83.5767C213.192 83.4889 210.323 86.6146 209.858 90.5392Z" fill="white"/>
<path d="M214.535 98.6431C214.482 98.6431 214.438 98.6431 214.386 98.6431L214.412 97.7388C217.431 97.8529 220.265 94.7009 220.73 90.7763L221.626 90.8816C221.108 95.2014 217.949 98.6431 214.526 98.6431H214.535Z" fill="white"/>
<path d="M230.936 53.4965C229.708 58.3342 228.242 67.1932 231.436 70.4243C231.436 70.4243 229.208 75.3323 220.221 75.3323C212.016 75.3323 216.413 70.4243 216.413 70.4243C221.88 69.1336 221.976 65.1387 221.257 61.3809L230.936 53.5052V53.4965Z" fill="#FEEBD0"/>
<path d="M226.987 56.7099L221.257 61.3721C221.432 62.2589 221.555 63.1632 221.564 64.0412C223.24 65.7094 226.601 61.4862 226.943 59.3264C227.119 58.2464 227.128 57.2192 226.987 56.7187V56.7099Z" fill="#D5706F"/>
<path d="M211.411 53.435C212.253 54.9364 213.736 55.8758 215.132 56.1919C217.238 56.6573 218.3 54.7257 217.72 52.7677C217.194 51.0117 215.474 48.6499 213.35 49.0538C211.262 49.4489 210.445 51.7141 211.411 53.435V53.435Z" fill="#D5706F"/>
<path d="M214.886 37.9559C211.604 39.4573 210.445 52.5043 214.57 54.4359C218.694 56.3675 221.099 35.1112 214.886 37.9559V37.9559Z" fill="#6A6156"/>
<path d="M231.937 46.2179C231.147 52.7677 231.024 56.6221 227.523 59.9761C222.257 65.0334 214.351 62.0306 213.175 55.4983C212.113 49.6157 213.578 39.8963 220.134 37.2886C226.592 34.7249 232.727 39.668 231.937 46.2179V46.2179Z" fill="#FEEBD0"/>
<path d="M221.16 41.3537C226.013 40.107 229.585 39.2641 228.312 43.3205C226.61 48.7201 224.574 53.953 227.312 54.1988C228.971 54.3481 236.351 51.2137 235.412 48.0529C234.596 45.2959 238.027 44.5496 238.659 43.1448C240.932 38.0788 234.429 38.7373 235.587 35.6731C236.711 32.6879 230.348 27.6482 226.821 30.1154C221.108 34.1015 211.305 34.0488 216.457 27.5077C220.151 22.828 213.561 23.785 213.561 23.785C213.561 23.785 217.545 26.1468 210.84 29.7993C203.741 33.6712 210.244 44.1458 221.16 41.3537V41.3537Z" fill="#6A6156"/>
<path d="M234.473 53.435C233.455 54.9364 231.867 55.8758 230.427 56.1919C228.269 56.6573 227.435 54.7257 228.242 52.7677C228.971 51.0117 230.971 48.6499 233.042 49.0538C235.078 49.4489 235.631 51.7141 234.473 53.435V53.435Z" fill="#FEEBD0"/>
<path d="M202.407 129.391C202.407 129.391 196.475 182.51 196.01 202.668C195.527 223.635 216.115 289.055 216.115 289.055L226.654 284.63C226.654 284.63 214.386 224.864 216.088 204.266C217.949 181.816 225.636 129.391 225.636 129.391H202.407V129.391Z" fill="#FA7A35"/>
<path opacity="0.2" d="M217.141 143.974C212.42 153.79 215.597 173.194 218.159 184.705C219.133 176.583 220.292 167.768 221.389 159.611C221.283 147.074 220.309 137.389 217.141 143.974V143.974Z" fill="#2F2F2F"/>
<path d="M226.18 281.188C226.233 281.17 227.426 284.55 227.426 284.55L215.281 289.652L213.368 286.087L226.18 281.179V281.188Z" fill="#FA7A35"/>
<path d="M214.939 129.391C214.939 129.391 219.476 179.911 222.486 198.832C225.776 219.561 238.72 288.598 238.72 288.598H250.822C250.822 288.598 243.573 221.238 242.204 200.71C240.721 178.436 237.755 129.391 237.755 129.391H214.956H214.939Z" fill="#FA7A35"/>
<path d="M251.006 285.446C251.059 285.446 251.41 288.826 251.41 288.826H238.106L237.158 284.946L251.006 285.446V285.446Z" fill="#FA7A35"/>
<path opacity="0.2" d="M246.364 281.442C246.302 281.442 246.258 281.398 246.25 281.346C246.179 280.731 239.642 219.912 238.413 201.483C237.079 181.473 234.394 137.117 234.368 136.669C234.368 136.608 234.411 136.555 234.473 136.546C234.534 136.546 234.578 136.59 234.587 136.652C234.613 137.099 237.299 181.456 238.632 201.466C239.861 219.895 246.399 280.714 246.469 281.319C246.469 281.381 246.434 281.434 246.372 281.442H246.364Z" fill="#2F2F2F"/>
<path d="M221.906 48.0441C221.871 48.5797 221.564 49.0099 221.222 49.0099C220.88 49.0099 220.616 48.5797 220.651 48.0441C220.687 47.5085 220.994 47.0783 221.336 47.0783C221.678 47.0783 221.941 47.5085 221.906 48.0441Z" fill="#6A6156"/>
<path d="M215.878 48.0441C215.842 48.5797 215.535 49.0099 215.193 49.0099C214.851 49.0099 214.588 48.5797 214.623 48.0441C214.658 47.5085 214.965 47.0783 215.307 47.0783C215.649 47.0783 215.913 47.5085 215.878 48.0441Z" fill="#6A6156"/>
<path d="M217.782 48.3163C217.782 48.3163 216.386 51.3893 214.965 52.8731C215.86 53.7511 217.483 53.3472 217.483 53.3472L217.782 48.3075V48.3163Z" fill="#FA7659"/>
<path d="M217.931 55.5861C217.843 55.5861 217.782 55.5159 217.782 55.4281C217.782 55.3403 217.861 55.27 217.949 55.27C220.292 55.27 221.476 53.6369 221.485 53.6194C221.538 53.5491 221.634 53.5228 221.705 53.5755C221.775 53.6194 221.792 53.716 221.74 53.795C221.687 53.8652 220.441 55.5861 217.931 55.5861Z" fill="#6A6156"/>
<path d="M222.977 46.4286C222.889 46.4637 222.784 46.4549 222.705 46.4022C221.555 45.6735 220.476 46.1652 220.467 46.1652C220.318 46.2442 220.125 46.1739 220.055 46.0159C219.993 45.8579 220.063 45.6735 220.23 45.5945C220.283 45.5681 221.634 44.9535 223.056 45.8579C223.196 45.9457 223.231 46.1388 223.135 46.2881C223.091 46.3495 223.038 46.3934 222.977 46.4198V46.4286Z" fill="#6A6156"/>
<path d="M213.552 44.6726C213.552 44.6726 213.464 44.6374 213.429 44.6023C213.306 44.4882 213.306 44.2862 213.429 44.1633C214.658 42.8727 216.071 43.0658 216.132 43.0746C216.299 43.0922 216.413 43.259 216.378 43.4346C216.343 43.6014 216.176 43.7243 216.009 43.698C215.965 43.698 214.851 43.5487 213.877 44.5848C213.789 44.6813 213.666 44.7077 213.552 44.6813V44.6726Z" fill="#6A6156"/>
<path d="M246.565 80.5564L237.439 78.1243C237.439 78.1243 228.488 100.171 225.329 101.611C221.029 103.569 210.13 110.347 205.505 113.613C205.25 114.702 205.452 117.617 206.031 118.407C213.903 116.976 229.05 111.146 232.209 108.187C239.413 101.435 246.574 80.5564 246.574 80.5564H246.565Z" fill="#FEEBD0"/>
<path d="M240.203 297.931C239.703 297.931 239.238 297.843 238.948 297.598C238.72 297.396 238.632 297.123 238.676 296.772C238.711 296.509 238.852 296.386 238.966 296.333C239.712 295.956 241.774 297.264 242.002 297.422C242.055 297.457 242.081 297.519 242.064 297.58C242.046 297.641 242.002 297.694 241.941 297.703C241.476 297.817 240.809 297.94 240.194 297.94L240.203 297.931ZM239.299 296.562C239.22 296.562 239.15 296.57 239.098 296.597C239.054 296.623 239.001 296.658 238.992 296.781C238.966 297.027 239.019 297.22 239.168 297.352C239.51 297.659 240.37 297.694 241.502 297.475C240.782 297.044 239.808 296.562 239.299 296.562V296.562Z" fill="#FA7A35"/>
<path d="M241.906 297.694C241.906 297.694 241.853 297.694 241.835 297.677C241.177 297.308 239.94 295.859 240.115 295.122C240.151 294.99 240.256 294.753 240.633 294.709C240.879 294.683 241.098 294.744 241.291 294.911C242.02 295.534 242.072 297.448 242.072 297.527C242.072 297.589 242.046 297.641 241.993 297.668C241.967 297.685 241.941 297.694 241.906 297.694ZM240.73 295.016C240.73 295.016 240.686 295.016 240.66 295.016C240.458 295.043 240.431 295.139 240.423 295.174C240.317 295.613 241.09 296.702 241.739 297.22C241.695 296.658 241.546 295.552 241.081 295.148C240.976 295.06 240.861 295.007 240.73 295.007V295.016Z" fill="#FA7A35"/>
<path d="M216.895 296.834C216.246 296.992 215.632 297.036 215.237 296.825C214.982 296.693 214.842 296.465 214.807 296.158C214.789 295.973 214.851 295.815 214.982 295.692C215.693 295.06 218.554 295.736 218.879 295.815C218.94 295.833 218.984 295.885 218.993 295.956C218.993 296.026 218.958 296.087 218.896 296.114C218.361 296.36 217.606 296.667 216.895 296.842V296.834ZM215.465 295.789C215.342 295.815 215.254 295.859 215.184 295.912C215.132 295.965 215.105 296.017 215.114 296.096C215.14 296.307 215.228 296.447 215.395 296.544C215.86 296.799 216.939 296.597 218.335 296.017C217.352 295.815 216.079 295.64 215.456 295.789H215.465Z" fill="#FA7A35"/>
<path d="M218.87 296.122C218.87 296.122 218.826 296.122 218.809 296.122C217.957 295.964 216.141 294.955 216.123 294.2C216.123 294.024 216.202 293.778 216.615 293.638C216.913 293.524 217.229 293.55 217.519 293.69C218.475 294.165 218.967 295.85 218.993 295.921C219.01 295.973 218.993 296.035 218.958 296.07C218.931 296.096 218.905 296.114 218.87 296.122V296.122ZM216.799 293.901C216.799 293.901 216.738 293.919 216.711 293.928C216.439 294.024 216.439 294.138 216.439 294.173C216.448 294.63 217.712 295.464 218.598 295.745C218.422 295.262 217.992 294.279 217.369 293.971C217.185 293.875 216.992 293.857 216.799 293.901Z" fill="#FA7A35"/>
<path d="M206.242 113.086L197.089 117.301L196.027 119.882L199.406 122.156C199.406 122.156 205.716 121.471 207.514 117.415L206.233 113.086H206.242Z" fill="#FEEBD0"/>
<path d="M206.637 118.556C206.066 115.158 204.943 113.604 204.934 113.587L206.374 112.507C206.426 112.577 207.76 114.377 208.41 118.258L206.628 118.556H206.637Z" fill="#6A6156"/>
<path d="M208.19 114.333C208.489 115.07 208.006 115.957 207.128 116.308C206.242 116.668 205.285 116.361 204.987 115.624C204.689 114.886 205.171 113.999 206.049 113.648C206.935 113.288 207.892 113.595 208.19 114.333Z" fill="#6A6156"/>
<path d="M190.911 120.707L192.122 121.936L200.336 118.424L197.098 117.301L190.911 120.707Z" fill="#FEEBD0"/>
<path opacity="0.2" d="M226.18 281.188C226.233 281.17 227.426 284.55 227.426 284.55L215.281 289.652L213.368 286.087L226.18 281.179V281.188Z" fill="#2F2F2F"/>
<path opacity="0.2" d="M251.006 285.446C251.059 285.446 251.41 288.826 251.41 288.826H238.106L237.158 284.946L251.006 285.446V285.446Z" fill="#2F2F2F"/>
<path d="M248.952 78.0277C251.366 85.8156 241.967 96.4481 241.967 96.4481L228.936 91.1275C228.936 91.1275 230.77 85.4732 234.262 77.896C238.229 69.2829 246.513 70.1696 248.944 78.0277H248.952Z" fill="#FA7A35"/>
<path opacity="0.2" d="M248.952 78.0277C251.366 85.8156 241.967 96.4481 241.967 96.4481L228.936 91.1275C228.936 91.1275 230.77 85.4732 234.262 77.896C238.229 69.2829 246.513 70.1696 248.944 78.0277H248.952Z" fill="#2F2F2F"/>
<path d="M190.306 4.05637H86.7548L77.1105 219.798H180.661L190.306 4.05637Z" fill="#000091"/>
<path opacity="0.8" d="M187.217 7.02399H83.6658L74.0215 222.766H177.573L187.217 7.02399Z" fill="white"/>
<path d="M174.791 180.297H86.8337L85.5261 200.087H173.483L174.791 180.297Z" fill="#0A42A5"/>
<path d="M153.001 50.7571C152.782 55.7002 150.991 60.2658 148.122 63.971C143.787 69.5902 136.995 73.2426 129.518 73.2426C122.041 73.2426 115.582 69.5902 111.756 63.971C109.22 60.2658 107.834 55.7002 108.053 50.7571C108.606 38.3334 119.119 28.2628 131.527 28.2628C143.936 28.2628 153.563 38.3334 153.001 50.7571Z" fill="white"/>
<path d="M178.476 104.078H90.0894L89.3523 120.584H177.739L178.476 104.078Z" fill="white"/>
<path d="M138.706 92.0318H90.6335L90.3 99.4158H138.372L138.706 92.0318Z" fill="#4E68BB"/>
<path d="M176.484 148.628H88.1061L87.3602 165.143H175.747L176.484 148.628Z" fill="white"/>
<path d="M128.316 136.581H88.6415L88.308 143.974H127.991L128.316 136.581Z" fill="#4E68BB"/>
<path d="M99.6108 112.331C99.5494 113.789 98.312 114.974 96.8465 114.974C95.381 114.974 94.2577 113.789 94.3192 112.331C94.3806 110.874 95.6179 109.688 97.0835 109.688C98.549 109.688 99.6722 110.874 99.6108 112.331V112.331Z" fill="#000091"/>
<path d="M111.449 112.331C111.388 113.789 110.15 114.974 108.685 114.974C107.219 114.974 106.096 113.789 106.157 112.331C106.219 110.874 107.456 109.688 108.922 109.688C110.387 109.688 111.51 110.874 111.449 112.331V112.331Z" fill="#000091"/>
<path d="M123.278 112.331C123.217 113.789 121.98 114.974 120.514 114.974C119.049 114.974 117.925 113.789 117.987 112.331C118.048 110.874 119.286 109.688 120.751 109.688C122.217 109.688 123.34 110.874 123.278 112.331V112.331Z" fill="#000091"/>
<path d="M97.6187 156.881C97.5573 158.338 96.32 159.524 94.8545 159.524C93.3889 159.524 92.2657 158.338 92.3271 156.881C92.3885 155.423 93.6259 154.238 95.0914 154.238C96.5569 154.238 97.6802 155.423 97.6187 156.881Z" fill="#000091"/>
<path d="M109.457 156.881C109.396 158.338 108.158 159.524 106.693 159.524C105.227 159.524 104.104 158.338 104.165 156.881C104.227 155.423 105.464 154.238 106.93 154.238C108.395 154.238 109.518 155.423 109.457 156.881Z" fill="#000091"/>
<path d="M121.295 156.881C121.234 158.338 119.996 159.524 118.531 159.524C117.065 159.524 115.942 158.338 116.004 156.881C116.065 155.423 117.302 154.238 118.768 154.238C120.233 154.238 121.357 155.423 121.295 156.881Z" fill="#000091"/>
<path d="M133.124 156.881C133.063 158.338 131.826 159.524 130.36 159.524C128.895 159.524 127.771 158.338 127.833 156.881C127.894 155.423 129.132 154.238 130.597 154.238C132.063 154.238 133.186 155.423 133.124 156.881Z" fill="#000091"/>
<path d="M144.963 156.881C144.901 158.338 143.664 159.524 142.198 159.524C140.733 159.524 139.61 158.338 139.671 156.881C139.732 155.423 140.97 154.238 142.435 154.238C143.901 154.238 145.024 155.423 144.963 156.881Z" fill="#000091"/>
<path d="M139.952 43.2414C139.724 48.2636 135.476 52.3375 130.457 52.3375C125.437 52.3375 121.55 48.2636 121.769 43.2414C121.997 38.2193 126.245 34.1454 131.264 34.1454C136.284 34.1454 140.171 38.2193 139.952 43.2414Z" fill="#FCC63A"/>
<path d="M148.122 63.971C143.787 69.5902 136.995 73.2427 129.518 73.2427C122.041 73.2427 115.582 69.5902 111.756 63.971C116.021 59.7215 122.769 56.9646 130.246 56.9646C137.723 56.9646 144.234 59.7215 148.122 63.971V63.971Z" fill="#FCC63A"/>
<path opacity="0.1" d="M139.952 43.2414C139.724 48.2636 135.476 52.3375 130.457 52.3375C125.437 52.3375 121.55 48.2636 121.769 43.2414C121.997 38.2193 126.245 34.1454 131.264 34.1454C136.284 34.1454 140.171 38.2193 139.952 43.2414Z" fill="white"/>
<path opacity="0.1" d="M148.122 63.971C143.787 69.5902 136.995 73.2427 129.518 73.2427C122.041 73.2427 115.582 69.5902 111.756 63.971C116.021 59.7215 122.769 56.9646 130.246 56.9646C137.723 56.9646 144.234 59.7215 148.122 63.971V63.971Z" fill="white"/>
<path d="M105.236 193.133V187.04H106.737L108.149 189.551L109.562 187.04H111.063V193.133H109.878V188.796L108.571 191.044H107.737L106.429 188.796V193.133H105.245H105.236Z" fill="white"/>
<path d="M114.503 188.568C114.845 188.568 115.152 188.629 115.442 188.761C115.723 188.884 115.968 189.051 116.17 189.27C116.381 189.481 116.539 189.727 116.644 190.016C116.758 190.306 116.811 190.613 116.811 190.938C116.811 191.263 116.758 191.57 116.644 191.86C116.53 192.15 116.372 192.405 116.17 192.615C115.968 192.826 115.723 192.993 115.442 193.125C115.161 193.247 114.845 193.309 114.503 193.309C114.161 193.309 113.854 193.247 113.564 193.125C113.283 192.993 113.037 192.826 112.827 192.615C112.625 192.405 112.467 192.15 112.362 191.86C112.248 191.57 112.195 191.263 112.195 190.938C112.195 190.613 112.248 190.306 112.362 190.016C112.476 189.727 112.634 189.481 112.827 189.27C113.037 189.059 113.283 188.884 113.564 188.761C113.845 188.629 114.161 188.568 114.503 188.568ZM114.52 192.255C114.854 192.255 115.135 192.132 115.363 191.878C115.591 191.623 115.705 191.307 115.705 190.93C115.705 190.552 115.591 190.227 115.363 189.981C115.135 189.735 114.854 189.604 114.52 189.604C114.169 189.604 113.88 189.727 113.643 189.981C113.415 190.227 113.301 190.543 113.301 190.93C113.301 191.316 113.415 191.632 113.643 191.878C113.88 192.124 114.169 192.255 114.52 192.255Z" fill="white"/>
<path d="M117.785 193.133V188.743H118.847V189.095C118.996 188.945 119.163 188.831 119.364 188.726C119.575 188.62 119.812 188.568 120.093 188.568C120.321 188.568 120.532 188.612 120.725 188.691C120.927 188.77 121.102 188.893 121.242 189.059C121.392 189.226 121.514 189.428 121.593 189.665C121.681 189.911 121.725 190.192 121.725 190.517V193.125H120.646V190.552C120.646 190.262 120.567 190.034 120.418 189.867C120.268 189.692 120.075 189.604 119.812 189.604C119.549 189.604 119.329 189.683 119.18 189.832C119.031 189.981 118.917 190.122 118.838 190.262V193.125H117.776L117.785 193.133Z" fill="white"/>
<path d="M125.779 192.15C126.113 192.15 126.411 192.071 126.666 191.922C126.929 191.764 127.14 191.562 127.306 191.316L128.245 192.062C127.973 192.44 127.631 192.738 127.21 192.967C126.789 193.195 126.306 193.309 125.779 193.309C125.323 193.309 124.902 193.221 124.516 193.046C124.13 192.87 123.805 192.642 123.524 192.352C123.252 192.062 123.041 191.72 122.892 191.333C122.743 190.938 122.664 190.526 122.664 190.087C122.664 189.648 122.743 189.235 122.892 188.849C123.041 188.454 123.252 188.111 123.524 187.821C123.796 187.532 124.13 187.303 124.516 187.128C124.902 186.952 125.323 186.864 125.779 186.864C126.306 186.864 126.789 186.979 127.21 187.216C127.631 187.444 127.982 187.734 128.245 188.102L127.306 188.857C127.14 188.612 126.92 188.41 126.666 188.26C126.411 188.102 126.113 188.023 125.779 188.023C125.507 188.023 125.253 188.076 125.016 188.19C124.779 188.296 124.577 188.436 124.41 188.629C124.252 188.805 124.121 189.024 124.024 189.279C123.928 189.525 123.884 189.797 123.884 190.087C123.884 190.376 123.928 190.649 124.024 190.903C124.121 191.149 124.244 191.369 124.41 191.553C124.577 191.729 124.779 191.878 125.016 191.992C125.253 192.097 125.507 192.15 125.779 192.15V192.15Z" fill="white"/>
<path d="M131.062 188.568C131.405 188.568 131.712 188.629 132.001 188.761C132.282 188.884 132.528 189.051 132.73 189.27C132.94 189.481 133.098 189.727 133.204 190.016C133.318 190.306 133.37 190.613 133.37 190.938C133.37 191.263 133.318 191.57 133.204 191.86C133.089 192.15 132.932 192.405 132.73 192.615C132.528 192.826 132.282 192.993 132.001 193.125C131.721 193.247 131.405 193.309 131.062 193.309C130.72 193.309 130.413 193.247 130.123 193.125C129.843 192.993 129.597 192.826 129.386 192.615C129.184 192.405 129.026 192.15 128.921 191.86C128.807 191.57 128.754 191.263 128.754 190.938C128.754 190.613 128.807 190.306 128.921 190.016C129.035 189.727 129.193 189.481 129.386 189.27C129.597 189.059 129.834 188.884 130.123 188.761C130.404 188.629 130.72 188.568 131.062 188.568ZM131.08 192.255C131.413 192.255 131.694 192.132 131.922 191.878C132.151 191.623 132.265 191.307 132.265 190.93C132.265 190.552 132.151 190.227 131.922 189.981C131.694 189.735 131.413 189.604 131.08 189.604C130.729 189.604 130.439 189.727 130.202 189.981C129.974 190.227 129.86 190.543 129.86 190.93C129.86 191.316 129.974 191.632 130.202 191.878C130.439 192.124 130.729 192.255 131.08 192.255Z" fill="white"/>
<path d="M134.344 193.133V188.743H135.406V189.077C135.547 188.928 135.713 188.814 135.898 188.717C136.091 188.62 136.31 188.568 136.565 188.568C136.837 188.568 137.091 188.638 137.319 188.77C137.556 188.901 137.74 189.086 137.881 189.332C138.039 189.138 138.223 188.954 138.442 188.805C138.662 188.647 138.934 188.568 139.259 188.568C139.478 188.568 139.68 188.612 139.873 188.691C140.066 188.77 140.224 188.884 140.364 189.042C140.505 189.191 140.61 189.384 140.689 189.621C140.777 189.85 140.812 190.122 140.812 190.429V193.125H139.741V190.473C139.741 190.21 139.671 189.999 139.539 189.85C139.408 189.692 139.224 189.613 138.987 189.613C138.767 189.613 138.583 189.683 138.442 189.823C138.302 189.955 138.188 190.095 138.109 190.245C138.109 190.271 138.109 190.306 138.109 190.341V193.133H137.03V190.482C137.03 190.218 136.968 190.008 136.837 189.858C136.705 189.7 136.521 189.621 136.284 189.621C136.047 189.621 135.854 189.7 135.713 189.85C135.573 189.999 135.468 190.139 135.389 190.28V193.142H134.327L134.344 193.133Z" fill="white"/>
<path d="M142.032 195.276V188.743H143.094V189.059C143.26 188.901 143.453 188.787 143.673 188.699C143.892 188.612 144.138 188.568 144.41 188.568C144.743 188.568 145.042 188.629 145.305 188.761C145.577 188.893 145.796 189.059 145.981 189.279C146.165 189.49 146.305 189.744 146.402 190.034C146.498 190.315 146.551 190.622 146.551 190.938C146.551 191.254 146.498 191.562 146.402 191.851C146.305 192.132 146.165 192.387 145.981 192.598C145.796 192.808 145.568 192.984 145.305 193.116C145.042 193.247 144.743 193.309 144.41 193.309C144.138 193.309 143.892 193.265 143.673 193.177C143.453 193.098 143.26 192.975 143.094 192.817V195.276H142.032V195.276ZM143.102 191.606C143.243 191.816 143.409 191.983 143.594 192.106C143.787 192.22 144.006 192.273 144.252 192.273C144.612 192.273 144.893 192.15 145.112 191.895C145.331 191.641 145.437 191.333 145.437 190.947C145.437 190.561 145.331 190.245 145.112 189.999C144.893 189.753 144.603 189.621 144.252 189.621C144.006 189.621 143.787 189.683 143.594 189.797C143.401 189.911 143.243 190.069 143.102 190.289V191.623V191.606Z" fill="white"/>
<path d="M147.736 191.527V189.753H146.946V188.743H147.736V187.646H148.806V188.743H150.096V189.753H148.806V191.527C148.806 191.772 148.868 191.948 148.982 192.045C149.105 192.15 149.271 192.203 149.473 192.203C149.622 192.203 149.745 192.203 149.842 192.176C149.938 192.159 150.026 192.132 150.105 192.106V193.072C150 193.116 149.877 193.151 149.745 193.177C149.614 193.204 149.464 193.212 149.289 193.212C148.762 193.212 148.376 193.063 148.122 192.765C147.867 192.466 147.736 192.053 147.736 191.518V191.527Z" fill="white"/>
<path d="M154.853 192.413C154.66 192.686 154.405 192.905 154.08 193.063C153.765 193.221 153.405 193.3 153.01 193.3C152.632 193.3 152.299 193.239 152.009 193.107C151.72 192.975 151.474 192.808 151.272 192.589C151.079 192.378 150.93 192.124 150.816 191.843C150.719 191.553 150.667 191.246 150.667 190.93C150.667 190.613 150.711 190.297 150.807 190.016C150.904 189.727 151.053 189.472 151.237 189.261C151.421 189.051 151.65 188.875 151.913 188.752C152.185 188.62 152.483 188.559 152.834 188.559C153.413 188.559 153.887 188.743 154.238 189.112C154.598 189.481 154.774 189.946 154.774 190.526C154.774 190.649 154.774 190.763 154.747 190.877C154.739 190.991 154.721 191.079 154.703 191.158H151.746C151.781 191.518 151.913 191.799 152.141 192.001C152.369 192.203 152.659 192.308 153.019 192.308C153.247 192.308 153.457 192.264 153.642 192.168C153.826 192.071 153.975 191.939 154.089 191.781L154.853 192.405V192.413ZM152.834 189.49C152.58 189.49 152.36 189.56 152.194 189.7C152.018 189.832 151.895 190.043 151.825 190.324H153.721C153.721 190.113 153.633 189.92 153.475 189.753C153.326 189.577 153.106 189.49 152.834 189.49V189.49Z" fill="white"/>
<path d="M156.037 193.133V187.04H157.968C158.609 187.04 159.118 187.207 159.486 187.532C159.863 187.857 160.048 188.304 160.048 188.866C160.048 189.428 159.863 189.867 159.486 190.192C159.118 190.517 158.617 190.684 157.968 190.684H157.222V193.151H156.037V193.133ZM158.021 188.094H157.222V189.621H158.021C158.275 189.621 158.468 189.551 158.609 189.419C158.758 189.288 158.828 189.095 158.828 188.849C158.828 188.62 158.758 188.436 158.609 188.304C158.468 188.173 158.275 188.102 158.021 188.102V188.094Z" fill="white"/>
<path d="M160.873 193.133V188.743H161.935V189.182C162.075 189.033 162.233 188.919 162.408 188.814C162.593 188.708 162.803 188.656 163.04 188.656C163.11 188.656 163.181 188.656 163.242 188.673C163.303 188.691 163.356 188.699 163.409 188.717V189.876C163.339 189.858 163.268 189.841 163.189 189.832C163.119 189.823 163.031 189.814 162.935 189.814C162.68 189.814 162.461 189.876 162.294 189.999C162.128 190.122 162.005 190.245 161.926 190.385V193.133H160.864H160.873Z" fill="white"/>
<path d="M166.164 188.568C166.507 188.568 166.814 188.629 167.103 188.761C167.384 188.884 167.63 189.051 167.832 189.27C168.042 189.481 168.2 189.727 168.306 190.016C168.42 190.306 168.472 190.613 168.472 190.938C168.472 191.263 168.42 191.57 168.306 191.86C168.191 192.15 168.033 192.405 167.832 192.615C167.63 192.826 167.384 192.993 167.103 193.125C166.822 193.247 166.507 193.309 166.164 193.309C165.822 193.309 165.515 193.247 165.225 193.125C164.944 192.993 164.699 192.826 164.488 192.615C164.286 192.405 164.128 192.15 164.023 191.86C163.909 191.57 163.856 191.263 163.856 190.938C163.856 190.613 163.909 190.306 164.023 190.016C164.137 189.727 164.295 189.481 164.488 189.27C164.699 189.059 164.936 188.884 165.225 188.761C165.506 188.629 165.822 188.568 166.164 188.568ZM166.182 192.255C166.515 192.255 166.796 192.132 167.024 191.878C167.252 191.623 167.367 191.307 167.367 190.93C167.367 190.552 167.252 190.227 167.024 189.981C166.796 189.735 166.515 189.604 166.182 189.604C165.831 189.604 165.541 189.727 165.304 189.981C165.076 190.227 164.962 190.543 164.962 190.93C164.962 191.316 165.076 191.632 165.304 191.878C165.541 192.124 165.831 192.255 166.182 192.255Z" fill="white"/>
<path d="M18.999 124.562C18.1653 126.388 17.2965 128.39 16.5243 130.348C15.752 132.323 14.9798 134.299 14.3041 136.309C12.9965 140.322 11.7679 144.369 11.1712 148.426L10.9694 149.716C10.9518 149.874 10.9694 150.094 11.0308 150.375C11.1624 150.937 11.5047 151.683 11.9961 152.412C12.9877 153.896 14.383 155.397 15.8924 156.784C17.4018 158.198 19.0341 159.55 20.7365 160.841C22.4214 162.14 24.1941 163.404 25.9316 164.59L24.2994 167.671C20.1222 165.845 16.2347 163.659 12.47 160.92C10.6183 159.506 8.79304 157.987 7.16957 155.933C6.371 154.896 5.58998 153.729 5.07223 152.183C4.82651 151.411 4.651 150.542 4.651 149.602C4.651 149.383 4.66855 149.084 4.6861 148.935L4.72998 148.496L4.81774 147.627C5.29161 142.973 6.32712 138.495 7.68733 134.158C8.37182 131.99 9.10018 129.847 9.93386 127.74C10.7851 125.624 11.6275 123.587 12.6894 121.454L19.0077 124.562H18.999Z" fill="#A38F78"/>
<path d="M24.7118 164.063L30.9161 160.92L29.3102 167.742C29.3102 167.742 25.0541 168.936 23.0708 166.864L24.7118 164.072V164.063Z" fill="#A38F78"/>
<path d="M36.5939 162.035L34.9441 167.671L29.3102 167.733L30.9073 160.92L36.5939 162.035Z" fill="#A38F78"/>
<path d="M45.3518 91.6894C45.3518 91.6894 45.8871 93.6649 46.7383 95.1575C46.0012 95.8423 45.3518 95.6053 45.3518 95.6053V91.6894V91.6894Z" fill="#FA7659"/>
<path d="M45.1676 91.7421C45.5311 91.7421 45.8257 91.29 45.8257 90.7324C45.8257 90.1747 45.5311 89.7227 45.1676 89.7227C44.8041 89.7227 44.5094 90.1747 44.5094 90.7324C44.5094 91.29 44.8041 91.7421 45.1676 91.7421Z" fill="#6A6156"/>
<path d="M45.0095 89.7578L46.3434 89.3715C46.3434 89.3715 45.6589 90.4163 45.0095 89.7578Z" fill="#6A6156"/>
<path d="M28.2045 98.1339C29.0031 102.225 29.8016 109.715 26.9496 112.436C26.9496 112.436 28.0641 116.581 35.6549 116.581C44.0004 116.581 39.6478 112.436 39.6478 112.436C35.0933 111.348 35.2073 107.967 36.0059 104.789L28.2133 98.1339H28.2045Z" fill="#A38F78"/>
<path d="M25.993 88.8271C26.4142 95.6491 26.4406 98.5465 29.8893 102.05C35.0669 107.318 43.3597 105.307 44.9832 98.5026C46.4487 92.3742 45.5185 82.2421 38.8404 79.5291C32.2675 76.8512 25.5718 82.005 25.993 88.8271V88.8271Z" fill="#A38F78"/>
<path d="M26.66 81.1095C23.2376 82.3563 18.6743 81.4256 20.4645 91.9879C22.36 103.174 19.4465 106.852 19.4465 106.852C19.4465 106.852 32.4255 109.618 45.6765 106.686C45.6765 106.686 41.631 99.6089 42.7631 94.4463C44.211 87.8613 43.0614 85.4205 43.0614 85.4205C43.0614 85.4205 31.4602 79.3535 26.6512 81.1095H26.66Z" fill="#6A6156"/>
<path d="M41.1483 92.383C41.1307 93.7351 41.6046 95.096 42.2189 96.0442C43.1403 97.4666 44.2373 96.8871 44.5181 95.4121C44.7638 94.0863 44.5795 91.7421 43.3948 90.8289C42.2277 89.9334 41.1571 90.8289 41.1483 92.383V92.383Z" fill="#A38F78"/>
<path d="M23.6939 82.3036C22.711 79.5467 27.3972 75.2971 37.3135 77.0619C47.2298 78.8267 47.6598 87.0799 47.6598 87.0799L45.6502 84.7005L45.738 87.2116L35.5496 89.1695L23.6851 82.3124L23.6939 82.3036Z" fill="#6A6156"/>
<path d="M24.5363 112.902C24.3959 112.059 24.9663 111.26 25.8087 111.128C28.8977 110.619 35.9093 109.583 39.4459 110.075C42.0697 110.435 42.763 111.971 42.8771 113.227C42.9561 114.157 42.1926 114.939 41.2624 114.895L26.0018 114.201C25.2646 114.166 24.6591 113.622 24.545 112.902H24.5363Z" fill="#4A9DF7"/>
<path opacity="0.6" d="M24.5363 112.902C24.3959 112.059 24.9663 111.26 25.8087 111.128C28.8977 110.619 35.9093 109.583 39.4459 110.075C42.0697 110.435 42.763 111.971 42.8771 113.227C42.9561 114.157 42.1926 114.939 41.2624 114.895L26.0018 114.201C25.2646 114.166 24.6591 113.622 24.545 112.902H24.5363Z" fill="#2F2F2F"/>
<path d="M33.3557 266.288L39.0071 270.222L48.4759 257.376L42.8245 253.452L33.3557 266.288Z" fill="#A38F78"/>
<path d="M20.1486 266.034L26.1335 269.44L34.5141 255.858L28.5292 252.451L20.1486 266.034Z" fill="#A38F78"/>
<path d="M48.4759 257.376L43.5967 263.997L37.9365 260.072L42.8157 253.452L48.4759 257.376Z" fill="#D5706F"/>
<path d="M28.5292 252.451L34.5141 255.866L30.1878 262.864L24.2029 259.449L28.5292 252.451Z" fill="#D5706F"/>
<path d="M38.1208 155.774C38.1208 155.774 60.2176 183.642 56.0755 210.281C52.7233 231.8 33.3382 260.941 33.3382 260.941L24.2204 256.411C24.2204 256.411 34.128 237.042 40.6306 216.514C43.3598 207.901 42.1927 198.419 37.0941 190.965C25.8966 174.608 7.96819 184.336 20.0345 155.774H38.1296H38.1208Z" fill="#4A9DF7"/>
<path opacity="0.6" d="M38.1208 155.774C38.1208 155.774 60.2176 183.642 56.0755 210.281C52.7233 231.8 33.3382 260.941 33.3382 260.941L24.2204 256.411C24.2204 256.411 34.128 237.042 40.6306 216.514C43.3598 207.901 42.1927 198.419 37.0941 190.965C25.8966 174.608 7.96819 184.336 20.0345 155.774H38.1296H38.1208Z" fill="#2F2F2F"/>
<path opacity="0.4" d="M48.9585 173.677L45.7467 170.481C45.7467 170.736 51.9685 209.157 53.7149 219.956C54.7679 216.646 55.5841 213.38 56.0667 210.272C58.0938 197.225 53.8289 183.879 48.9498 173.668L48.9585 173.677Z" fill="#2F2F2F"/>
<path d="M47.9932 155.774C47.9932 155.774 74.6006 190.789 75.3465 211.791C75.9695 229.386 46.361 263.373 46.361 263.373L37.761 257.807C37.761 257.807 55.0751 233.644 59.4365 213.898C57.7779 194.345 22.1055 155.783 22.1055 155.783H47.9932V155.774Z" fill="#4A9DF7"/>
<path opacity="0.6" d="M47.9932 155.774C47.9932 155.774 74.6006 190.789 75.3465 211.791C75.9695 229.386 46.361 263.373 46.361 263.373L37.761 257.807C37.761 257.807 55.0751 233.644 59.4365 213.898C57.7779 194.345 22.1055 155.783 22.1055 155.783H47.9932V155.774Z" fill="#2F2F2F"/>
<path d="M15.0764 113.999C12.2243 114.675 9.50391 125.018 9.50391 125.018L20.6137 132.437C20.6137 132.437 24.317 124.254 23.027 120.672C21.6843 116.941 18.6743 113.139 15.0764 113.991V113.999Z" fill="#4A9DF7"/>
<path opacity="0.2" d="M17.2526 120.655L16.4803 129.672L20.6136 132.446C20.6136 132.446 22.553 128.161 23.1322 124.421L17.2526 120.655V120.655Z" fill="#2F2F2F"/>
<path d="M51.284 114.201C51.284 114.201 54.5661 115.36 47.9932 155.774H20.0345C20.4996 144.387 20.5171 137.372 15.0763 113.999C15.0763 113.999 20.9383 112.726 26.9496 112.436C31.6532 112.208 35.5057 112.059 39.6477 112.436C45.0973 112.937 51.284 114.201 51.284 114.201V114.201Z" fill="#4A9DF7"/>
<path d="M54.1186 120.619C54.7504 122.375 55.4261 124.263 56.1194 126.089C56.7863 127.933 57.4884 129.777 58.1992 131.612L60.3492 137.126L60.8933 138.504L61.1653 139.189L61.3057 139.532C61.332 139.593 61.3233 139.584 61.3145 139.584C61.2794 139.567 61.2443 139.391 60.7002 139.04C60.4369 138.873 59.9894 138.715 59.5506 138.706C59.1206 138.689 58.7696 138.794 58.5765 138.882C58.1816 139.075 58.1729 139.154 58.1816 139.136C58.208 139.128 58.2869 139.049 58.3747 138.934C58.7608 138.478 59.2171 137.679 59.6296 136.889C60.042 136.081 60.4369 135.221 60.8318 134.351C61.6041 132.604 62.3149 130.778 63.0345 128.943C63.7453 127.108 64.4122 125.246 65.0792 123.376L67.08 117.775L70.4586 118.626C69.7916 122.63 68.9229 126.563 67.8961 130.497C67.3959 132.472 66.808 134.43 66.141 136.406C65.8075 137.398 65.439 138.381 65.009 139.391C64.5614 140.41 64.1226 141.402 63.3416 142.569C63.1398 142.868 62.9028 143.175 62.5782 143.518C62.2359 143.851 61.8322 144.264 60.981 144.65C60.551 144.835 59.9631 144.993 59.2786 144.966C58.5941 144.949 57.9096 144.703 57.4269 144.404C56.4529 143.781 56.1194 143.193 55.8298 142.745C55.6982 142.526 55.5841 142.288 55.5051 142.13L55.3384 141.788L55.0049 141.103L54.338 139.742C53.4692 137.916 52.618 136.081 51.8194 134.22C51.0208 132.358 50.2486 130.488 49.4939 128.6C48.7743 126.686 48.0635 124.834 47.4229 122.797L54.1186 120.611V120.619Z" fill="#A38F78"/>
<path d="M51.284 114.201C54.6451 115 58.4185 124.939 58.4185 124.939L48.432 133.456C48.432 133.456 41.9557 122.621 43.272 119.048C44.6322 115.325 46.8963 113.156 51.284 114.21V114.201Z" fill="#4A9DF7"/>
<path d="M68.642 114.684L72.1434 111.752L74.583 115.553L72.784 118.732C72.784 118.732 69.9232 121.348 67.3871 120.022C66.571 118.17 67.0799 115.992 68.6332 114.693L68.642 114.684Z" fill="#A38F78"/>
<path d="M78.5145 111.76L78.2512 112.717L72.6963 113.648L72.1522 111.752L78.5145 111.76Z" fill="#A38F78"/>
<path d="M47.0806 263.821L37.059 257.341L38.8492 254.216L50.1169 261.143L47.0806 263.821Z" fill="#4A9DF7"/>
<path d="M30.0386 268.984C29.24 268.984 28.1957 268.474 27.5551 268.123C27.4937 268.088 27.4674 268.027 27.4761 267.965C27.4761 267.904 27.5288 267.842 27.5902 267.825C27.8623 267.737 30.2404 267.008 30.9074 267.579C31.0127 267.667 31.1355 267.833 31.0916 268.106C31.039 268.474 30.8723 268.729 30.6002 268.869C30.4423 268.948 30.2492 268.984 30.0386 268.984ZM28.0641 268.027C29.1523 268.58 30.0298 268.79 30.451 268.58C30.6265 268.492 30.7318 268.325 30.7669 268.07C30.7845 267.93 30.7406 267.869 30.688 267.833C30.3369 267.535 29.0206 267.763 28.0553 268.035L28.0641 268.027Z" fill="#6A6156"/>
<path d="M27.634 268.141C27.5902 268.141 27.5463 268.123 27.52 268.088C27.4761 268.044 27.4673 267.983 27.4761 267.93C27.5024 267.851 28.0465 265.946 28.9504 265.507C29.1873 265.393 29.433 265.384 29.67 265.48C30.0473 265.638 30.0824 265.919 30.0736 266.069C30.0122 266.859 28.4063 267.948 27.6691 268.132C27.6604 268.132 27.6428 268.132 27.634 268.132V268.141ZM29.3365 265.744C29.2575 265.744 29.1785 265.761 29.0908 265.805C28.5555 266.069 28.0991 267.096 27.8885 267.719C28.6608 267.394 29.7138 266.534 29.7489 266.051C29.7489 265.972 29.7402 265.875 29.5471 265.788C29.4769 265.761 29.4067 265.744 29.3365 265.744Z" fill="#6A6156"/>
<path d="M42.57 272.777C41.5784 272.777 40.2006 271.503 39.4459 270.722C39.3933 270.669 39.3845 270.599 39.4196 270.538C39.4547 270.476 39.5337 270.441 39.5864 270.45C39.9374 270.494 42.9825 270.906 43.4213 271.767C43.5002 271.934 43.5002 272.109 43.4037 272.285C43.2457 272.566 43.0088 272.733 42.7104 272.768C42.6666 272.768 42.6227 272.768 42.5788 272.768L42.57 272.777ZM40.0251 270.845C41.1308 271.925 42.1049 272.522 42.6578 272.443C42.8508 272.417 43 272.311 43.1053 272.118C43.1492 272.048 43.1492 271.978 43.1141 271.916C42.8772 271.451 41.2537 271.038 40.0164 270.845H40.0251Z" fill="#6A6156"/>
<path d="M40.1304 270.81C39.9022 270.81 39.7004 270.792 39.5424 270.766C39.4897 270.757 39.4371 270.713 39.4195 270.661C39.402 270.608 39.4108 270.546 39.4459 270.503C39.4985 270.441 40.6832 269.01 41.8065 268.913C42.1575 268.887 42.4559 268.984 42.7104 269.194C43.0526 269.493 43.0351 269.756 42.9473 269.923C42.6665 270.511 41.1483 270.81 40.1304 270.81V270.81ZM39.9022 270.476C40.8851 270.529 42.4471 270.204 42.6577 269.774C42.6753 269.739 42.7279 269.633 42.4997 269.431C42.3067 269.273 42.0873 269.203 41.8416 269.221C41.1044 269.282 40.2795 270.064 39.911 270.467L39.9022 270.476Z" fill="#6A6156"/>
<path d="M27.8797 267.219L20.4381 265.112C20.166 265.033 19.894 265.164 19.7799 265.419L17.2701 271.073C17.0069 271.661 17.3754 272.39 17.9985 272.548C20.6048 273.233 21.9036 273.435 25.1769 274.366C27.1865 274.936 30.0736 275.972 32.8554 276.763C35.5758 277.535 36.5587 274.84 35.4705 274.26C30.5914 271.67 30.2052 269.906 28.8714 267.939C28.6344 267.588 28.2746 267.333 27.8797 267.219V267.219Z" fill="#4A9DF7"/>
<path d="M39.6565 269.695L33.3031 265.278C33.0749 265.12 32.7765 265.147 32.5835 265.349L28.3712 269.879C27.9325 270.344 28.0378 271.152 28.5819 271.512C30.8196 273.014 31.978 273.628 34.7774 275.569C36.4974 276.763 39.9286 279.414 42.298 281.056C44.6235 282.672 46.4312 280.441 45.5888 279.546C41.8153 275.516 40.9904 272.987 40.3674 270.696C40.2533 270.283 39.9988 269.923 39.6653 269.695H39.6565Z" fill="#4A9DF7"/>
<path d="M34.5052 261.529L23.0444 255.831L24.2379 252.723L36.4622 258.729L34.5052 261.529Z" fill="#4A9DF7"/>
<path d="M19.6133 154.133L18.6479 156.635C18.5514 156.828 18.7796 157.03 19.1043 157.03H48.1337C48.3882 157.03 48.5988 156.907 48.6075 156.749L48.862 154.247C48.8796 154.071 48.6602 153.931 48.3882 153.931H20.0696C19.859 153.931 19.6747 154.018 19.6133 154.141V154.133Z" fill="#4A9DF7"/>
<path opacity="0.4" d="M19.6133 154.133L18.6479 156.635C18.5514 156.828 18.7796 157.03 19.1043 157.03H48.1337C48.3882 157.03 48.5988 156.907 48.6075 156.749L48.862 154.247C48.8796 154.071 48.6602 153.931 48.3882 153.931H20.0696C19.859 153.931 19.6747 154.018 19.6133 154.141V154.133Z" fill="white"/>
<path d="M24.1765 157.302H23.4218C23.2727 157.302 23.1586 157.223 23.1673 157.127L23.5271 153.869C23.5359 153.773 23.6675 153.694 23.8167 153.694H24.5714C24.7206 153.694 24.8347 153.773 24.8259 153.869L24.4661 157.127C24.4573 157.223 24.3257 157.302 24.1765 157.302Z" fill="#4A9DF7"/>
<path d="M42.0873 157.302H41.3326C41.1834 157.302 41.0693 157.223 41.0781 157.127L41.4379 153.869C41.4467 153.773 41.5783 153.694 41.7275 153.694H42.4822C42.6314 153.694 42.7455 153.773 42.7367 153.869L42.3769 157.127C42.3681 157.223 42.2365 157.302 42.0873 157.302Z" fill="#4A9DF7"/>
<g style="mix-blend-mode:multiply">
<path d="M23.5096 305.991C36.4936 305.991 47.0192 305.229 47.0192 304.288C47.0192 303.347 36.4936 302.585 23.5096 302.585C10.5256 302.585 0 303.347 0 304.288C0 305.229 10.5256 305.991 23.5096 305.991Z" fill="#F5F5F5"/>
</g>
<path d="M37.84 301.882C33.6805 300.671 29.0996 299.117 26.2739 297.466C26.1949 297.422 26.116 297.387 26.0282 297.343V278.527H34.3913C35.7778 278.527 36.8923 277.404 36.8923 276.025C36.8923 274.647 35.769 273.523 34.3913 273.523H26.0282V187.637H21.0174V273.523H12.6456C11.259 273.523 10.1445 274.647 10.1445 276.025C10.1445 277.404 11.2678 278.527 12.6456 278.527H21.0086V297.343C20.9296 297.387 20.8419 297.422 20.7629 297.466C17.9284 299.125 13.3564 300.679 9.19678 301.882C7.8278 302.277 8.11739 304.288 9.53903 304.288H37.489C38.9107 304.288 39.2003 302.277 37.8313 301.882H37.84Z" fill="#E0E0E0"/>
<path d="M39.1212 178.883H7.91547C5.40494 178.883 3.36975 180.92 3.36975 183.431V192.712C3.36975 195.224 5.40494 197.26 7.91547 197.26H39.1212C41.6317 197.26 43.6669 195.224 43.6669 192.712V183.431C43.6669 180.92 41.6317 178.883 39.1212 178.883Z" fill="#4A9DF7"/>
<path d="M7.62585 197.269V198.867C7.62585 200.184 9.05626 201.264 10.8114 201.264H36.2252C37.9803 201.264 39.4108 200.184 39.4108 198.867V197.269H7.62585Z" fill="#4A9DF7"/>
<path opacity="0.3" d="M7.62585 197.269V198.867C7.62585 200.184 9.05626 201.264 10.8114 201.264H36.2252C37.9803 201.264 39.4108 200.184 39.4108 198.867V197.269H7.62585Z" fill="white"/>
<g clip-path="url(#clip1_157_81720)">
<path d="M93.121 194.412C93.116 194.261 93.1462 194.114 93.2117 193.978L95.1012 190.218C95.1566 190.107 95.1264 189.986 95.0458 189.896C94.3353 189.159 94.1942 188.008 94.8845 187.12C95.3431 186.53 96.124 186.212 96.8899 186.272C95.988 186.767 95.3985 187.715 95.4539 188.78C95.4942 189.532 95.852 190.193 96.3961 190.658C96.376 190.673 96.3508 190.688 96.3357 190.718L95.6605 192.06C95.5043 192.161 94.9853 191.949 94.9047 192.111C94.8241 192.272 95.3179 192.525 95.338 192.706C95.3431 192.767 95.2776 192.878 95.2322 192.918C95.1012 193.024 94.6376 192.944 94.5621 193.095C94.4865 193.246 94.9148 193.468 94.9097 193.635C94.9097 193.746 94.8392 193.827 94.7435 193.887C94.5873 193.988 94.2396 193.852 94.159 194.013C94.0784 194.175 94.4059 194.352 94.421 194.528C94.4311 194.624 94.3303 194.826 94.2446 194.881C93.9322 195.083 93.3528 195.3 93.3528 195.3C93.2722 195.32 93.1412 195.053 93.1462 194.937L93.121 194.417V194.412Z" fill="#C9191E"/>
<path d="M96.1241 184.738C96.1846 184.773 96.2753 184.758 96.3105 184.693C96.6683 184.122 97.3132 183.769 97.9834 183.769C99.0767 183.769 99.9635 184.652 99.9635 185.747C99.9635 186.191 99.8124 186.6 99.5655 186.933C99.3438 187.236 99.0314 187.468 98.6686 187.599C98.457 187.68 98.2252 187.726 97.9834 187.726C97.9128 187.726 97.8574 187.786 97.8574 187.857C97.8574 187.927 97.9128 187.988 97.9834 187.988C98.2504 187.988 98.4973 187.943 98.7291 187.857C98.9357 187.786 99.1221 187.685 99.2884 187.564C99.3791 187.503 99.4597 187.433 99.5353 187.357C99.6058 187.276 99.6763 187.196 99.7469 187.115C100.049 186.741 100.226 186.262 100.226 185.742C100.226 184.506 99.2229 183.502 97.9783 183.502C97.2124 183.502 96.4869 183.9 96.0838 184.551C96.0384 184.612 96.0586 184.693 96.1191 184.738H96.1241Z" fill="white"/>
<path d="M95.7664 188.2C95.9427 187.297 96.7086 186.56 97.6357 186.403C98.3058 186.292 98.9306 186.469 99.4143 186.817C99.1977 187.1 98.9054 187.317 98.5628 187.438C98.4368 187.292 98.2605 187.196 98.0489 187.196C97.681 187.196 97.3787 187.493 97.3787 187.857C97.3787 188.215 97.681 188.513 98.0489 188.513C98.3512 188.513 98.5981 188.316 98.6837 188.054C99.1574 187.907 99.5705 187.625 99.8728 187.241C100.185 187.63 100.372 188.114 100.372 188.644C100.372 189.618 99.7469 190.456 98.8601 190.774C98.7795 190.804 98.724 190.875 98.724 190.96V192.525C98.6283 192.686 98.064 192.711 98.064 192.898C98.064 193.085 98.6283 193.11 98.724 193.272C98.7543 193.327 98.7492 193.458 98.724 193.519C98.6535 193.675 98.195 193.801 98.195 193.978C98.195 194.15 98.6837 194.18 98.7593 194.336C98.8097 194.442 98.7845 194.548 98.724 194.644C98.6283 194.806 98.2504 194.831 98.2504 195.018C98.2504 195.204 98.6283 195.23 98.724 195.391C98.7744 195.482 98.7744 195.714 98.724 195.8C98.5326 196.123 98.1043 196.582 98.1043 196.582C98.0388 196.638 97.802 196.436 97.7516 196.33L97.4896 195.85C97.414 195.714 97.3737 195.558 97.3737 195.401V191.036C97.3737 190.91 97.2931 190.804 97.1772 190.758C96.1947 190.37 95.5447 189.35 95.7664 188.21V188.2Z" fill="white"/>
<path d="M93.7861 185.833C94.4966 185.243 95.5547 185.162 96.3709 185.636C96.6632 185.808 96.7035 185.798 96.8899 186.045C96.0334 185.712 95.2272 186.161 94.6125 186.913C93.8919 187.791 93.9776 189.063 94.7737 189.85C94.6981 189.83 94.6175 189.815 94.5419 189.79C94.4613 189.759 94.3757 189.779 94.3202 189.845L93.3276 191.051C93.1513 191.117 92.6978 190.774 92.5819 190.92C92.466 191.066 92.8842 191.445 92.854 191.626C92.8439 191.687 92.7532 191.788 92.6978 191.813C92.5416 191.889 92.1083 191.697 91.9974 191.828C91.8866 191.96 92.2494 192.293 92.204 192.464C92.1738 192.575 92.0881 192.641 91.9823 192.681C91.806 192.747 91.4986 192.525 91.3827 192.666C91.2668 192.807 91.5389 193.07 91.5087 193.256C91.4936 193.357 91.3424 193.539 91.2467 193.574C90.894 193.706 90.2742 193.786 90.2742 193.786C90.1886 193.786 90.1331 193.484 90.1634 193.367L90.2641 192.833C90.2944 192.676 90.3599 192.535 90.4606 192.414L93.2268 189.043C93.3075 188.947 93.3125 188.811 93.252 188.7C92.7381 187.776 92.8842 186.575 93.7761 185.833H93.7861Z" fill="#0071BC"/>
</g>
</g>
<defs>
<clipPath id="clip0_157_81720">
<rect width="258" height="306" fill="white"/>
</clipPath>
<clipPath id="clip1_157_81720">
<rect width="13.1633" height="13.17" fill="white" transform="translate(88.6327 183.502)"/>
</clipPath>
</defs>
</svg>
