<svg width="282" height="293" viewBox="0 0 282 293" fill="none" xmlns="http://www.w3.org/2000/svg">
<g clip-path="url(#clip0_155_72990)">
<path d="M173.579 149.157C129.223 148.537 70.0633 213.435 32.8058 169.045C-11.5511 116.176 88.1351 90.4365 110.878 52.5583C142.94 -0.874791 221.896 37.6226 255.855 100.002C268.516 123.25 257.141 162.61 228.061 165.797C196.329 169.296 198.995 149.511 173.579 149.157Z" fill="white"/>
<path opacity="0.9" d="M173.579 149.157C129.223 148.537 70.0633 213.435 32.8058 169.045C-11.5511 116.176 88.1351 90.4365 110.878 52.5583C142.94 -0.874791 221.896 37.6226 255.855 100.002C268.516 123.25 257.141 162.61 228.061 165.797C196.329 169.296 198.995 149.511 173.579 149.157Z" fill="white"/>
<path d="M251.496 181.501L250.568 197.88L251.286 197.918L252.214 181.539L251.496 181.501Z" fill="#407BFF"/>
<path d="M252.289 167.607L251.811 176.047L252.529 176.085L253.007 167.645L252.289 167.607Z" fill="#407BFF"/>
<path d="M237.144 229.101H152.914C151.64 229.116 150.376 228.876 149.202 228.396C148.028 227.916 146.97 227.206 146.093 226.311C145.216 225.416 144.539 224.356 144.105 223.196C143.672 222.036 143.49 220.802 143.573 219.571L153.273 48.3566C153.454 45.7907 154.626 43.3848 156.557 41.6185C158.488 39.8522 161.036 38.8552 163.692 38.8262H247.929C249.2 38.817 250.459 39.0613 251.628 39.5438C252.797 40.0264 253.851 40.7369 254.724 41.631C255.597 42.5251 256.271 43.5837 256.703 44.7408C257.135 45.8979 257.316 47.1288 257.235 48.3566L247.527 219.571C247.349 222.131 246.182 224.533 244.258 226.299C242.334 228.065 239.794 229.065 237.144 229.101V229.101Z" fill="#407BFF"/>
<path opacity="0.8" d="M232.049 229.101H152.914C151.64 229.116 150.376 228.876 149.202 228.396C148.028 227.916 146.97 227.206 146.093 226.311C145.216 225.416 144.539 224.356 144.105 223.196C143.672 222.036 143.49 220.802 143.573 219.57L153.273 48.3565C153.454 45.7906 154.626 43.3848 156.557 41.6185C158.488 39.8522 161.036 38.8552 163.692 38.8261H242.835C244.106 38.8159 245.366 39.0595 246.535 39.5417C247.705 40.0239 248.759 40.7344 249.632 41.6287C250.505 42.523 251.179 43.582 251.61 44.7396C252.042 45.8972 252.222 47.1285 252.14 48.3565L242.44 219.57C242.258 222.131 241.089 224.532 239.164 226.297C237.24 228.063 234.7 229.063 232.049 229.101V229.101Z" fill="white"/>
<path d="M192.83 69.8661H170.102C169.565 69.8701 169.033 69.7669 168.54 69.5629C168.046 69.3589 167.601 69.0584 167.233 68.6804C166.865 68.3024 166.581 67.8548 166.4 67.3658C166.218 66.8768 166.143 66.3568 166.179 65.8383V65.8383C166.254 64.7577 166.747 63.7442 167.559 62.9993C168.371 62.2543 169.443 61.8324 170.562 61.8174H193.29C193.826 61.8125 194.358 61.9148 194.852 62.118C195.345 62.3213 195.79 62.621 196.158 62.9985C196.527 63.376 196.811 63.8231 196.992 64.3118C197.174 64.8005 197.249 65.3202 197.213 65.8383V65.8383C197.138 66.9196 196.645 67.9338 195.833 68.6799C195.021 69.426 193.949 69.8494 192.83 69.8661Z" fill="white"/>
<path d="M197.213 65.8383C197.084 67.7888 196.198 69.6197 194.731 70.9632C193.265 72.3066 191.328 73.0629 189.309 73.08C188.342 73.0908 187.384 72.9077 186.493 72.5424C185.603 72.177 184.801 71.6372 184.137 70.957C183.473 70.2768 182.961 69.4709 182.634 68.5899C182.308 67.709 182.173 66.7721 182.238 65.8383C182.367 63.8878 183.254 62.0568 184.72 60.7133C186.186 59.3699 188.124 58.6136 190.142 58.5965C191.109 58.5857 192.068 58.7688 192.958 59.1341C193.848 59.4995 194.65 60.0393 195.315 60.7195C195.979 61.3997 196.49 62.2056 196.817 63.0866C197.144 63.9675 197.279 64.9044 197.213 65.8383V65.8383Z" fill="#407BFF"/>
<path d="M191.372 95.6122H168.643C168.107 95.6162 167.575 95.513 167.081 95.309C166.588 95.105 166.143 94.8045 165.775 94.4265C165.406 94.0485 165.123 93.6009 164.941 93.1119C164.76 92.6229 164.684 92.1029 164.72 91.5844C164.796 90.5038 165.289 89.4903 166.101 88.7454C166.913 88.0004 167.985 87.5785 169.103 87.5635H191.831C192.368 87.5585 192.899 87.6609 193.393 87.8641C193.887 88.0674 194.332 88.3671 194.7 88.7446C195.068 89.1221 195.352 89.5692 195.534 90.0579C195.715 90.5466 195.79 91.0663 195.755 91.5844V91.5844C195.679 92.6657 195.187 93.6799 194.375 94.426C193.563 95.1721 192.491 95.5955 191.372 95.6122V95.6122Z" fill="white"/>
<path d="M183.317 96.6517C186.36 93.7852 186.555 89.2 183.752 86.4103C180.949 83.6206 176.209 83.6828 173.165 86.5494C170.122 89.4159 169.927 94.0011 172.73 96.7908C175.533 99.5805 180.273 99.5182 183.317 96.6517Z" fill="#407BFF"/>
<path opacity="0.3" d="M183.317 96.6517C186.36 93.7852 186.555 89.2 183.752 86.4103C180.949 83.6206 176.209 83.6828 173.165 86.5494C170.122 89.4159 169.927 94.0011 172.73 96.7908C175.533 99.5805 180.273 99.5182 183.317 96.6517Z" fill="#FAFAFA"/>
<path d="M165.726 147.104H188.425C189.544 147.088 190.616 146.664 191.428 145.918C192.24 145.172 192.733 144.158 192.808 143.077C192.844 142.558 192.769 142.038 192.587 141.548C192.405 141.059 192.12 140.612 191.751 140.234C191.382 139.857 190.936 139.557 190.442 139.354C189.947 139.151 189.415 139.05 188.878 139.056H166.186C165.066 139.071 163.994 139.492 163.18 140.237C162.367 140.982 161.873 141.995 161.795 143.077V143.077C161.761 143.595 161.837 144.116 162.019 144.605C162.201 145.094 162.486 145.541 162.855 145.919C163.223 146.297 163.669 146.597 164.163 146.801C164.657 147.005 165.189 147.108 165.726 147.104V147.104Z" fill="white"/>
<path d="M174.358 148.133C177.401 145.267 177.596 140.682 174.793 137.892C171.99 135.102 167.25 135.165 164.206 138.031C161.163 140.898 160.968 145.483 163.771 148.272C166.574 151.062 171.314 151 174.358 148.133Z" fill="#407BFF"/>
<path opacity="0.7" d="M174.358 148.133C177.401 145.267 177.596 140.682 174.793 137.892C171.99 135.102 167.25 135.165 164.206 138.031C161.163 140.898 160.968 145.483 163.771 148.272C166.574 151.062 171.314 151 174.358 148.133Z" fill="#FAFAFA"/>
<path d="M186.988 172.85H164.267C163.73 172.854 163.198 172.751 162.704 172.547C162.21 172.343 161.765 172.043 161.396 171.665C161.027 171.287 160.743 170.84 160.561 170.351C160.378 169.862 160.302 169.341 160.337 168.823C160.414 167.741 160.909 166.728 161.722 165.983C162.535 165.238 163.608 164.817 164.727 164.802H187.448C187.985 164.796 188.518 164.897 189.012 165.1C189.506 165.303 189.952 165.603 190.321 165.98C190.69 166.358 190.975 166.805 191.157 167.294C191.339 167.784 191.414 168.304 191.379 168.823V168.823C191.303 169.905 190.809 170.92 189.996 171.667C189.182 172.413 188.109 172.835 186.988 172.85V172.85Z" fill="white"/>
<path d="M191.378 168.823C191.25 170.773 190.363 172.604 188.897 173.948C187.43 175.291 185.493 176.047 183.474 176.064C182.507 176.075 181.548 175.892 180.658 175.527C179.767 175.161 178.965 174.622 178.3 173.942C177.635 173.262 177.123 172.456 176.795 171.575C176.468 170.694 176.332 169.757 176.396 168.823C176.529 166.873 177.416 165.044 178.882 163.701C180.348 162.359 182.283 161.601 184.301 161.581C185.268 161.569 186.227 161.751 187.118 162.116C188.009 162.481 188.813 163.021 189.478 163.701C190.142 164.382 190.655 165.188 190.982 166.069C191.309 166.951 191.444 167.888 191.378 168.823V168.823Z" fill="#407BFF"/>
<path d="M167.184 121.358H189.913C191.032 121.342 192.104 120.918 192.916 120.172C193.728 119.426 194.22 118.412 194.296 117.33V117.33C194.331 116.812 194.256 116.291 194.074 115.802C193.892 115.313 193.608 114.866 193.238 114.488C192.869 114.11 192.424 113.811 191.929 113.608C191.435 113.405 190.902 113.304 190.365 113.31H167.644C166.526 113.325 165.454 113.746 164.642 114.491C163.83 115.236 163.337 116.25 163.261 117.33V117.33C163.225 117.849 163.301 118.369 163.482 118.858C163.664 119.347 163.947 119.794 164.316 120.173C164.684 120.551 165.129 120.851 165.622 121.055C166.116 121.259 166.648 121.362 167.184 121.358V121.358Z" fill="white"/>
<path d="M163.275 117.33C163.21 118.264 163.345 119.201 163.671 120.082C163.998 120.963 164.51 121.769 165.174 122.449C165.838 123.129 166.64 123.669 167.531 124.035C168.421 124.4 169.379 124.583 170.346 124.572C172.365 124.555 174.302 123.799 175.768 122.455C177.235 121.112 178.121 119.281 178.25 117.33C178.316 116.397 178.181 115.46 177.854 114.579C177.527 113.698 177.016 112.892 176.352 112.212C175.688 111.531 174.885 110.992 173.995 110.626C173.105 110.261 172.146 110.078 171.18 110.089C169.161 110.106 167.224 110.862 165.757 112.206C164.291 113.549 163.404 115.38 163.275 117.33V117.33Z" fill="#407BFF"/>
<path opacity="0.7" d="M163.275 117.33C163.21 118.264 163.345 119.201 163.671 120.082C163.998 120.963 164.51 121.769 165.174 122.449C165.838 123.129 166.64 123.669 167.531 124.035C168.421 124.4 169.379 124.583 170.346 124.572C172.365 124.555 174.302 123.799 175.768 122.455C177.235 121.112 178.121 119.281 178.25 117.33C178.316 116.397 178.181 115.46 177.854 114.579C177.527 113.698 177.016 112.892 176.352 112.212C175.688 111.531 174.885 110.992 173.995 110.626C173.105 110.261 172.146 110.078 171.18 110.089C169.161 110.106 167.224 110.862 165.757 112.206C164.291 113.549 163.404 115.38 163.275 117.33V117.33Z" fill="#FAFAFA"/>
<path d="M242.612 64.6348H208.926C208.711 64.6353 208.499 64.5931 208.302 64.5108C208.105 64.4286 207.928 64.3081 207.781 64.1568C207.634 64.0055 207.521 63.8266 207.448 63.6312C207.376 63.4358 207.345 63.2281 207.359 63.0209C207.39 62.5889 207.587 62.1839 207.912 61.8862C208.237 61.5885 208.665 61.4199 209.112 61.414H242.799C243.013 61.4126 243.225 61.4539 243.422 61.5354C243.619 61.6168 243.796 61.7367 243.943 61.8874C244.09 62.0382 244.203 62.2166 244.276 62.4116C244.349 62.6067 244.379 62.8141 244.365 63.0209V63.0209C244.336 63.4542 244.14 63.8609 243.815 64.1601C243.49 64.4592 243.06 64.6287 242.612 64.6348V64.6348Z" fill="white"/>
<path d="M231.388 70.2696H208.61C208.395 70.271 208.181 70.2295 207.984 70.1477C207.786 70.0659 207.608 69.9455 207.46 69.7941C207.312 69.6427 207.199 69.4635 207.126 69.2676C207.053 69.0718 207.022 68.8635 207.036 68.6557C207.067 68.2237 207.264 67.8186 207.589 67.521C207.913 67.2233 208.342 67.0547 208.789 67.0487H231.575C231.789 67.0474 232.002 67.0887 232.199 67.1701C232.396 67.2515 232.574 67.3712 232.722 67.5218C232.869 67.6725 232.983 67.8509 233.057 68.0459C233.13 68.2409 233.161 68.4485 233.149 68.6557C233.118 69.0895 232.92 69.4963 232.594 69.7953C232.268 70.0943 231.837 70.2636 231.388 70.2696V70.2696Z" fill="white"/>
<path d="M232.523 167.619H203.062C202.848 167.62 202.636 167.577 202.439 167.495C202.242 167.413 202.064 167.292 201.918 167.141C201.771 166.99 201.658 166.811 201.585 166.616C201.512 166.42 201.482 166.212 201.496 166.005C201.525 165.573 201.722 165.167 202.047 164.869C202.372 164.571 202.801 164.403 203.249 164.398H232.674C232.889 164.397 233.101 164.438 233.298 164.52C233.496 164.601 233.674 164.721 233.821 164.871C233.969 165.022 234.083 165.2 234.156 165.396C234.23 165.591 234.261 165.798 234.248 166.005C234.218 166.433 234.025 166.835 233.706 167.133C233.388 167.432 232.966 167.605 232.523 167.619V167.619Z" fill="white"/>
<path d="M217.319 173.247H202.797C202.582 173.248 202.37 173.207 202.173 173.126C201.975 173.044 201.797 172.925 201.65 172.774C201.502 172.623 201.388 172.445 201.315 172.25C201.242 172.055 201.21 171.847 201.223 171.64V171.64C201.254 171.208 201.451 170.803 201.776 170.505C202.101 170.208 202.529 170.039 202.976 170.033H217.52C217.734 170.032 217.947 170.073 218.144 170.154C218.341 170.236 218.519 170.356 218.667 170.506C218.814 170.657 218.928 170.835 219.002 171.03C219.075 171.225 219.106 171.433 219.094 171.64V171.64C219.063 172.076 218.862 172.484 218.533 172.782C218.204 173.08 217.77 173.246 217.319 173.247V173.247Z" fill="white"/>
<path d="M241.017 92.7948H207.331C206.884 92.8008 206.455 92.9694 206.13 93.2671C205.805 93.5647 205.608 93.9698 205.577 94.4018V94.4018C205.565 94.609 205.596 94.8165 205.669 95.0116C205.743 95.2066 205.857 95.385 206.004 95.5356C206.152 95.6863 206.33 95.806 206.527 95.8874C206.724 95.9687 206.937 96.0101 207.151 96.0087H240.837C241.285 96.0028 241.713 95.8342 242.038 95.5365C242.363 95.2388 242.56 94.8338 242.591 94.4018V94.4018C242.603 94.1946 242.572 93.987 242.499 93.792C242.425 93.597 242.311 93.4186 242.164 93.2679C242.016 93.1173 241.838 92.9976 241.641 92.9162C241.444 92.8348 241.231 92.7935 241.017 92.7948V92.7948Z" fill="white"/>
<path d="M230.432 87.16H207.654C207.207 87.166 206.778 87.3345 206.453 87.6322C206.129 87.9299 205.931 88.335 205.901 88.767V88.767C205.887 88.9742 205.917 89.1819 205.99 89.3773C206.062 89.5726 206.176 89.7515 206.322 89.9028C206.469 90.0541 206.647 90.1746 206.844 90.2569C207.04 90.3391 207.253 90.3813 207.467 90.3809H230.253C230.701 90.3732 231.129 90.2031 231.454 89.9043C231.779 89.6055 231.976 89.1996 232.006 88.767C232.02 88.5595 231.989 88.3515 231.916 88.156C231.843 87.9605 231.729 87.7818 231.582 87.6309C231.434 87.48 231.256 87.3603 231.058 87.2793C230.86 87.1983 230.647 87.1577 230.432 87.16Z" fill="white"/>
<path d="M223.29 116.127H206.044C205.83 116.127 205.618 116.085 205.421 116.003C205.224 115.921 205.046 115.8 204.9 115.649C204.753 115.498 204.639 115.319 204.567 115.123C204.494 114.928 204.464 114.72 204.478 114.513V114.513C204.507 114.08 204.704 113.674 205.029 113.376C205.354 113.078 205.783 112.91 206.231 112.906H223.477C223.693 112.902 223.908 112.941 224.107 113.021C224.307 113.101 224.488 113.22 224.638 113.371C224.787 113.522 224.903 113.702 224.978 113.898C225.053 114.095 225.085 114.304 225.072 114.513V114.513C225.041 114.95 224.84 115.36 224.509 115.66C224.178 115.959 223.743 116.126 223.29 116.127V116.127Z" fill="white"/>
<path d="M239.695 116.127H229.52C229.305 116.128 229.092 116.087 228.894 116.005C228.696 115.923 228.518 115.803 228.37 115.652C228.223 115.5 228.109 115.321 228.036 115.125C227.963 114.929 227.932 114.721 227.946 114.513V114.513C227.977 114.081 228.174 113.676 228.499 113.378C228.824 113.081 229.252 112.912 229.699 112.906H239.881C240.096 112.905 240.308 112.946 240.505 113.028C240.701 113.109 240.879 113.229 241.026 113.38C241.173 113.53 241.286 113.709 241.359 113.904C241.431 114.099 241.462 114.306 241.448 114.513V114.513C241.417 114.946 241.22 115.352 240.896 115.65C240.571 115.949 240.143 116.119 239.695 116.127V116.127Z" fill="white"/>
<path d="M228.471 121.755H205.671C205.456 121.756 205.244 121.715 205.047 121.633C204.849 121.552 204.671 121.432 204.524 121.282C204.376 121.131 204.262 120.953 204.189 120.758C204.116 120.563 204.084 120.355 204.097 120.148C204.128 119.716 204.325 119.311 204.65 119.013C204.975 118.715 205.403 118.547 205.85 118.541H228.665C228.879 118.54 229.092 118.581 229.289 118.662C229.486 118.744 229.664 118.863 229.811 119.014C229.959 119.165 230.073 119.343 230.146 119.538C230.22 119.733 230.251 119.941 230.238 120.148C230.208 120.582 230.008 120.989 229.68 121.287C229.353 121.585 228.92 121.752 228.471 121.755V121.755Z" fill="white"/>
<path d="M199.922 195.835H161.12C160.818 195.842 160.518 195.787 160.239 195.674C159.961 195.562 159.71 195.394 159.503 195.181C159.295 194.969 159.136 194.717 159.036 194.441C158.936 194.165 158.897 193.872 158.921 193.581V193.581C158.964 192.975 159.241 192.408 159.696 191.99C160.151 191.573 160.752 191.336 161.378 191.327H200.181C200.483 191.32 200.783 191.375 201.061 191.487C201.34 191.6 201.591 191.768 201.798 191.98C202.005 192.193 202.164 192.445 202.265 192.721C202.365 192.997 202.404 193.29 202.38 193.581C202.338 194.187 202.062 194.756 201.607 195.173C201.151 195.591 200.55 195.827 199.922 195.835V195.835Z" fill="white"/>
<path d="M234.514 195.835H210.701C210.399 195.842 210.099 195.787 209.821 195.674C209.542 195.562 209.291 195.394 209.084 195.181C208.876 194.969 208.717 194.717 208.617 194.441C208.517 194.165 208.478 193.872 208.502 193.581V193.581C208.545 192.975 208.822 192.408 209.277 191.99C209.732 191.573 210.333 191.336 210.96 191.327H234.773C235.075 191.32 235.374 191.375 235.653 191.487C235.932 191.6 236.183 191.768 236.39 191.98C236.597 192.193 236.756 192.445 236.856 192.721C236.957 192.997 236.996 193.29 236.972 193.581V193.581C236.928 194.186 236.652 194.754 236.197 195.172C235.741 195.589 235.141 195.826 234.514 195.835V195.835Z" fill="white"/>
<path d="M190.222 203.696H160.689C160.387 203.702 160.087 203.648 159.808 203.535C159.53 203.423 159.279 203.255 159.071 203.042C158.864 202.83 158.705 202.577 158.605 202.302C158.505 202.026 158.466 201.733 158.49 201.442V201.442C158.531 200.836 158.807 200.267 159.263 199.849C159.718 199.431 160.32 199.195 160.947 199.188H190.473C190.775 199.181 191.075 199.236 191.353 199.348C191.632 199.461 191.883 199.629 192.09 199.841C192.298 200.054 192.457 200.306 192.557 200.582C192.657 200.857 192.696 201.15 192.672 201.442V201.442C192.63 202.047 192.355 202.614 191.901 203.032C191.447 203.45 190.848 203.686 190.222 203.696Z" fill="white"/>
<path d="M222.291 211.598H160.243C159.942 211.605 159.642 211.55 159.363 211.438C159.084 211.325 158.833 211.157 158.626 210.945C158.419 210.732 158.26 210.48 158.16 210.204C158.06 209.929 158.02 209.636 158.045 209.344V209.344C158.086 208.739 158.361 208.172 158.815 207.754C159.269 207.336 159.869 207.1 160.495 207.09H222.543C222.845 207.084 223.144 207.138 223.423 207.251C223.702 207.363 223.953 207.531 224.16 207.744C224.367 207.956 224.526 208.209 224.626 208.484C224.727 208.76 224.766 209.053 224.742 209.344C224.7 209.949 224.425 210.517 223.971 210.935C223.517 211.352 222.917 211.589 222.291 211.598Z" fill="white"/>
<path d="M214.387 144.287H204.413C203.966 144.293 203.538 144.462 203.213 144.759C202.888 145.057 202.691 145.462 202.66 145.894V145.894C202.647 146.101 202.679 146.309 202.752 146.504C202.825 146.699 202.939 146.877 203.087 147.028C203.234 147.178 203.412 147.298 203.61 147.38C203.807 147.461 204.019 147.502 204.234 147.501H214.207C214.655 147.495 215.083 147.326 215.408 147.029C215.733 146.731 215.93 146.326 215.961 145.894C215.973 145.687 215.942 145.479 215.869 145.284C215.795 145.089 215.681 144.911 215.534 144.76C215.386 144.609 215.208 144.49 215.011 144.408C214.814 144.327 214.601 144.286 214.387 144.287V144.287Z" fill="white"/>
<path d="M232.179 144.287H220.617C220.17 144.293 219.741 144.461 219.416 144.759C219.092 145.057 218.894 145.462 218.864 145.894V145.894C218.851 146.101 218.882 146.309 218.956 146.504C219.029 146.699 219.143 146.877 219.291 147.028C219.438 147.178 219.616 147.298 219.813 147.38C220.01 147.461 220.223 147.502 220.437 147.501H231.999C232.446 147.495 232.875 147.326 233.2 147.029C233.524 146.731 233.722 146.326 233.752 145.894C233.766 145.686 233.736 145.478 233.663 145.283C233.59 145.087 233.476 144.909 233.328 144.758C233.18 144.607 233.002 144.487 232.804 144.406C232.606 144.325 232.393 144.285 232.179 144.287V144.287Z" fill="white"/>
<path d="M227.515 138.652H204.737C204.289 138.657 203.859 138.825 203.534 139.123C203.209 139.421 203.012 139.827 202.983 140.259C202.969 140.466 203 140.674 203.072 140.87C203.145 141.065 203.258 141.244 203.405 141.395C203.552 141.546 203.729 141.667 203.926 141.749C204.123 141.831 204.335 141.874 204.55 141.873H227.335C227.783 141.865 228.212 141.695 228.536 141.397C228.861 141.098 229.058 140.692 229.089 140.259V140.259C229.101 140.052 229.07 139.844 228.997 139.649C228.923 139.454 228.809 139.276 228.662 139.125C228.514 138.975 228.336 138.855 228.139 138.774C227.942 138.692 227.729 138.651 227.515 138.652V138.652Z" fill="white"/>
<path d="M101.479 97.3513C99.1296 99.2365 96.7009 101.289 94.4661 103.348C93.3452 104.384 92.253 105.435 91.2398 106.52C90.2575 107.54 89.3567 108.631 88.5452 109.783L88.4087 109.977L88.344 110.089C88.2849 110.177 88.2344 110.27 88.1931 110.367C88.0925 110.583 87.9991 110.854 87.8985 111.139C87.707 111.771 87.5582 112.415 87.453 113.066C87.2288 114.518 87.0849 115.981 87.0218 117.449C86.8709 120.454 86.8709 123.591 86.9284 126.659L83.5656 127.146C82.7233 123.999 82.1465 120.791 81.841 117.553C81.6805 115.872 81.6397 114.182 81.7188 112.496C81.7761 111.585 81.8961 110.678 82.0781 109.783C82.1787 109.278 82.3155 108.78 82.4877 108.294C82.5955 108.023 82.6745 107.772 82.8182 107.487L83.0194 107.07C83.0913 106.944 83.1416 106.868 83.1991 106.757C84.0788 105.217 85.1061 103.762 86.2673 102.409C87.3436 101.11 88.4876 99.8656 89.6949 98.68C92.0598 96.3359 94.5853 94.1489 97.2542 92.1339L101.479 97.3513Z" fill="#B55B52"/>
<path d="M100.222 89.0104C96.5426 91.0974 90.981 96.5235 90.981 96.5235L97.8001 104.447C97.8001 104.447 107.479 98.8261 108.658 95.7304C110.626 90.52 103.7 87.0139 100.222 89.0104Z" fill="#407BFF"/>
<path d="M86.7774 125.483L87.6109 130.193L83.0912 129.56C83.0912 129.56 82.1642 126.36 84.5283 125.261L86.7774 125.483Z" fill="#B55B52"/>
<path d="M85.944 133.059L81.877 131.835L83.0913 129.56L87.6111 130.193L85.944 133.059Z" fill="#B55B52"/>
<path d="M127.577 72.3704C127.577 72.8504 127.85 73.2399 128.181 73.2469C128.511 73.2539 128.763 72.8643 128.756 72.3913C128.749 71.9182 128.483 71.5217 128.152 71.5147C127.822 71.5078 127.57 71.8973 127.577 72.3704Z" fill="#263238"/>
<path d="M128.009 71.5218L129.209 71.2087C129.209 71.2087 128.605 72.1131 128.009 71.5218Z" fill="#263238"/>
<path d="M128.001 72.8435C128.464 73.9456 129.078 74.9822 129.827 75.9252C129.57 76.0949 129.279 76.2089 128.972 76.2593C128.666 76.3097 128.352 76.2954 128.052 76.2174L128.001 72.8435Z" fill="#A02724"/>
<path d="M128.203 69.1913C128.156 69.2049 128.106 69.2049 128.059 69.1913C127.705 69.0662 127.326 69.0231 126.951 69.0654C126.577 69.1077 126.218 69.2342 125.903 69.4348C125.873 69.4578 125.838 69.4747 125.801 69.4844C125.763 69.4941 125.724 69.4964 125.686 69.4912C125.648 69.486 125.611 69.4734 125.578 69.4541C125.545 69.4349 125.516 69.4094 125.494 69.3792C125.447 69.319 125.428 69.2437 125.438 69.1695C125.449 69.0953 125.49 69.0282 125.551 68.9827C125.94 68.7319 126.384 68.5719 126.848 68.5152C127.312 68.4584 127.783 68.5065 128.224 68.6557C128.297 68.6796 128.357 68.73 128.392 68.7963C128.427 68.8626 128.434 68.9394 128.411 69.0105C128.393 69.0544 128.365 69.0936 128.329 69.1251C128.293 69.1565 128.25 69.1792 128.203 69.1913V69.1913Z" fill="#263238"/>
<path d="M112.933 77.4766C113.264 81.0731 112.021 86.9653 109.218 88.9687C109.218 88.9687 111.331 92.7531 118.1 93.6366C125.551 94.6035 122.052 90.5479 122.052 90.5479C118.093 89.087 118.509 86.2 119.515 83.5914L112.933 77.4766Z" fill="#B55B52"/>
<path d="M126.162 93.3443C129.705 94.2765 133.427 95.1739 137.077 95.9739C138.917 96.3565 140.756 96.6696 142.596 97.0522C144.435 97.4348 146.282 97.6782 148.114 97.9078L148.833 97.9982L149.307 98.0469C149.638 98.0469 150.026 98.0469 150.385 98.0469C151.22 97.9906 152.051 97.8814 152.871 97.72C154.65 97.3644 156.409 96.9162 158.138 96.3774C161.681 95.3061 165.274 94.0122 168.787 92.6765L170.383 95.5774C167.071 97.6759 163.594 99.5203 159.985 101.094C158.118 101.911 156.198 102.608 154.236 103.181C153.188 103.482 152.12 103.715 151.039 103.877C150.443 103.955 149.843 104.004 149.242 104.023H148.265L147.547 103.967C143.589 103.702 139.653 103.195 135.762 102.45C131.883 101.751 128.045 100.85 124.265 99.7513L126.162 93.3443Z" fill="#B55B52"/>
<path d="M167.853 93.8522L168.895 90.4365L172.725 91.8278C172.725 91.8278 171.848 96.9617 168.564 95.5426L167.853 93.8522Z" fill="#B55B52"/>
<path d="M171.115 88.1687L175.024 88.593L172.725 91.8278L168.895 90.4365L171.115 88.1687Z" fill="#B55B52"/>
<path d="M101.939 259.953L108.097 260.391L109.929 246.701L103.771 246.263L101.939 259.953Z" fill="#B55B52"/>
<path d="M56.5259 233.414L60.7079 237.908L72.3918 230.089L68.2097 225.602L56.5259 233.414Z" fill="#B55B52"/>
<path d="M63.8051 240.454C63.7311 240.463 63.6562 240.463 63.5823 240.454C62.8637 240.217 62.3248 238.875 62.0877 238.096C62.0798 238.069 62.0802 238.041 62.0889 238.015C62.0975 237.988 62.1141 237.965 62.1364 237.948C62.1588 237.931 62.1859 237.92 62.2143 237.918C62.2427 237.916 62.2712 237.922 62.2961 237.936C62.5188 238.047 64.5021 239.09 64.5667 239.856C64.5738 239.939 64.5582 240.022 64.5217 240.098C64.4851 240.174 64.4288 240.239 64.3584 240.287C64.1988 240.402 64.0037 240.461 63.8051 240.454V240.454ZM62.4757 238.318C62.835 239.348 63.2733 240.023 63.6757 240.148C63.763 240.172 63.8552 240.174 63.9433 240.153C64.0315 240.132 64.1126 240.09 64.1787 240.03C64.2107 240.009 64.2368 239.981 64.2544 239.948C64.2721 239.916 64.2806 239.879 64.2793 239.842C64.2434 239.438 63.259 238.757 62.4757 238.318Z" fill="#407BFF"/>
<path d="M64.0423 238.597C63.3854 238.584 62.7398 238.429 62.1525 238.144C62.1308 238.131 62.113 238.112 62.1005 238.09C62.0879 238.069 62.0811 238.044 62.0806 238.019C62.08 237.994 62.0872 237.969 62.1013 237.948C62.1154 237.927 62.1357 237.911 62.1596 237.901C62.2171 237.866 63.7405 237.052 64.5812 237.33C64.6909 237.364 64.7916 237.421 64.876 237.497C64.9605 237.573 65.0267 237.665 65.0698 237.769C65.1275 237.868 65.1475 237.983 65.1265 238.095C65.1055 238.207 65.0448 238.308 64.9549 238.381C64.6842 238.55 64.3628 238.626 64.0423 238.597V238.597ZM62.5477 238.019C63.2662 238.304 64.4447 238.437 64.768 238.172C64.8183 238.123 64.8758 238.054 64.768 237.88C64.7413 237.813 64.6997 237.753 64.6463 237.704C64.5929 237.655 64.529 237.617 64.459 237.595C63.7921 237.544 63.1251 237.692 62.5477 238.019V238.019Z" fill="#407BFF"/>
<path d="M62.5835 237.247L59.1344 231.32C59.0776 231.218 58.9845 231.139 58.8721 231.098C58.7598 231.057 58.636 231.057 58.5236 231.097L53.429 232.99C53.2987 233.045 53.1823 233.128 53.0875 233.231C52.9928 233.334 52.922 233.455 52.8798 233.587C52.8375 233.719 52.825 233.858 52.8429 233.995C52.8607 234.132 52.9087 234.263 52.9835 234.381C54.2266 236.426 54.9236 237.351 56.4398 239.946C57.3739 241.546 58.811 245.045 59.9176 247.348C61.0242 249.65 63.3667 248.739 63.1152 247.696C62.2702 244.635 62.1523 241.429 62.7703 238.318C62.8396 237.951 62.7735 237.572 62.5835 237.247V237.247Z" fill="#263238"/>
<path d="M110.777 260.586C110.126 260.573 109.476 260.504 108.837 260.377C108.808 260.371 108.782 260.356 108.761 260.335C108.741 260.314 108.727 260.288 108.722 260.259C108.718 260.23 108.723 260.2 108.737 260.174C108.751 260.147 108.774 260.126 108.801 260.113C109.082 259.974 111.582 258.722 112.322 259.16C112.392 259.197 112.451 259.252 112.492 259.317C112.534 259.383 112.557 259.458 112.559 259.536C112.573 259.665 112.554 259.797 112.504 259.918C112.454 260.039 112.374 260.146 112.272 260.231C111.829 260.508 111.303 260.633 110.777 260.586V260.586ZM109.34 260.176C110.698 260.391 111.712 260.336 112.1 260.009C112.165 259.953 112.215 259.882 112.246 259.804C112.277 259.725 112.289 259.64 112.279 259.556C112.28 259.526 112.273 259.496 112.257 259.469C112.242 259.442 112.22 259.419 112.193 259.403C111.769 259.188 110.353 259.703 109.326 260.176H109.34Z" fill="#407BFF"/>
<path d="M108.866 260.377C108.838 260.386 108.808 260.386 108.78 260.377C108.759 260.364 108.742 260.345 108.732 260.323C108.722 260.301 108.718 260.276 108.722 260.252C108.722 260.141 109.017 257.706 110.397 257.706H110.519C110.914 257.741 111.029 257.936 111.058 258.096C111.173 258.791 109.678 260.064 108.902 260.384C108.89 260.384 108.878 260.382 108.866 260.377V260.377ZM110.404 257.956C109.513 257.956 109.161 259.348 109.053 259.981C109.822 259.536 110.835 258.527 110.77 258.116C110.77 258.116 110.77 257.991 110.49 257.963L110.404 257.956Z" fill="#407BFF"/>
<path d="M108.485 259.543H101.558C101.438 259.543 101.321 259.584 101.229 259.659C101.137 259.734 101.076 259.838 101.055 259.953L100.128 265.254C100.11 265.387 100.121 265.522 100.161 265.65C100.201 265.778 100.269 265.897 100.36 265.998C100.451 266.099 100.564 266.179 100.69 266.235C100.816 266.29 100.953 266.318 101.091 266.318C103.506 266.277 104.684 266.137 107.716 266.137C109.585 266.137 113.465 266.325 116.044 266.325C118.624 266.325 118.832 263.856 117.762 263.626C112.962 262.624 111.094 261.233 109.506 259.911C109.221 259.676 108.86 259.545 108.485 259.543V259.543Z" fill="#263238"/>
<path opacity="0.2" d="M109.929 246.708L108.909 254.318L102.823 253.33L103.764 246.263L109.929 246.708Z" fill="black"/>
<path opacity="0.2" d="M68.2028 225.602L72.3848 230.096L67.5561 233.324L63.2231 228.934L68.2028 225.602Z" fill="black"/>
<path d="M98.8351 124.899L123.755 128.141C133.42 94.2696 130.567 93.3583 130.567 93.3583C128.699 92.5117 126.779 91.7775 124.818 91.1601L124.481 91.0557C122.871 90.5827 122.533 90.5201 120.385 90.047C116.699 89.414 113.278 88.927 109.053 88.5792C108.787 88.5792 108.514 88.5305 108.248 88.5166C107.487 88.4679 106.732 88.4331 105.999 88.4053C105.511 88.4053 105.015 88.4053 104.562 88.4053H102.133C101.653 88.4158 101.18 88.5232 100.744 88.7207C100.309 88.9182 99.921 89.2015 99.6052 89.5524C99.2894 89.9033 99.0527 90.3142 98.9102 90.7587C98.7677 91.2032 98.7226 91.6716 98.7777 92.134C100.912 109.922 100.236 115.786 98.8351 124.899Z" fill="#407BFF"/>
<path opacity="0.2" d="M124.473 101.017C124.646 102.59 128.397 105.463 129.697 104.69C130.071 102.805 130.344 101.212 130.538 99.9322C128.655 99.7931 124.969 97.7827 124.473 101.017Z" fill="black"/>
<path d="M120.428 93.087C120.248 87.5218 134.181 93.6505 137.379 95.0348L133.815 104.364C133.815 104.364 129.151 104.21 126.184 102.548C124.496 101.55 123.087 100.165 122.083 98.5144C121.08 96.8644 120.511 95.0003 120.428 93.087V93.087Z" fill="#407BFF"/>
<path d="M110.821 70.8262C111.28 76.7114 111.345 79.2088 114.492 82.2696C119.213 86.8679 126.651 85.2401 128.03 79.3896C129.273 74.1235 128.31 65.3862 122.282 62.9653C120.987 62.4041 119.564 62.1794 118.153 62.3133C116.742 62.4471 115.391 62.935 114.233 63.7286C113.076 64.5223 112.153 65.5944 111.554 66.8391C110.956 68.0837 110.703 69.458 110.821 70.8262V70.8262Z" fill="#B55B52"/>
<path d="M111.352 64.6139C105.245 63.1322 105.051 68.0922 105.18 70.7078C105.309 73.3235 100.818 74.5757 100.818 77.8522C100.818 82.1235 104.145 84.6696 96.0542 85.9635C89.2063 87.0557 87.0937 95.3409 97.2254 100.19C108.442 105.546 125.364 98.0052 123.309 90.8331C120.162 79.7652 125.817 79.8 125.192 73.6087C124.725 69.1148 129.122 68.8922 127.542 65.1426C125.458 60.2383 110.821 55.9322 111.352 64.6139Z" fill="#263238"/>
<path d="M104.282 72.9131C103.441 68.6279 103.901 65.7896 105.647 64.4609C107.896 62.7427 111.352 64.2314 111.496 64.294L111.201 64.927C111.201 64.927 107.989 63.5357 106.085 65.0035C104.569 66.1653 104.203 68.7809 104.986 72.7809L104.282 72.9131Z" fill="#263238"/>
<path d="M97.3765 84.7391C95.7995 84.691 94.2423 84.3852 92.7705 83.8347L93.0364 83.1878C93.0867 83.1878 97.9298 85.0521 100.172 83.2504C101.264 82.3739 101.573 80.7321 101.099 78.3808L101.817 78.2487C102.349 80.8852 101.954 82.7565 100.646 83.8139C99.7004 84.481 98.5443 84.8082 97.3765 84.7391V84.7391Z" fill="#263238"/>
<path d="M123.532 73.1983C123.474 74.2961 123.768 75.3846 124.373 76.3148C125.206 77.6296 126.335 77.3861 126.701 76.273C127.067 75.16 127.003 73.3722 125.875 72.4191C124.746 71.4661 123.647 71.9809 123.532 73.1983Z" fill="#B55B52"/>
<path d="M117.194 127.285C117.194 127.285 107.508 166.937 102.981 189.678C98.2098 213.699 69.9271 233.296 69.9271 233.296L63.7188 227.111C63.7188 227.111 81.9271 211.682 86.605 189.254C96.0972 143.73 89.6732 134.562 98.8206 124.899L117.194 127.285Z" fill="#263238"/>
<path d="M70.4589 234.186L62.7056 226.464L64.8828 224.197L73.8864 231.87L70.4589 234.186Z" fill="#407BFF"/>
<path opacity="0.2" d="M112.049 135.897C104.519 142.228 105.331 164.691 106.121 174.812C109.276 160.419 113.077 144.391 115.304 135.118C114.507 134.548 113.429 134.736 112.049 135.897Z" fill="black"/>
<path d="M123.41 128.162C123.41 128.162 127.765 175.209 125.386 193.157C122.914 211.821 110.296 252.433 110.296 252.433L101.479 251.327C101.479 251.327 108.665 211.077 109.98 192.6C111.374 172.426 105.173 125.817 105.173 125.817L123.41 128.162Z" fill="#263238"/>
<path d="M112.222 252.927L99.5605 251.341L99.7546 247.724L113.493 249.01L112.222 252.927Z" fill="#407BFF"/>
<path d="M98.6052 123.445L97.2399 125.442C97.1393 125.602 97.3261 125.796 97.6136 125.831L123.755 129.261C123.978 129.261 124.179 129.205 124.208 129.073L124.667 126.986C124.703 126.84 124.517 126.687 124.272 126.652L99.0148 123.376C98.946 123.353 98.8723 123.347 98.8007 123.359C98.7291 123.372 98.6618 123.401 98.6052 123.445V123.445Z" fill="#407BFF"/>
<path opacity="0.3" d="M98.6052 123.445L97.2399 125.442C97.1393 125.602 97.3261 125.796 97.6136 125.831L123.755 129.261C123.978 129.261 124.179 129.205 124.208 129.073L124.667 126.986C124.703 126.84 124.517 126.687 124.272 126.652L99.0148 123.376C98.946 123.353 98.8723 123.347 98.8007 123.359C98.7291 123.372 98.6618 123.401 98.6052 123.445V123.445Z" fill="black"/>
<path d="M101.709 126.597L101.034 126.513C100.897 126.513 100.804 126.416 100.825 126.332L101.443 123.584C101.443 123.508 101.587 123.459 101.724 123.473L102.399 123.564C102.536 123.564 102.629 123.661 102.615 123.737L101.989 126.485C101.975 126.569 101.846 126.617 101.709 126.597Z" fill="#263238"/>
<path d="M118.797 128.857L118.121 128.767C117.985 128.767 117.891 128.67 117.906 128.593L118.531 125.845C118.531 125.769 118.675 125.713 118.811 125.734L119.487 125.817C119.623 125.817 119.717 125.915 119.695 125.998L119.077 128.746C119.055 128.823 118.933 128.878 118.797 128.857Z" fill="#263238"/>
</g>
<defs>
<clipPath id="clip0_155_72990">
<rect width="240" height="240" fill="white" transform="translate(21 27)"/>
</clipPath>
</defs>
</svg>
