<svg width="281" height="291" viewBox="0 0 281 291" fill="none" xmlns="http://www.w3.org/2000/svg">
<g clip-path="url(#clip0_157_82011)">
<path d="M205.237 256.651L211.069 255.022L208.849 241.081L203.017 242.71L205.237 256.651Z" fill="#A38F78"/>
<path d="M157.874 265.546H163.929L165.231 251.521H159.176L157.874 265.546Z" fill="#A38F78"/>
<path d="M164.312 264.843H156.935C156.814 264.842 156.696 264.883 156.602 264.959C156.508 265.035 156.444 265.142 156.42 265.26L155.222 270.64C155.194 270.771 155.196 270.907 155.227 271.038C155.259 271.168 155.319 271.289 155.404 271.393C155.489 271.497 155.596 271.58 155.718 271.636C155.84 271.693 155.972 271.721 156.106 271.719C158.48 271.677 160.213 271.538 163.206 271.538C165.05 271.538 170.597 271.726 173.138 271.726C175.678 271.726 176.012 269.214 174.975 268.991C170.305 267.968 166.79 266.562 165.301 265.219C165.028 264.976 164.677 264.842 164.312 264.843Z" fill="#263238"/>
<path d="M210.84 254.354L204.464 256.136C204.349 256.168 204.248 256.238 204.178 256.336C204.108 256.433 204.074 256.552 204.082 256.672L204.374 262.177C204.381 262.311 204.418 262.441 204.483 262.558C204.548 262.675 204.638 262.775 204.747 262.852C204.856 262.93 204.981 262.981 205.113 263.002C205.245 263.024 205.38 263.016 205.508 262.978C207.791 262.282 211.076 261.238 213.965 260.43C217.34 259.491 218.781 259.177 222.741 258.078C225.136 257.382 225.129 254.8 224.064 254.862C219.192 255.134 216.992 255.746 212.371 254.417C211.876 254.253 211.346 254.231 210.84 254.354V254.354Z" fill="#263238"/>
<path d="M176.464 72.4266C176.395 72.4266 176.506 72.4266 176.548 72.4266L176.743 72.4614L177.188 72.5379C177.494 72.5866 177.822 72.6493 178.149 72.6841C178.81 72.7676 179.499 72.8163 180.195 72.8442C181.604 72.8925 183.014 72.8646 184.42 72.7606C185.116 72.6771 185.853 72.6284 186.563 72.5031C187.273 72.3778 187.997 72.2874 188.714 72.1482C189.431 72.009 190.106 71.821 190.858 71.6749C191.609 71.5287 192.25 71.2851 192.994 71.0972L190.976 76.352C190.404 75.1126 189.734 73.921 188.972 72.7885C188.172 71.606 187.3 70.474 186.362 69.399C185.415 68.2993 184.385 67.2344 183.313 66.2043C182.777 65.6962 182.234 65.1742 181.67 64.687C181.107 64.1998 180.501 63.6987 179.993 63.295L179.861 63.1837C179.528 62.855 179.314 62.4238 179.255 61.9593C179.197 61.4948 179.296 61.0241 179.536 60.6226C179.777 60.2212 180.146 59.9123 180.584 59.7457C181.021 59.579 181.502 59.5642 181.949 59.7037C182.754 60.0218 183.541 60.3819 184.308 60.7825C185.053 61.1722 185.798 61.569 186.522 62.0074C187.981 62.8864 189.377 63.868 190.698 64.9446C192.046 66.0451 193.303 67.2531 194.456 68.5568C195.637 69.8903 196.686 71.3355 197.588 72.872C197.827 73.2818 197.982 73.7346 198.046 74.2046C198.109 74.6745 198.079 75.1524 197.958 75.6108C197.836 76.0692 197.625 76.4991 197.337 76.8759C197.049 77.2527 196.69 77.569 196.28 77.8066C196.118 77.9032 195.948 77.9847 195.771 78.0502L195.549 78.1407C194.727 78.447 193.913 78.781 193.085 79.0734C192.257 79.3657 191.414 79.6371 190.551 79.8529C188.832 80.3338 187.08 80.6943 185.311 80.9317C183.508 81.1623 181.691 81.253 179.875 81.2031C178.956 81.1683 178.03 81.0918 177.091 80.9734C176.618 80.9108 176.144 80.8412 175.657 80.7438L174.919 80.5837L174.523 80.4862L174.021 80.3401C173.442 80.2332 172.891 80.0048 172.406 79.67C171.921 79.3351 171.513 78.9014 171.207 78.3973C170.902 77.8933 170.707 77.3302 170.634 76.7453C170.562 76.1604 170.614 75.5667 170.788 75.0035C170.962 74.4402 171.252 73.9201 171.641 73.4773C172.03 73.0345 172.509 72.6791 173.045 72.4343C173.581 72.1896 174.163 72.0612 174.752 72.0574C175.342 72.0537 175.925 72.1747 176.464 72.4126V72.4266Z" fill="#263238"/>
<path opacity="0.2" d="M208.849 241.081L209.991 248.271L204.158 249.9L203.01 242.71L208.849 241.081Z" fill="black"/>
<path opacity="0.2" d="M159.176 251.528H165.231L164.556 258.753H158.501L159.176 251.528Z" fill="black"/>
<path d="M183.403 77.7023C186.139 85.2956 187.28 98.4431 188.86 123.847L156.802 128.489C155.988 124.202 155.591 104.881 150.037 85.0242C149.702 83.8487 149.613 82.6165 149.775 81.4049C149.938 80.1934 150.349 79.0284 150.983 77.9831C151.617 76.9377 152.459 76.0344 153.458 75.3298C154.457 74.6252 155.591 74.1344 156.788 73.8882C162.74 72.7324 168.776 72.0621 174.836 71.8837C176.695 71.8281 178.523 72.3606 180.062 73.4054C181.6 74.4502 182.77 75.9539 183.403 77.7023V77.7023Z" fill="#FCCC4E"/>
<path d="M183.814 59.8151L182.165 56.1263L176.75 58.8685C176.889 59.8594 177.276 60.7989 177.876 61.5996C178.476 62.4004 179.269 63.0363 180.181 63.4482C180.558 63.6006 180.969 63.6531 181.372 63.6007C181.776 63.5483 182.159 63.3927 182.485 63.1489L183.035 62.7452C183.48 62.4193 183.8 61.9508 183.942 61.4177C184.083 60.8846 184.038 60.3191 183.814 59.8151Z" fill="#A38F78"/>
<path d="M180.724 52.1591L176.144 54.8317L176.75 58.8685L182.172 56.1263L180.724 52.1591Z" fill="#A38F78"/>
<path d="M157.484 58.952C158.8 62.7104 160.526 69.3085 159.106 73.1226C158.941 73.5667 158.931 74.0539 159.079 74.5043C159.227 74.9546 159.524 75.3411 159.92 75.6003C162.785 77.6674 166.313 78.602 169.825 78.2243C174.328 77.7371 174.293 75.2871 173.145 73.5402C172.992 73.3082 172.794 73.11 172.561 72.9579C172.329 72.8059 172.068 72.7032 171.794 72.6563C167.368 71.9046 166.539 68.2367 166.881 64.8819L157.484 58.952Z" fill="#A38F78"/>
<path opacity="0.2" d="M161.312 61.388L166.88 64.868C166.811 65.6901 166.811 66.5167 166.88 67.3388C164.973 67.3388 162.343 66.1138 161.312 64.172C160.658 62.9888 160.853 61.6038 161.312 61.388Z" fill="black"/>
<path d="M166.616 53.0708C162.343 50.5235 159.997 45.2548 160.352 44.0855C160.707 42.9162 167.423 40.856 168.342 41.3432C172.929 43.654 170.047 49.9945 170.047 49.9945L171.641 52.0825L166.616 53.0708Z" fill="#263238"/>
<path d="M154.923 52.862C156.545 58.6528 157.206 62.1188 160.818 64.4852C166.247 68.0557 172.908 63.7892 173.04 57.6505C173.158 52.0825 170.479 43.5774 164.236 42.4847C162.861 42.2365 161.445 42.3443 160.123 42.7977C158.801 43.2511 157.617 44.0351 156.684 45.0751C155.751 46.1151 155.099 47.3766 154.791 48.7396C154.483 50.1025 154.528 51.5217 154.923 52.862V52.862Z" fill="#A38F78"/>
<path d="M154.603 57.0032C150.601 54.0522 147.476 49.3472 147.998 48.2545C149.39 45.3592 154.332 43.2364 157.484 44.7745C162.113 46.9948 158.334 54.3097 158.334 54.3097L159.726 56.5648L154.603 57.0032Z" fill="#263238"/>
<path d="M156.072 46.8973C161.563 47.3706 169.511 42.5334 170.152 38.3991C168.168 37.2647 164.98 38.6775 164.98 38.6775C164.98 38.6775 166.157 35.8935 165.676 34.4389C163.505 34.5294 159.03 37.0141 158.396 38.1486C158.444 37.457 158.299 36.7658 157.979 36.1511C156.113 36.1511 143.564 42.7561 150.107 47.2871C155.153 48.1849 156.072 46.8973 156.072 46.8973Z" fill="#263238"/>
<path d="M153.239 58.952C154.298 60.0276 155.738 60.6427 157.248 60.6642C159.252 60.6642 159.726 58.7502 158.723 57.1355C157.826 55.6878 155.696 53.9339 153.9 54.6995C152.104 55.4651 151.951 57.6088 153.239 58.952Z" fill="#A38F78"/>
<path d="M212.134 246.099L202.258 248.849C202.258 248.849 192.514 214.049 189.326 195.445C188.366 189.786 186.271 181.963 183.758 173.611C180.536 163.088 176.694 151.743 173.576 142.862C170.277 133.508 167.799 126.902 167.799 126.902L188.888 123.854C188.888 123.854 198.729 165.273 202.112 183.439C205.655 202.328 212.134 246.099 212.134 246.099Z" fill="#263238"/>
<path opacity="0.2" d="M183.744 173.611C180.536 163.088 176.694 151.743 173.576 142.862L175.427 137.99C181.128 143.815 184.016 163.039 183.744 173.611Z" fill="black"/>
<path d="M178.803 125.309C178.803 125.309 176.826 177.801 175.58 195.5C174.188 214.877 167.472 256.567 167.472 256.567H156.385C156.385 256.567 158.264 217.981 160.345 199.154C162.718 177.704 156.809 128.496 156.809 128.496L178.803 125.309Z" fill="#263238"/>
<path d="M168.363 257.423H155.306V253.519L169.908 253.268L168.363 257.423Z" fill="#FCCC4E"/>
<path d="M212.921 246.204L201.151 249.489L200.094 245.689L212.531 242.014L212.921 246.204Z" fill="#FCCC4E"/>
<path d="M164.465 52.5767C164.57 53.0569 164.904 53.391 165.217 53.3214C165.53 53.2518 165.697 52.8133 165.593 52.3331C165.489 51.8528 165.154 51.5257 164.841 51.5953C164.528 51.6649 164.361 52.1034 164.465 52.5767Z" fill="#263238"/>
<path d="M167.799 58.952C167.897 59.4322 168.238 59.7663 168.551 59.6967C168.864 59.6271 169.031 59.1886 168.927 58.7084C168.822 58.2282 168.488 57.901 168.175 57.9706C167.862 58.0402 167.695 58.4996 167.799 58.952Z" fill="#263238"/>
<path d="M169.859 51.4143C169.964 51.8876 170.298 52.2217 170.611 52.1521C170.924 52.0825 171.091 51.644 170.987 51.1707C170.882 50.6975 170.548 50.3564 170.235 50.426C169.922 50.4956 169.755 50.9341 169.859 51.4143Z" fill="#263238"/>
<path d="M167.897 52.0269C168.782 53.3617 169.848 54.5679 171.063 55.6113C170.367 56.5857 168.871 56.5369 168.871 56.5369L167.897 52.0269Z" fill="#FA7A35"/>
<path d="M162.127 50.7392C162.079 50.7492 162.029 50.7492 161.981 50.7392C161.913 50.7048 161.862 50.6462 161.836 50.5752C161.81 50.5042 161.812 50.426 161.841 50.3564C162.026 49.9406 162.306 49.5743 162.66 49.2876C163.013 49.0009 163.429 48.8019 163.874 48.7069C163.911 48.7014 163.949 48.7034 163.986 48.7126C164.023 48.7219 164.057 48.7383 164.088 48.7609C164.118 48.7836 164.144 48.812 164.163 48.8445C164.183 48.877 164.195 48.913 164.201 48.9505C164.206 48.988 164.204 49.0262 164.195 49.0629C164.186 49.0996 164.169 49.1341 164.147 49.1645C164.124 49.1949 164.096 49.2205 164.063 49.2399C164.031 49.2593 163.995 49.2721 163.957 49.2776V49.2776C163.606 49.3563 163.278 49.5171 163.001 49.747C162.724 49.9769 162.506 50.2692 162.363 50.6C162.339 50.6412 162.304 50.6756 162.263 50.7C162.222 50.7243 162.175 50.7378 162.127 50.7392V50.7392Z" fill="#263238"/>
<path d="M171.488 48.7835C171.44 48.7881 171.392 48.7803 171.348 48.7608C171.304 48.7413 171.266 48.7107 171.237 48.6721C171.025 48.3848 170.748 48.1513 170.429 47.9905C170.11 47.8298 169.757 47.7462 169.4 47.7464C169.324 47.7529 169.249 47.729 169.191 47.6801C169.133 47.6311 169.097 47.5611 169.09 47.4854C169.084 47.4098 169.108 47.3346 169.157 47.2765C169.206 47.2184 169.276 47.1822 169.351 47.1757C169.808 47.165 170.26 47.2636 170.67 47.4634C171.081 47.6632 171.438 47.9583 171.711 48.3241C171.734 48.3531 171.751 48.3866 171.762 48.4224C171.772 48.4583 171.775 48.4958 171.77 48.5328C171.766 48.5698 171.754 48.6055 171.735 48.6378C171.717 48.6701 171.692 48.6983 171.662 48.7208C171.613 48.7614 171.552 48.7836 171.488 48.7835V48.7835Z" fill="#263238"/>
<path d="M150.511 47.5585C150.433 47.5912 150.349 47.6046 150.265 47.5973C150.182 47.59 150.101 47.5623 150.03 47.5167C149.511 47.1484 148.911 46.9089 148.28 46.8182C147.65 46.7274 147.007 46.7879 146.404 46.9947C146.342 47.0268 146.273 47.0454 146.203 47.0493C146.133 47.0532 146.063 47.0423 145.997 47.0174C145.932 46.9924 145.872 46.954 145.822 46.9045C145.772 46.8551 145.734 46.7957 145.708 46.7303C145.677 46.6676 145.659 46.5993 145.656 46.5295C145.653 46.4597 145.664 46.3899 145.689 46.3246C145.713 46.2593 145.751 46.1998 145.8 46.1498C145.849 46.0999 145.908 46.0605 145.973 46.0343C146.73 45.7627 147.542 45.6759 148.339 45.7813C149.137 45.8866 149.898 46.1809 150.559 46.6398C150.614 46.6763 150.661 46.7232 150.698 46.778C150.735 46.8328 150.76 46.8942 150.773 46.9589C150.786 47.0235 150.786 47.0901 150.773 47.1548C150.761 47.2195 150.735 47.281 150.698 47.3358C150.66 47.4275 150.594 47.5052 150.511 47.5585Z" fill="#263238"/>
<path d="M166.317 265.901C165.783 265.89 165.253 265.817 164.737 265.685C164.708 265.679 164.682 265.665 164.662 265.644C164.642 265.622 164.629 265.595 164.625 265.567C164.621 265.54 164.625 265.512 164.636 265.488C164.647 265.463 164.665 265.442 164.688 265.427C164.911 265.288 166.866 264.084 167.535 264.432C167.609 264.47 167.671 264.528 167.714 264.599C167.757 264.67 167.779 264.752 167.778 264.836C167.796 264.977 167.778 265.119 167.727 265.252C167.676 265.384 167.593 265.502 167.486 265.594C167.141 265.824 166.73 265.932 166.317 265.901ZM165.147 265.483C166.177 265.692 166.971 265.65 167.298 265.372C167.371 265.309 167.427 265.229 167.461 265.139C167.495 265.049 167.506 264.952 167.493 264.857C167.493 264.745 167.444 264.704 167.402 264.683C167.054 264.509 165.92 265.024 165.147 265.483V265.483Z" fill="#FCCC4E"/>
<path d="M164.765 265.664C164.739 265.67 164.713 265.67 164.688 265.664C164.666 265.65 164.649 265.63 164.638 265.607C164.627 265.583 164.623 265.557 164.625 265.532C164.625 265.462 164.772 263.715 165.481 263.138C165.564 263.067 165.661 263.014 165.765 262.983C165.869 262.952 165.979 262.943 166.087 262.957V262.957C166.196 262.955 166.301 262.992 166.385 263.06C166.47 263.129 166.527 263.226 166.546 263.332C166.672 264.028 165.461 265.33 164.834 265.671C164.811 265.676 164.787 265.673 164.765 265.664V265.664ZM165.99 263.207C165.869 263.208 165.752 263.252 165.662 263.332C165.245 263.881 165.002 264.544 164.966 265.233C165.586 264.759 166.358 263.757 166.282 263.353C166.282 263.319 166.282 263.235 166.073 263.207H166.01H165.99Z" fill="#FCCC4E"/>
<path d="M211.633 255.001C211.608 255 211.583 254.992 211.562 254.977C211.541 254.962 211.524 254.942 211.515 254.918C211.501 254.89 211.497 254.859 211.504 254.828C211.51 254.798 211.526 254.771 211.55 254.751C211.772 254.542 213.784 252.698 214.605 252.899C214.682 252.915 214.753 252.951 214.81 253.004C214.868 253.057 214.91 253.124 214.932 253.199C214.982 253.319 215.002 253.45 214.99 253.58C214.978 253.709 214.934 253.834 214.863 253.943C214.382 254.688 212.649 254.925 211.654 255.001H211.633ZM214.48 253.164C214 253.164 212.865 253.978 212.058 254.674C213.408 254.528 214.355 254.208 214.626 253.79C214.671 253.717 214.698 253.634 214.705 253.548C214.712 253.462 214.7 253.376 214.668 253.296C214.659 253.266 214.642 253.239 214.619 253.218C214.595 253.197 214.567 253.183 214.536 253.178L214.48 253.164Z" fill="#FCCC4E"/>
<path d="M211.633 255.001H211.598C211.575 254.991 211.554 254.976 211.537 254.956C211.52 254.937 211.508 254.915 211.501 254.89C211.501 254.82 211.209 253.206 211.779 252.391C211.858 252.272 211.96 252.17 212.08 252.092C212.2 252.015 212.334 251.962 212.475 251.939V251.939C212.865 251.876 213.025 252.036 213.095 252.182C213.387 252.816 212.343 254.465 211.703 254.966C211.683 254.984 211.659 254.996 211.633 255.001V255.001ZM212.677 252.217C212.629 252.212 212.58 252.212 212.531 252.217V252.217C212.427 252.234 212.327 252.272 212.238 252.329C212.149 252.387 212.074 252.463 212.016 252.551C211.721 253.178 211.629 253.881 211.752 254.563C212.343 253.929 213.018 252.677 212.844 252.294C212.828 252.264 212.804 252.24 212.774 252.224C212.745 252.208 212.711 252.201 212.677 252.203V252.217Z" fill="#FCCC4E"/>
<path d="M172.678 71.313L170.792 65.4805L176.736 64.2208C176.736 64.2208 178.03 67.6312 176.381 70.3177L172.678 71.313Z" fill="#A38F78"/>
<path d="M170.423 61.6594L175.643 60.7198L176.708 64.2207L170.764 65.4805L170.423 61.6594Z" fill="#A38F78"/>
<path d="M158.187 79.136L158.542 79.4492L158.981 79.8251C159.287 80.0826 159.593 80.3401 159.914 80.5906C160.547 81.0848 161.208 81.565 161.89 81.9826C163.223 82.8923 164.618 83.7063 166.066 84.4186C167.49 85.108 168.971 85.6716 170.493 86.103C171.984 86.5161 173.514 86.7727 175.058 86.8686L171.488 89.576C171.933 88.1886 172.218 86.7548 172.337 85.3026C172.497 83.7226 172.588 82.0662 172.602 80.3888C172.616 78.7114 172.602 77.0132 172.553 75.3011C172.504 73.5889 172.428 71.821 172.351 70.1715V70.088C172.377 69.6166 172.562 69.1679 172.876 68.8152C173.19 68.4624 173.614 68.2264 174.079 68.1456C174.544 68.0649 175.023 68.1442 175.437 68.3705C175.851 68.5969 176.177 68.9569 176.36 69.392C176.952 71.1529 177.383 72.872 177.815 74.6398C178.246 76.4077 178.552 78.1894 178.81 80.013C179.071 81.8583 179.222 83.7176 179.262 85.581C179.327 87.6379 179.123 89.6945 178.657 91.6988C178.468 92.4461 178.042 93.1117 177.442 93.5951C176.841 94.0785 176.1 94.3535 175.33 94.3784H175.065C172.921 94.455 170.776 94.2703 168.676 93.8286C166.609 93.4071 164.593 92.7655 162.663 91.9146C160.763 91.0953 158.941 90.1052 157.22 88.9566C156.364 88.3789 155.536 87.7734 154.721 87.1331C154.318 86.8129 153.914 86.4858 153.517 86.1378L152.926 85.5949C152.717 85.393 152.557 85.2469 152.271 84.9615C151.626 84.1757 151.29 83.1815 151.325 82.1652C151.361 81.149 151.766 80.1807 152.464 79.4419C153.163 78.7031 154.107 78.2446 155.12 78.1524C156.133 78.0602 157.144 78.3406 157.965 78.9411L158.187 79.136Z" fill="#263238"/>
<path d="M112.217 69.7678C109.509 71.8558 109.321 75.9901 109.384 78.447C109.447 80.9038 109.579 78.447 108.096 82.797C106.614 87.147 107.769 92.0259 114.172 90.7662C120.576 89.5064 123.875 90.9541 128.162 91.9563C132.449 92.9586 141.135 88.0587 138.303 83.0962C135.47 78.1338 134.217 74.9252 135.665 73.1017C137.112 71.2782 140.064 64.861 134.844 63.5456C129.624 62.2302 132.115 59.7106 125.907 59.648C119.699 59.5854 107.748 63.295 112.217 69.7678Z" fill="#263238"/>
<path d="M144.01 106.725V107.129V107.623C144.01 107.95 144.01 108.319 144.059 108.626C144.1 109.322 144.177 109.983 144.267 110.651C144.436 111.98 144.704 113.294 145.068 114.583C145.405 115.823 145.872 117.025 146.46 118.168C146.606 118.439 146.752 118.718 146.919 118.975C146.996 119.107 147.072 119.246 147.163 119.372L147.295 119.56L147.358 119.657C147.358 119.657 147.434 119.768 147.358 119.657C147.01 119.291 146.554 119.047 146.056 118.961C145.749 118.897 145.431 118.897 145.124 118.961C144.946 118.999 144.775 119.062 144.615 119.149C144.407 119.274 144.4 119.316 144.414 119.309L144.553 119.184C144.934 118.754 145.272 118.288 145.562 117.792C145.91 117.221 146.258 116.588 146.585 115.954C147.281 114.674 147.887 113.317 148.513 111.959C149.752 109.231 150.97 106.391 152.167 103.642L155.424 104.61C154.848 107.684 154.107 110.725 153.204 113.72C152.759 115.231 152.244 116.727 151.666 118.244C151.374 119.003 151.046 119.755 150.671 120.534C150.268 121.401 149.781 122.227 149.216 122.998C149.023 123.246 148.811 123.479 148.583 123.694C148.252 124.027 147.874 124.311 147.462 124.536C147.135 124.713 146.787 124.846 146.425 124.933C146.196 124.981 145.963 125.011 145.729 125.023C145.463 125.029 145.198 125.01 144.936 124.968C144.057 124.802 143.261 124.34 142.681 123.659L142.172 123.054C142.019 122.88 141.887 122.699 141.748 122.511C141.463 122.149 141.212 121.773 140.961 121.397C140.005 119.892 139.227 118.28 138.644 116.595C138.079 114.961 137.667 113.279 137.412 111.57C137.287 110.72 137.203 109.871 137.147 109.022C137.147 108.591 137.099 108.166 137.092 107.728V107.066V106.329L144.01 106.725Z" fill="#FEEBD0"/>
<path d="M140.328 98.9094C146.439 103.593 145.2 110.867 145.2 110.867L136.507 114.5C136.507 114.5 131.886 106.148 133.25 102.911C134.683 99.5218 136.883 96.2715 140.328 98.9094Z" fill="#263238"/>
<path opacity="0.2" d="M139.716 113.17L136.514 114.507C136.514 114.507 133.57 109.161 133.076 105.368C133.772 104.477 135.115 104.018 136.667 105.368C137.85 106.517 139.235 109.927 139.716 113.17Z" fill="black"/>
<path d="M145.806 110.999C145.869 111.202 145.85 111.422 145.752 111.611C145.654 111.8 145.486 111.943 145.284 112.008L137.029 114.674C136.825 114.737 136.604 114.718 136.414 114.621C136.224 114.523 136.08 114.355 136.013 114.152C135.949 113.949 135.969 113.729 136.066 113.54C136.164 113.351 136.332 113.208 136.535 113.143L144.789 110.456C144.892 110.425 144.999 110.414 145.106 110.425C145.212 110.435 145.316 110.466 145.41 110.517C145.504 110.567 145.588 110.636 145.656 110.718C145.724 110.801 145.775 110.896 145.806 110.999V110.999Z" fill="#FA7A35"/>
<path d="M151.701 105.278L152.919 100.406L158.173 102.87C158.173 102.87 157.561 107.185 153.997 108.138L151.701 105.278Z" fill="#FEEBD0"/>
<path d="M154.617 97.1485L158.515 98.2134L158.173 102.856L152.919 100.392L154.617 97.1485Z" fill="#FEEBD0"/>
<path d="M109.781 265.379L116.086 265.977L118.745 251.34L112.439 250.735L109.781 265.379Z" fill="#FEEBD0"/>
<path d="M71.9113 248.689L77.4097 251.841L84.5785 238.868L79.087 235.715L71.9113 248.689Z" fill="#FEEBD0"/>
<path d="M78.4119 250.108L73.5886 244.826C73.5485 244.774 73.4987 244.732 73.4419 244.7C73.3852 244.668 73.3227 244.647 73.258 244.639C73.1933 244.632 73.1277 244.637 73.065 244.654C73.0023 244.672 72.9437 244.702 72.8926 244.742L68.1598 247.958C68.044 248.043 67.9474 248.152 67.8764 248.277C67.8054 248.402 67.7615 248.541 67.7478 248.684C67.734 248.827 67.7505 248.971 67.7963 249.108C67.8422 249.244 67.9162 249.369 68.0137 249.475C69.7258 251.285 70.6445 252.078 72.7673 254.403C74.0689 255.83 76.7485 259.184 78.5511 261.161C80.3537 263.138 82.4 261.46 81.8293 260.465C79.2541 256.059 78.8991 253.345 78.8086 251.152C78.8024 250.769 78.662 250.399 78.4119 250.108V250.108Z" fill="#263238"/>
<path d="M116.692 264.077H109.14C109.006 264.079 108.876 264.125 108.77 264.208C108.665 264.291 108.589 264.406 108.556 264.537L107.108 270.536C107.074 270.68 107.074 270.83 107.106 270.974C107.139 271.118 107.204 271.253 107.297 271.369C107.389 271.484 107.507 271.577 107.64 271.64C107.774 271.703 107.921 271.735 108.068 271.733C110.727 271.733 111.994 271.733 115.314 271.733H125.468C128.252 271.733 128.719 268.949 127.556 268.692C122.399 267.557 119.392 265.991 117.764 264.516C117.474 264.24 117.092 264.084 116.692 264.077V264.077Z" fill="#263238"/>
<path opacity="0.2" d="M118.738 251.34L117.374 258.892H110.957L112.432 250.742L118.738 251.34Z" fill="black"/>
<path opacity="0.2" d="M79.08 235.715L84.5784 238.875L80.8827 245.557L75.3773 242.404L79.08 235.715Z" fill="black"/>
<path d="M138.477 97.9976C138.477 97.9976 141.261 99.2156 131.969 135.93L106.217 133.702C107.553 123.262 108.131 116.783 104.978 94.8238C108.65 94.3892 112.349 94.2217 116.045 94.3227C119.964 94.3836 123.874 94.7232 127.744 95.3388C131.365 96.0421 134.947 96.9295 138.477 97.9976V97.9976Z" fill="#263238"/>
<path opacity="0.2" d="M109.21 104.54C110.324 106.892 109.906 114.764 107.24 117.52C107.157 114.347 106.906 110.693 106.412 106.183C106.72 105.711 107.133 105.318 107.618 105.033C108.104 104.748 108.648 104.579 109.21 104.54V104.54Z" fill="black"/>
<path d="M118.32 81.224C118.738 85.052 118.877 92.012 116.024 94.2949C116.024 94.2949 119.072 97.406 125.232 100.837C129.714 97.7401 127.723 95.311 127.723 95.311C123.617 93.919 123.993 90.8358 124.939 87.9752L118.32 81.224Z" fill="#FEEBD0"/>
<path opacity="0.2" d="M121.035 84.008L124.974 88.003C124.734 88.6681 124.553 89.3527 124.431 90.0493C122.852 89.6734 120.555 88.0309 120.534 86.3326C120.563 85.5343 120.732 84.7473 121.035 84.008V84.008Z" fill="black"/>
<path d="M114.952 75.2662C116.553 81.3841 117.096 84.008 120.847 86.5693C126.492 90.4251 133.653 87.1261 133.918 80.6533C134.154 74.8278 131.503 65.8076 124.96 64.5339C123.518 64.2456 122.027 64.3308 120.627 64.7814C119.227 65.2321 117.966 66.0332 116.963 67.1087C115.96 68.1841 115.249 69.4982 114.897 70.926C114.545 72.3538 114.564 73.8479 114.952 75.2662V75.2662Z" fill="#FEEBD0"/>
<path d="M114.451 80.4514C114.733 80.9873 115.118 81.4622 115.584 81.8491C116.049 82.2361 116.587 82.5274 117.165 82.7065C118.717 83.1728 119.525 81.7947 119.121 80.3122C118.759 78.9829 117.513 77.1315 115.94 77.3125C115.6 77.3622 115.278 77.495 115.001 77.6993C114.725 77.9036 114.503 78.1729 114.356 78.4835C114.208 78.794 114.14 79.1361 114.156 79.4794C114.173 79.8227 114.274 80.1566 114.451 80.4514Z" fill="#FEEBD0"/>
<path d="M117.833 62.9818C116.741 64.861 119.469 68.341 125.204 68.007C129.526 67.7564 134.948 72.3987 134.51 67.3806C134.141 62.8148 123.276 60.6294 117.833 62.9818Z" fill="#263238"/>
<path d="M120.972 64.3599C123.965 66.6498 121.975 70.8327 120.534 72.7119C119.093 74.5911 116.873 76.352 118.592 79.136C120.311 81.92 121.487 89.576 116.003 88.2327C110.518 86.8894 110.769 77.744 112.363 73.5193C113.957 69.2945 117.409 61.6386 120.972 64.3599Z" fill="#263238"/>
<path d="M131.969 135.93C131.969 135.93 138.47 174.718 134.175 198.43C130.855 216.763 119.984 256.7 119.984 256.7L108.994 256.421C108.994 256.421 116.532 217.807 118.738 202.62C122.503 176.646 113.073 134.294 113.073 134.294L131.969 135.93Z" fill="#FA7A35"/>
<path opacity="0.2" d="M121.912 143.718L116.413 152.383C118.071 162.664 119.121 173.034 119.559 183.439C127.292 169.616 123.631 151.04 121.912 143.718Z" fill="black"/>
<path d="M121.564 257.27L107.985 256.922L108.771 252.753L122.622 253.407L121.564 257.27Z" fill="#263238"/>
<path d="M126.332 135.512C126.332 135.512 121.216 176.416 110.129 198.751C101.171 216.791 83.3257 244.687 83.3257 244.687L75.9272 239.975C75.9272 239.975 87.3068 208.272 93.9606 196.287C110.282 166.909 96.9464 144.483 106.196 133.702L126.332 135.512Z" fill="#FA7A35"/>
<path d="M84.119 245.362L74.6743 239.703L76.3934 235.639L86.4576 241.826L84.119 245.362Z" fill="#263238"/>
<path d="M105.939 132.15L104.581 134.357C104.47 134.531 104.672 134.732 104.964 134.76L131.997 137.092C132.227 137.092 132.428 137.015 132.456 136.876L132.888 134.586C132.888 134.426 132.728 134.273 132.477 134.252L106.377 132.032C106.3 132.013 106.219 132.014 106.143 132.035C106.066 132.056 105.996 132.095 105.939 132.15V132.15Z" fill="#FA7A35"/>
<path opacity="0.2" d="M105.939 132.15L104.581 134.357C104.47 134.531 104.672 134.732 104.964 134.76L131.997 137.092C132.227 137.092 132.428 137.015 132.456 136.876L132.888 134.586C132.888 134.426 132.728 134.273 132.477 134.252L106.377 132.032C106.3 132.013 106.219 132.014 106.143 132.035C106.066 132.056 105.996 132.095 105.939 132.15V132.15Z" fill="black"/>
<path d="M109.196 135.373L108.5 135.317C108.361 135.317 108.263 135.22 108.277 135.136L108.869 132.164C108.869 132.081 109.015 132.018 109.154 132.032L109.85 132.088C109.989 132.088 110.087 132.185 110.073 132.269L109.481 135.241C109.46 135.324 109.335 135.387 109.196 135.373Z" fill="#FA7A35"/>
<path d="M130.006 137.175L129.31 137.113C129.171 137.113 129.074 137.022 129.088 136.932L129.672 133.967C129.672 133.876 129.818 133.821 129.958 133.828L130.654 133.89C130.793 133.89 130.89 133.981 130.876 134.071L130.285 137.036C130.278 137.127 130.146 137.189 130.006 137.175Z" fill="#FA7A35"/>
<path d="M119.601 136.278L118.905 136.215C118.766 136.215 118.662 136.124 118.682 136.034L119.267 133.062C119.267 132.979 119.413 132.916 119.552 132.93L120.248 132.992C120.388 132.992 120.492 133.083 120.471 133.166L119.887 136.138C119.866 136.208 119.74 136.285 119.601 136.278Z" fill="#FA7A35"/>
<path d="M125.308 75.0574C125.406 75.5586 125.754 75.9135 126.088 75.8509C126.422 75.7882 126.603 75.3289 126.499 74.8208C126.394 74.3127 126.053 73.9647 125.726 74.0274C125.399 74.09 125.211 74.5494 125.308 75.0574Z" fill="#263238"/>
<path d="M129.429 81.3632C129.526 81.8713 129.874 82.2262 130.201 82.1636C130.528 82.1009 130.716 81.6346 130.619 81.1335C130.521 80.6324 130.173 80.2705 129.846 80.3331C129.519 80.3957 129.324 80.8621 129.429 81.3632Z" fill="#263238"/>
<path d="M131.009 73.9369C131.106 74.438 131.454 74.793 131.781 74.7303C132.108 74.6677 132.296 74.2083 132.199 73.7003C132.101 73.1922 131.753 72.8442 131.426 72.9068C131.099 72.9695 130.904 73.4288 131.009 73.9369Z" fill="#263238"/>
<path d="M131.287 72.9625L132.428 72.3778C132.428 72.3778 131.99 73.4427 131.287 72.9625Z" fill="#263238"/>
<path d="M129.032 75.1897C129.706 76.2526 130.523 77.2175 131.461 78.0572C131.242 78.2924 130.973 78.4765 130.675 78.5968C130.377 78.717 130.056 78.7704 129.735 78.7532L129.032 75.1897Z" fill="#ED893E"/>
<path d="M121.884 73.1017C121.84 73.0999 121.797 73.088 121.759 73.0669C121.73 73.0497 121.705 73.0271 121.686 73.0002C121.666 72.9733 121.652 72.9428 121.644 72.9104C121.636 72.878 121.635 72.8444 121.64 72.8115C121.646 72.7786 121.658 72.7471 121.675 72.7189C121.908 72.3099 122.235 71.963 122.63 71.7074C123.025 71.4517 123.476 71.295 123.944 71.2503C124.01 71.2502 124.074 71.2754 124.122 71.3207C124.169 71.3661 124.198 71.4281 124.202 71.4939C124.204 71.5592 124.18 71.6227 124.136 71.6708C124.092 71.7189 124.03 71.7478 123.965 71.7514C123.579 71.7946 123.208 71.9288 122.884 72.143C122.56 72.3571 122.291 72.6451 122.1 72.9833C122.077 73.02 122.045 73.0501 122.007 73.0708C121.97 73.0915 121.927 73.1022 121.884 73.1017V73.1017Z" fill="#263238"/>
<path d="M132.589 71.0833C132.545 71.0815 132.502 71.0696 132.463 71.0485C132.131 70.8506 131.757 70.7342 131.371 70.7088C130.985 70.6834 130.598 70.7497 130.243 70.9023C130.214 70.9181 130.182 70.9279 130.149 70.9312C130.116 70.9344 130.082 70.9311 130.051 70.9214C130.019 70.9117 129.989 70.8958 129.964 70.8746C129.938 70.8534 129.917 70.8273 129.902 70.7979C129.872 70.7378 129.868 70.6685 129.888 70.6048C129.909 70.5412 129.954 70.4881 130.013 70.4569C130.443 70.2658 130.912 70.1801 131.382 70.2067C131.852 70.2333 132.308 70.3716 132.714 70.61C132.765 70.6361 132.805 70.6788 132.828 70.731C132.852 70.7832 132.856 70.8418 132.842 70.8971C132.827 70.9523 132.794 71.0009 132.748 71.0348C132.702 71.0687 132.646 71.0858 132.589 71.0833V71.0833Z" fill="#263238"/>
<path d="M108.758 104.276C107.366 107.025 105.897 109.899 104.582 112.697C103.955 114.089 103.343 115.481 102.883 116.838C102.68 117.424 102.513 118.021 102.382 118.627C102.333 118.85 102.34 119.038 102.306 118.919V118.857L102.264 118.738L102.187 118.571C102.187 118.523 102.187 118.571 102.187 118.571C102.199 118.605 102.213 118.637 102.229 118.669C102.271 118.766 102.34 118.892 102.681 119.052C103.153 119.232 103.652 119.331 104.157 119.344C105.544 119.377 106.929 119.244 108.284 118.947C111.319 118.289 114.299 117.402 117.2 116.295L118.801 119.302C115.961 121.195 112.899 122.731 109.683 123.875C107.933 124.51 106.104 124.901 104.247 125.037C103.13 125.109 102.009 124.999 100.928 124.71C100.277 124.528 99.6542 124.259 99.0762 123.91C98.4427 123.515 97.8784 123.019 97.4058 122.441C97.1733 122.153 96.9661 121.846 96.7863 121.522C96.7286 121.436 96.6774 121.345 96.6332 121.251C96.5618 121.106 96.499 120.958 96.4453 120.806C96.3966 120.673 96.3548 120.534 96.3131 120.402L96.2295 120.04C96.1025 119.337 96.0744 118.621 96.146 117.91C96.2409 116.914 96.4273 115.928 96.7028 114.966C97.1691 113.285 97.7386 111.635 98.408 110.025C99.6724 106.922 101.127 103.9 102.765 100.977L108.758 104.276Z" fill="#FEEBD0"/>
<path d="M116.059 117.416L118.592 112.335L122.023 116.769C122.023 116.769 119.935 119.859 117.277 119.755L116.059 117.416Z" fill="#FEEBD0"/>
<path d="M121.285 110.867L124.55 114.465L122.002 116.769L118.571 112.342L121.285 110.867Z" fill="#FEEBD0"/>
<path d="M104.957 94.8238C99.2153 96.1323 98.8673 106.496 98.8673 106.496L105.396 112.273C105.396 112.273 111.66 104.735 111.333 100.622C111.04 97.1206 108.938 93.9121 104.957 94.8238Z" fill="#263238"/>
<path d="M106.141 112.579C106.009 112.747 105.816 112.857 105.603 112.885C105.391 112.912 105.176 112.855 105.006 112.725L98.1505 107.408C97.9839 107.276 97.8754 107.084 97.8481 106.873C97.8208 106.663 97.8768 106.45 98.0043 106.28V106.28C98.1373 106.112 98.3308 106.004 98.543 105.978C98.7553 105.952 98.9693 106.01 99.1388 106.141L105.994 111.451C106.161 111.583 106.27 111.775 106.297 111.985C106.324 112.196 106.268 112.409 106.141 112.579V112.579Z" fill="#FA7A35"/>
<path d="M80.3747 253.136C80.2938 253.147 80.2119 253.147 80.1311 253.136C79.3376 253.066 78.5303 251.82 78.1196 251.048C78.1059 251.027 78.0985 251.003 78.0985 250.978C78.0985 250.954 78.1059 250.929 78.1196 250.909C78.1351 250.89 78.1559 250.875 78.1794 250.868C78.203 250.86 78.2281 250.86 78.2519 250.867C78.5024 250.93 80.7157 251.514 80.9663 252.259C80.9923 252.341 80.9963 252.429 80.978 252.513C80.9597 252.597 80.9196 252.675 80.8619 252.739C80.7521 252.925 80.5792 253.066 80.3747 253.136V253.136ZM78.4885 251.236C79.0871 252.245 79.6995 252.858 80.1519 252.899C80.254 252.906 80.356 252.886 80.4477 252.841C80.5395 252.796 80.6175 252.727 80.6739 252.642C80.7056 252.611 80.7281 252.572 80.7391 252.529C80.7502 252.486 80.7493 252.441 80.7366 252.398C80.5835 251.897 79.2541 251.424 78.4885 251.201V251.236Z" fill="#FA7A35"/>
<path d="M80.2285 251.111C79.5574 251.265 78.8602 251.265 78.1892 251.111C78.1686 251.104 78.1502 251.092 78.1355 251.076C78.1209 251.061 78.1106 251.041 78.1057 251.02C78.1016 250.999 78.1033 250.976 78.1107 250.955C78.118 250.935 78.1307 250.916 78.1474 250.902C78.2031 250.846 79.5394 249.621 80.4651 249.719C80.5761 249.729 80.6835 249.764 80.7797 249.821C80.8758 249.877 80.9585 249.954 81.0219 250.046C81.0936 250.136 81.1327 250.247 81.1327 250.362C81.1327 250.478 81.0936 250.589 81.0219 250.679C80.8105 250.904 80.5324 251.056 80.2285 251.111V251.111ZM78.4954 250.937C79.2332 251.062 80.5834 250.937 80.8549 250.533C80.9036 250.47 80.9384 250.373 80.82 250.199C80.7758 250.137 80.7188 250.085 80.6527 250.046C80.5867 250.008 80.5132 249.984 80.4372 249.976C79.8178 249.907 78.92 250.61 78.4954 250.937Z" fill="#FA7A35"/>
<path d="M120.088 265.302C119.385 265.287 118.685 265.199 118 265.038C117.978 265.036 117.957 265.029 117.939 265.017C117.921 265.005 117.906 264.988 117.896 264.968C117.893 264.942 117.897 264.916 117.909 264.893C117.92 264.87 117.937 264.85 117.959 264.836C118.265 264.69 120.965 263.444 121.675 263.896C121.739 263.937 121.79 263.994 121.823 264.061C121.856 264.129 121.87 264.204 121.863 264.279C121.862 264.414 121.83 264.547 121.77 264.667C121.71 264.788 121.622 264.893 121.515 264.975C121.084 265.227 120.586 265.341 120.088 265.302ZM118.439 264.871C119.26 265.024 120.77 265.225 121.376 264.752C121.457 264.692 121.523 264.613 121.567 264.522C121.612 264.431 121.635 264.331 121.634 264.23C121.639 264.198 121.635 264.165 121.622 264.135C121.608 264.105 121.585 264.08 121.557 264.063C121.167 263.806 119.566 264.369 118.439 264.871Z" fill="#FA7A35"/>
<path d="M118.042 265.045C118.015 265.051 117.986 265.051 117.959 265.045C117.942 265.028 117.93 265.009 117.923 264.987C117.916 264.965 117.913 264.942 117.917 264.919C117.917 264.801 118.474 262.101 119.97 262.275C120.339 262.316 120.45 262.504 120.471 262.65C120.589 263.346 118.905 264.738 118.091 265.059L118.042 265.045ZM119.838 262.483C118.891 262.483 118.383 264.056 118.223 264.69C119.1 264.223 120.311 263.096 120.228 262.657C120.228 262.623 120.228 262.525 119.942 262.49L119.838 262.483Z" fill="#FA7A35"/>
<path d="M125.587 74.0831L126.728 73.4984C126.728 73.4984 126.29 74.5633 125.587 74.0831Z" fill="#263238"/>
<path d="M214 24.3538C216.131 24.3475 218.239 24.8003 220.18 25.6814C222.121 26.5625 223.85 27.8513 225.248 29.4601C226.646 31.0688 227.682 32.9599 228.284 35.0046C228.887 37.0494 229.042 39.1998 228.739 41.3098C228.436 43.4197 227.682 45.4397 226.528 47.2323C225.375 49.0249 223.849 50.5481 222.054 51.6983C220.26 52.8485 218.238 53.5988 216.128 53.8981C214.018 54.1974 211.867 54.0386 209.824 53.4327L195.59 49.2567L199.766 35.0235C200.681 31.956 202.557 29.2639 205.119 27.3451C207.681 25.4262 210.792 24.3823 213.993 24.3678M213.993 23.6718C210.641 23.6739 207.38 24.7593 204.696 26.7661C202.012 28.773 200.048 31.5938 199.098 34.8078L194.714 49.7091L209.615 54.0939C211.572 54.6706 213.623 54.8563 215.652 54.6403C217.68 54.4242 219.646 53.8108 221.438 52.8349C223.23 51.8589 224.811 50.5397 226.093 48.9525C227.375 47.3653 228.331 45.5412 228.908 43.5843C229.485 41.6274 229.67 39.5761 229.454 37.5475C229.238 35.5189 228.625 33.5527 227.649 31.7611C226.673 29.9696 225.354 28.3878 223.767 27.1061C222.179 25.8245 220.355 24.8679 218.398 24.2912V24.2912C216.97 23.8707 215.489 23.6574 214 23.6578L213.993 23.6718Z" fill="#4A9DF7"/>
<path d="M214.904 42.944L210.527 41.6564L210.659 41.2179C210.818 40.5965 211.084 40.0077 211.445 39.4779C211.746 39.0626 212.122 38.7063 212.552 38.4269C213.469 37.8999 214.42 37.4348 215.399 37.0349C216.171 36.7078 216.617 36.3389 216.742 35.9144C216.806 35.7368 216.832 35.5474 216.818 35.359C216.804 35.1706 216.749 34.9874 216.658 34.8217C216.418 34.4653 216.049 34.2158 215.628 34.1257C215.379 34.0444 215.115 34.0154 214.854 34.0405C214.593 34.0657 214.34 34.1444 214.111 34.2718C213.528 34.6934 213.1 35.2951 212.893 35.984L208.585 34.1187C209.108 32.6314 210.164 31.3912 211.55 30.6387C212.879 29.9427 214.626 29.9427 216.777 30.5482C218.222 30.9018 219.527 31.6828 220.521 32.7893C221.054 33.3721 221.424 34.0841 221.597 34.8545C221.769 35.625 221.736 36.4271 221.502 37.1811C221.304 37.8481 220.926 38.4476 220.41 38.9141C219.549 39.5954 218.579 40.1271 217.542 40.4871C216.85 40.7195 216.204 41.073 215.635 41.5311C215.275 41.9319 215.023 42.4183 214.904 42.944V42.944ZM210.032 42.77L214.723 44.162L213.505 48.2962L208.814 46.9042L210.032 42.77Z" fill="#4A9DF7"/>
<path d="M77.9595 31.808C82.2242 31.7996 86.3661 33.2356 89.7103 35.8822C93.0545 38.5287 95.4039 42.2297 96.3757 46.3822L100.754 64.8193L82.3165 69.1971C80.8774 69.538 79.4036 69.7108 77.9247 69.7122C73.2836 69.7045 68.8065 67.9941 65.3425 64.9052C61.8785 61.8163 59.6684 57.5637 59.1312 52.9538C58.594 48.3438 59.7671 43.6969 62.428 39.8943C65.0889 36.0917 69.0527 33.3977 73.5677 32.323C75.0068 31.9821 76.4806 31.8093 77.9595 31.808ZM77.9595 31.112C76.4265 31.1127 74.8989 31.2926 73.4077 31.6479V31.6479C70.8962 32.2435 68.5267 33.3282 66.4348 34.8401C64.3428 36.352 62.5693 38.2614 61.2158 40.4592C59.8622 42.6569 58.9551 45.0999 58.5463 47.6484C58.1376 50.197 58.2351 52.8011 58.8334 55.3119C59.4257 57.8252 60.5083 60.1969 62.0193 62.2908C63.5304 64.3847 65.44 66.1596 67.6386 67.5137C69.8372 68.8678 72.2816 69.7744 74.8314 70.1815C77.3813 70.5887 79.9865 70.4883 82.4974 69.8862L101.61 65.3482L97.0717 46.2361C96.0533 41.9319 93.6124 38.0972 90.144 35.3526C86.6756 32.6079 82.3825 31.1138 77.9595 31.112V31.112Z" fill="#4A9DF7"/>
<path d="M81.2724 54.2888L75.6627 55.6181L75.5234 55.0613C75.3143 54.2769 75.239 53.4627 75.3007 52.6532C75.3757 52.0031 75.5717 51.3729 75.8784 50.7949C76.5631 49.652 77.321 48.5547 78.1474 47.5097C78.7946 46.6676 79.0522 45.9785 78.9199 45.4217C78.8808 45.1853 78.7908 44.9602 78.6563 44.7619C78.5217 44.5637 78.3457 44.397 78.1404 44.2733C77.6529 44.0416 77.0954 44.0042 76.5814 44.1689C76.2572 44.2354 75.9502 44.368 75.6796 44.5584C75.409 44.7488 75.1805 44.9929 75.0084 45.2756C74.6259 46.0968 74.5209 47.0202 74.7091 47.9064L68.807 48.5607C68.4618 46.6212 68.8408 44.6225 69.8719 42.944C70.902 41.3432 72.7951 40.2157 75.5513 39.5614C77.3602 39.0416 79.284 39.0804 81.0706 39.6728C82.0175 39.977 82.8693 40.5218 83.5427 41.2537C84.2161 41.9857 84.688 42.8798 84.9125 43.8488C85.1075 44.7067 85.0667 45.6014 84.7942 46.4379C84.2756 47.725 83.5438 48.9156 82.6296 49.9597C82.0186 50.6507 81.5355 51.4449 81.2028 52.3052C81.0566 52.9615 81.0806 53.6443 81.2724 54.2888V54.2888ZM75.8227 57.1563L81.8362 55.7643L83.0959 61.04L77.0825 62.432L75.8227 57.1563Z" fill="#4A9DF7"/>
</g>
<defs>
<clipPath id="clip0_157_82011">
<rect width="281" height="291" fill="white"/>
</clipPath>
</defs>
</svg>
