<svg width="274" height="274" viewBox="0 0 274 274" fill="none" xmlns="http://www.w3.org/2000/svg">
<path d="M46.843 160.301L40.0972 42.9961C40.0585 42.4492 40.1336 41.9003 40.3177 41.384C40.5018 40.8676 40.7909 40.395 41.1667 39.996C41.5426 39.597 41.9971 39.2801 42.5015 39.0655C43.006 38.8509 43.5494 38.7432 44.0976 38.7491H177.881C179.026 38.763 180.124 39.2078 180.955 39.9949C181.787 40.782 182.292 41.8535 182.369 42.9961L189.109 160.301C189.149 160.847 189.074 161.396 188.891 161.912C188.707 162.428 188.419 162.9 188.043 163.299C187.668 163.698 187.214 164.014 186.709 164.228C186.205 164.442 185.662 164.549 185.114 164.542H51.3257C50.1817 164.53 49.0846 164.086 48.2536 163.3C47.4226 162.513 46.9189 161.442 46.843 160.301V160.301Z" fill="#263238"/>
<path d="M185.114 164.805H51.3257C50.1159 164.789 48.9564 164.319 48.0773 163.487C47.1982 162.656 46.6638 161.524 46.58 160.317L39.8396 43.007C39.7978 42.4251 39.8774 41.8408 40.0731 41.2912C40.2689 40.7416 40.5767 40.2386 40.9769 39.8142C41.3772 39.3897 41.8612 39.0529 42.3984 38.8253C42.9356 38.5976 43.5142 38.4839 44.0976 38.4915H177.881C179.091 38.5066 180.251 38.9767 181.131 39.8083C182.01 40.64 182.544 41.7721 182.627 42.9796L189.372 160.284C189.413 160.867 189.333 161.451 189.137 162C188.941 162.55 188.633 163.053 188.233 163.477C187.833 163.902 187.35 164.239 186.813 164.468C186.276 164.697 185.698 164.811 185.114 164.805V164.805ZM47.128 160.284C47.2009 161.36 47.676 162.369 48.4589 163.11C49.2418 163.851 50.2751 164.271 51.3531 164.285H185.114C185.626 164.29 186.134 164.189 186.605 163.988C187.076 163.788 187.5 163.492 187.851 163.119C188.202 162.746 188.472 162.305 188.645 161.823C188.817 161.341 188.887 160.828 188.852 160.317L182.111 43.007C182.037 41.9314 181.561 40.9232 180.777 40.1829C179.993 39.4427 178.959 39.0247 177.881 39.0121H44.0976C43.5852 39.0054 43.0769 39.1053 42.6052 39.3054C42.1334 39.5055 41.7083 39.8014 41.3569 40.1745C41.0055 40.5475 40.7355 40.9895 40.5639 41.4724C40.3923 41.9552 40.323 42.4685 40.3602 42.9796L47.128 160.284Z" fill="#263238"/>
<path d="M48.4816 160.301L41.7357 42.9961C41.6971 42.4492 41.7721 41.9003 41.9562 41.384C42.1403 40.8676 42.4294 40.395 42.8053 39.996C43.1812 39.597 43.6356 39.2801 44.1401 39.0655C44.6445 38.8509 45.1879 38.7432 45.7361 38.7491H179.519C180.664 38.763 181.762 39.2078 182.594 39.9949C183.426 40.782 183.93 41.8535 184.007 42.9961L190.748 160.301C190.787 160.847 190.713 161.396 190.529 161.912C190.346 162.428 190.057 162.9 189.682 163.299C189.306 163.698 188.852 164.014 188.348 164.228C187.844 164.442 187.301 164.549 186.753 164.542H52.9642C51.8202 164.53 50.7232 164.086 49.8922 163.3C49.0612 162.513 48.5574 161.442 48.4816 160.301V160.301Z" fill="white"/>
<path d="M186.753 164.805H52.9642C51.7553 164.788 50.5972 164.317 49.7193 163.485C48.8413 162.654 48.3077 161.523 48.224 160.317L41.4781 43.007C41.4363 42.4251 41.5158 41.8408 41.7116 41.2912C41.9074 40.7416 42.2151 40.2386 42.6154 39.8142C43.0157 39.3897 43.4997 39.0529 44.0369 38.8253C44.5741 38.5976 45.1527 38.4839 45.7361 38.4915H179.519C180.73 38.5066 181.89 38.9767 182.769 39.8083C183.648 40.64 184.182 41.7721 184.265 42.9796L191.011 160.284C191.052 160.867 190.972 161.451 190.776 162C190.58 162.55 190.272 163.053 189.872 163.477C189.472 163.902 188.988 164.239 188.451 164.468C187.915 164.697 187.336 164.811 186.753 164.805V164.805ZM45.7361 39.0121C45.2236 39.0054 44.7154 39.1053 44.2436 39.3054C43.7718 39.5055 43.3468 39.8014 42.9954 40.1745C42.644 40.5475 42.374 40.9895 42.2024 41.4724C42.0308 41.9552 41.9615 42.4685 41.9987 42.9796L48.7391 160.284C48.812 161.36 49.2871 162.369 50.07 163.11C50.8529 163.851 51.8861 164.271 52.9642 164.285H186.753C187.265 164.29 187.772 164.189 188.243 163.988C188.714 163.788 189.139 163.492 189.49 163.119C189.841 162.746 190.111 162.305 190.283 161.823C190.455 161.341 190.526 160.828 190.49 160.317L183.75 43.007C183.673 41.9323 183.196 40.9255 182.412 40.1858C181.629 39.4461 180.597 39.0272 179.519 39.0121H45.7361Z" fill="#263238"/>
<path d="M93.4504 55.6932H56.0659C55.3863 55.676 54.7374 55.4068 54.2452 54.9379C53.753 54.469 53.4527 53.8339 53.4026 53.156V53.156C53.3807 52.832 53.4259 52.5071 53.5356 52.2015C53.6452 51.8958 53.8168 51.6162 54.0396 51.38C54.2624 51.1438 54.5315 50.9562 54.8303 50.829C55.129 50.7018 55.4508 50.6377 55.7754 50.6407H93.16C93.8383 50.65 94.4885 50.9136 94.9817 51.3794C95.4749 51.8452 95.7753 52.4793 95.8233 53.156V53.156C95.8484 53.4817 95.8054 53.809 95.6973 54.1173C95.5891 54.4255 95.418 54.7079 95.1949 54.9465C94.9718 55.1851 94.7015 55.3746 94.4011 55.5032C94.1008 55.6318 93.7771 55.6965 93.4504 55.6932V55.6932Z" fill="#A38F78"/>
<path d="M86.584 64.4119H56.5645C55.8915 64.4019 55.2464 64.1414 54.755 63.6814C54.2636 63.2214 53.9612 62.5949 53.9067 61.924C53.8841 61.6001 53.9286 61.275 54.0375 60.9691C54.1465 60.6632 54.3174 60.3831 54.5397 60.1464C54.762 59.9097 55.0308 59.7215 55.3293 59.5936C55.6277 59.4657 55.9494 59.4009 56.2741 59.4032H86.2881C86.9673 59.4126 87.6182 59.677 88.1115 60.144C88.6049 60.6109 88.9047 61.2463 88.9513 61.924V61.924C88.9693 62.2453 88.9213 62.5668 88.8103 62.8688C88.6992 63.1708 88.5275 63.4468 88.3057 63.6799C88.0839 63.913 87.8167 64.0982 87.5206 64.2241C87.2245 64.35 86.9057 64.4139 86.584 64.4119V64.4119Z" fill="#A38F78"/>
<path d="M101.265 75.6678H56.329C55.8872 75.663 55.4637 75.4905 55.1443 75.1853C54.8248 74.8801 54.6332 74.4649 54.6082 74.0238V74.0238C54.5915 73.813 54.6188 73.6009 54.6886 73.4011C54.7583 73.2014 54.8688 73.0184 55.0132 72.8637C55.1575 72.7091 55.3325 72.5862 55.527 72.5029C55.7214 72.4196 55.9311 72.3777 56.1426 72.3798H101.079C101.52 72.386 101.943 72.5589 102.262 72.8638C102.581 73.1688 102.773 73.5832 102.799 74.0238V74.0238C102.816 74.2347 102.789 74.4468 102.719 74.6465C102.649 74.8463 102.539 75.0293 102.394 75.184C102.25 75.3386 102.075 75.4615 101.881 75.5448C101.686 75.6281 101.476 75.67 101.265 75.6678V75.6678Z" fill="#E0E0E0"/>
<path d="M109.37 80.8519H61.5678C61.1264 80.8457 60.7037 80.6728 60.3845 80.3679C60.0654 80.0629 59.8734 79.6485 59.8471 79.2079C59.8295 78.9968 59.8563 78.7844 59.9257 78.5843C59.9951 78.3842 60.1056 78.2008 60.2501 78.046C60.3946 77.8911 60.5699 77.7682 60.7648 77.6852C60.9597 77.6022 61.1697 77.5608 61.3815 77.5639H109.184C109.625 77.5687 110.049 77.7412 110.368 78.0464C110.688 78.3516 110.879 78.7668 110.904 79.2079V79.2079C110.921 79.4188 110.894 79.6308 110.824 79.8306C110.754 80.0303 110.644 80.2133 110.499 80.368C110.355 80.5227 110.18 80.6455 109.986 80.7289C109.791 80.8122 109.581 80.8541 109.37 80.8519V80.8519Z" fill="#E0E0E0"/>
<path d="M100.914 86.036H61.8637C61.4225 86.0311 60.9997 85.8584 60.6811 85.5531C60.3625 85.2477 60.1721 84.8326 60.1485 84.392V84.392C60.1292 84.181 60.1546 83.9684 60.223 83.7679C60.2915 83.5674 60.4014 83.3836 60.5457 83.2285C60.69 83.0733 60.8653 82.9504 61.0603 82.8676C61.2553 82.7848 61.4656 82.744 61.6774 82.748H100.728C101.17 82.7516 101.594 82.9236 101.914 83.2291C102.234 83.5345 102.425 83.9504 102.449 84.392V84.392C102.465 84.6029 102.438 84.815 102.368 85.0147C102.299 85.2144 102.188 85.3975 102.044 85.5521C101.899 85.7068 101.724 85.8297 101.53 85.913C101.335 85.9963 101.126 86.0382 100.914 86.036V86.036Z" fill="#E0E0E0"/>
<path d="M96.8042 91.22H62.1651C61.7233 91.2152 61.2999 91.0427 60.9804 90.7375C60.661 90.4323 60.4694 90.0172 60.4444 89.576V89.576C60.426 89.3653 60.452 89.1529 60.5208 88.9528C60.5895 88.7527 60.6995 88.5693 60.8436 88.4143C60.9877 88.2594 61.1627 88.1364 61.3573 88.0533C61.5519 87.9703 61.7618 87.9289 61.9733 87.932H96.6179C97.0597 87.9369 97.4831 88.1094 97.8026 88.4146C98.122 88.7198 98.3136 89.1349 98.3386 89.576C98.3554 89.7869 98.328 89.999 98.2583 90.1987C98.1886 90.3985 98.078 90.5815 97.9337 90.7362C97.7893 90.8908 97.6143 91.0137 97.4199 91.097C97.2254 91.1803 97.0157 91.2222 96.8042 91.22V91.22Z" fill="#E0E0E0"/>
<path d="M85.762 99.6538H57.6989C57.2573 99.6501 56.8338 99.4779 56.5149 99.1723C56.1961 98.8667 56.0061 98.4508 55.9837 98.0098V98.0098C55.9653 97.799 55.9913 97.5867 56.0601 97.3866C56.1288 97.1865 56.2388 97.003 56.3829 96.8481C56.527 96.6931 56.702 96.5701 56.8966 96.4871C57.0912 96.404 57.3011 96.3627 57.5126 96.3658H85.5757C86.0171 96.3719 86.4398 96.5448 86.759 96.8497C87.0782 97.1547 87.2702 97.5691 87.2964 98.0098V98.0098C87.314 98.2208 87.2873 98.4332 87.2179 98.6334C87.1485 98.8335 87.038 99.0168 86.8934 99.1717C86.7489 99.3265 86.5736 99.4494 86.3787 99.5324C86.1839 99.6155 85.9738 99.6568 85.762 99.6538V99.6538Z" fill="#E0E0E0"/>
<path d="M93.708 111.956H63.3543C63.1428 111.954 62.9331 111.996 62.7386 112.079C62.5442 112.163 62.3692 112.286 62.2248 112.44C62.0805 112.595 61.9699 112.778 61.9002 112.978C61.8305 113.177 61.8032 113.389 61.8199 113.6V113.6C61.8462 114.041 62.0381 114.455 62.3573 114.76C62.6765 115.065 63.0992 115.238 63.5406 115.244H93.9053C94.1169 115.247 94.3265 115.205 94.521 115.121C94.7154 115.038 94.8904 114.915 95.0348 114.76C95.1791 114.606 95.2897 114.423 95.3594 114.223C95.4291 114.023 95.4565 113.811 95.4397 113.6V113.6C95.4146 113.157 95.2215 112.741 94.8997 112.435C94.5779 112.13 94.1517 111.958 93.708 111.956Z" fill="#E0E0E0"/>
<path d="M87.68 106.772H63.0584C62.8468 106.77 62.6371 106.812 62.4427 106.895C62.2482 106.979 62.0732 107.102 61.9289 107.256C61.7845 107.411 61.674 107.594 61.6043 107.794C61.5346 107.993 61.5072 108.205 61.5239 108.416V108.416C61.5489 108.857 61.7405 109.273 62.06 109.578C62.3794 109.883 62.8029 110.055 63.2447 110.06H87.8444C88.0562 110.063 88.2662 110.022 88.4611 109.939C88.656 109.856 88.8313 109.733 88.9758 109.578C89.1203 109.423 89.2308 109.24 89.3002 109.04C89.3696 108.84 89.3964 108.627 89.3788 108.416V108.416C89.3541 107.979 89.1656 107.567 88.8508 107.262C88.536 106.958 88.118 106.783 87.68 106.772Z" fill="#E0E0E0"/>
<path d="M90.1844 101.588H62.7844C62.573 101.586 62.3636 101.628 62.1694 101.711C61.9752 101.795 61.8005 101.918 61.6566 102.072C61.5127 102.227 61.4026 102.41 61.3336 102.61C61.2645 102.81 61.2379 103.022 61.2554 103.232C61.2791 103.673 61.4695 104.088 61.7881 104.393C62.1066 104.699 62.5294 104.871 62.9707 104.876H90.3981C90.6099 104.879 90.8199 104.838 91.0148 104.755C91.2096 104.672 91.385 104.549 91.5295 104.394C91.674 104.239 91.7845 104.056 91.8539 103.856C91.9233 103.656 91.9501 103.443 91.9325 103.232V103.232C91.9059 102.787 91.7101 102.369 91.3851 102.063C91.0601 101.757 90.6305 101.587 90.1844 101.588Z" fill="#E0E0E0"/>
<path d="M88.0362 139.192H59.9732C59.5318 139.186 59.109 139.013 58.7899 138.708C58.4707 138.403 58.2787 137.989 58.2524 137.548V137.548C58.2348 137.337 58.2616 137.124 58.331 136.924C58.4004 136.724 58.5109 136.541 58.6554 136.386C58.8 136.231 58.9753 136.108 59.1701 136.025C59.365 135.942 59.5751 135.901 59.7868 135.904H87.8499C88.2912 135.909 88.714 136.082 89.0325 136.387C89.3511 136.692 89.5415 137.107 89.5652 137.548V137.548C89.5836 137.759 89.5576 137.971 89.4888 138.171C89.4201 138.371 89.3101 138.555 89.166 138.71C89.0219 138.865 88.8469 138.988 88.6523 139.071C88.4577 139.154 88.2478 139.195 88.0362 139.192V139.192Z" fill="#E0E0E0"/>
<path d="M95.9932 151.5H65.6285C65.4169 151.498 65.2073 151.54 65.0128 151.623C64.8183 151.706 64.6434 151.829 64.499 151.984C64.3547 152.139 64.2441 152.322 64.1744 152.521C64.1047 152.721 64.0773 152.933 64.0941 153.144C64.1203 153.585 64.3123 153.999 64.6315 154.304C64.9507 154.609 65.3734 154.782 65.8148 154.788H96.1795C96.3913 154.791 96.6013 154.75 96.7962 154.667C96.9911 154.584 97.1664 154.461 97.3109 154.306C97.4554 154.151 97.5659 153.968 97.6353 153.768C97.7047 153.568 97.7315 153.355 97.7139 153.144V153.144C97.6876 152.703 97.4956 152.289 97.1765 151.984C96.8573 151.679 96.4346 151.506 95.9932 151.5V151.5Z" fill="#E0E0E0"/>
<path d="M89.9323 146.316H65.3271C65.1158 146.314 64.9063 146.356 64.7121 146.439C64.5179 146.522 64.3432 146.645 64.1993 146.8C64.0554 146.955 63.9454 147.138 63.8763 147.338C63.8072 147.537 63.7806 147.749 63.7982 147.96V147.96C63.8231 148.401 64.0147 148.816 64.3342 149.121C64.6536 149.427 65.0771 149.599 65.5189 149.604H90.1186C90.3301 149.606 90.5398 149.564 90.7343 149.481C90.9287 149.398 91.1037 149.275 91.2481 149.12C91.3924 148.965 91.503 148.782 91.5727 148.583C91.6424 148.383 91.6697 148.171 91.653 147.96V147.96C91.6267 147.519 91.4348 147.105 91.1156 146.8C90.7964 146.495 90.3737 146.322 89.9323 146.316V146.316Z" fill="#E0E0E0"/>
<path d="M92.4586 141.132H65.0586C64.8468 141.129 64.6367 141.17 64.4419 141.253C64.247 141.336 64.0717 141.459 63.9272 141.614C63.7827 141.769 63.6721 141.952 63.6027 142.152C63.5333 142.352 63.5066 142.565 63.5242 142.776V142.776C63.5504 143.217 63.7424 143.631 64.0616 143.936C64.3808 144.241 64.8035 144.414 65.2449 144.42H92.6723C92.8838 144.422 93.0935 144.38 93.288 144.297C93.4824 144.214 93.6574 144.091 93.8018 143.936C93.9461 143.781 94.0567 143.598 94.1264 143.399C94.1961 143.199 94.2235 142.987 94.2067 142.776V142.776C94.1801 142.331 93.9843 141.912 93.6593 141.607C93.3343 141.301 92.9047 141.131 92.4586 141.132V141.132Z" fill="#E0E0E0"/>
<path d="M94.6122 127.509H64.2476C64.036 127.506 63.8261 127.547 63.6315 127.63C63.4369 127.713 63.2619 127.836 63.1178 127.991C62.9737 128.146 62.8637 128.329 62.795 128.529C62.7262 128.73 62.7002 128.942 62.7186 129.153V129.153C62.7423 129.593 62.9327 130.008 63.2513 130.314C63.5698 130.619 63.9926 130.792 64.4339 130.797H94.804C95.0158 130.8 95.2259 130.758 95.4207 130.675C95.6156 130.592 95.7909 130.469 95.9354 130.315C96.08 130.16 96.1905 129.976 96.2599 129.776C96.3293 129.576 96.3561 129.364 96.3384 129.153V129.153C96.3134 128.711 96.121 128.295 95.8004 127.989C95.4798 127.684 95.055 127.512 94.6122 127.509V127.509Z" fill="#E0E0E0"/>
<path d="M88.5513 122.325H63.9516C63.7401 122.322 63.5304 122.364 63.3359 122.448C63.1415 122.531 62.9665 122.654 62.8221 122.808C62.6778 122.963 62.5672 123.146 62.4975 123.346C62.4278 123.546 62.4004 123.758 62.4172 123.969V123.969C62.4434 124.409 62.6354 124.824 62.9546 125.129C63.2738 125.434 63.6965 125.606 64.1379 125.613H88.7376C88.9492 125.615 89.1589 125.573 89.3533 125.49C89.5478 125.406 89.7228 125.283 89.8671 125.129C90.0114 124.974 90.122 124.791 90.1917 124.591C90.2614 124.391 90.2888 124.179 90.272 123.969V123.969C90.2471 123.527 90.0555 123.112 89.736 122.807C89.4166 122.502 88.9931 122.329 88.5513 122.325V122.325Z" fill="#E0E0E0"/>
<path d="M91.0776 117.14H63.6776C63.4663 117.138 63.2568 117.18 63.0626 117.263C62.8684 117.347 62.6938 117.47 62.5498 117.625C62.4059 117.779 62.2959 117.962 62.2268 118.162C62.1577 118.362 62.1311 118.574 62.1487 118.784V118.784C62.1737 119.226 62.3653 119.641 62.6847 119.946C63.0042 120.251 63.4276 120.424 63.8694 120.428H91.2694C91.4809 120.431 91.6906 120.389 91.8851 120.305C92.0795 120.222 92.2545 120.099 92.3989 119.945C92.5432 119.79 92.6538 119.607 92.7235 119.407C92.7932 119.207 92.8206 118.995 92.8038 118.784V118.784C92.7775 118.343 92.5847 117.928 92.2644 117.623C91.944 117.318 91.5199 117.145 91.0776 117.14V117.14Z" fill="#E0E0E0"/>
<path d="M142.513 74.5828H128.961C125.305 74.5389 121.801 73.1201 119.144 70.6088C116.488 68.0975 114.874 64.6779 114.625 61.0307V61.0307C114.502 59.2843 114.741 57.5312 115.33 55.8822C115.918 54.2332 116.841 52.724 118.042 51.45C119.243 50.176 120.695 49.1648 122.307 48.4803C123.918 47.7959 125.654 47.4529 127.405 47.4732V47.4732C131.06 47.5173 134.565 48.937 137.221 51.4496C139.877 53.9621 141.488 57.3831 141.735 61.0307L142.513 74.5828Z" fill="#A38F78"/>
<path d="M128.824 72.2373C125.802 72.2002 122.905 71.0265 120.71 68.9498C118.514 66.8731 117.181 64.0458 116.976 61.0307V61.0307C116.873 59.5872 117.07 58.138 117.556 56.7746C118.041 55.4113 118.805 54.1636 119.797 53.1103C120.79 52.0571 121.99 51.2212 123.322 50.6555C124.654 50.0899 126.089 49.8068 127.536 49.8241V49.8241C130.559 49.8586 133.458 51.0313 135.655 53.1084C137.852 55.1854 139.185 58.0142 139.389 61.0307V61.0307C139.492 62.4745 139.294 63.9239 138.807 65.2872C138.321 66.6505 137.557 67.8982 136.565 68.9513C135.572 70.0045 134.371 70.8403 133.039 71.4059C131.706 71.9715 130.271 72.2546 128.824 72.2373V72.2373Z" fill="white"/>
<path d="M129.514 56.4933L130.062 65.5682H127.553L127.213 59.6224C126.859 59.9055 126.479 60.155 126.078 60.3676C125.629 60.5891 125.161 60.7724 124.681 60.9156L124.566 58.8826C125.26 58.6836 125.908 58.3503 126.473 57.9017C126.919 57.5205 127.267 57.0374 127.487 56.4933H129.514Z" fill="#263238"/>
<path d="M150.881 101.692H164.433C166.183 101.713 167.919 101.37 169.53 100.685C171.141 100.001 172.593 98.9894 173.793 97.7153C174.994 96.4412 175.917 94.932 176.505 93.283C177.092 91.6339 177.331 89.881 177.207 88.1349C176.959 84.4882 175.347 81.0686 172.691 78.5572C170.036 76.0458 166.531 74.6268 162.877 74.5828V74.5828C161.126 74.5618 159.39 74.904 157.779 75.5879C156.168 76.2717 154.715 77.2824 153.515 78.556C152.314 79.8296 151.39 81.3384 150.802 82.9871C150.213 84.6359 149.974 86.3887 150.097 88.1349L150.881 101.692Z" fill="#A38F78"/>
<path d="M164.296 99.3414C165.743 99.3587 167.178 99.0756 168.511 98.51C169.843 97.9444 171.044 97.1086 172.037 96.0555C173.029 95.0023 173.793 93.7546 174.279 92.3913C174.766 91.028 174.964 89.5786 174.861 88.1348C174.656 85.1188 173.323 82.2907 171.126 80.2139C168.929 78.1371 166.031 76.964 163.008 76.9282V76.9282C161.561 76.9117 160.127 77.1954 158.795 77.7613C157.463 78.3273 156.263 79.1632 155.271 80.2162C154.279 81.2693 153.515 82.5167 153.03 83.8797C152.544 85.2426 152.346 86.6915 152.448 88.1348C152.652 91.1504 153.984 93.9784 156.18 96.0553C158.376 98.1323 161.274 99.3056 164.296 99.3414V99.3414Z" fill="white"/>
<path d="M167.874 92.6723H160.438C160.478 91.938 160.702 91.2257 161.09 90.6008C161.722 89.7124 162.5 88.9378 163.392 88.3102C163.885 87.9625 164.33 87.5496 164.712 87.0827C164.885 86.8518 164.977 86.5709 164.975 86.2826C164.968 86.1492 164.934 86.0187 164.875 85.899C164.815 85.7793 164.732 85.673 164.63 85.5866C164.42 85.3928 164.143 85.2886 163.857 85.2962C163.717 85.289 163.577 85.3122 163.446 85.3642C163.316 85.4163 163.198 85.4959 163.101 85.5976C162.871 85.8997 162.75 86.2703 162.756 86.6498L160.263 86.447C160.281 85.8727 160.431 85.3102 160.701 84.803C160.948 84.4016 161.314 84.0873 161.748 83.9043C162.367 83.6637 163.029 83.5554 163.693 83.5864C164.391 83.5582 165.088 83.6604 165.748 83.8878C166.225 84.0731 166.64 84.3905 166.943 84.803C167.241 85.2064 167.414 85.6885 167.441 86.1894C167.47 86.7354 167.334 87.2774 167.052 87.7458C166.616 88.3952 166.058 88.9536 165.408 89.3898C164.926 89.735 164.608 89.9761 164.449 90.1186C164.257 90.291 164.074 90.4739 163.901 90.6666H167.776L167.874 92.6723Z" fill="#263238"/>
<g opacity="0.4">
<path d="M145.631 128.78H132.068C128.413 128.736 124.908 127.317 122.251 124.806C119.595 122.295 117.981 118.875 117.732 115.228V115.228C117.608 113.482 117.847 111.729 118.435 110.081C119.022 108.432 119.945 106.923 121.146 105.649C122.346 104.376 123.798 103.365 125.409 102.681C127.021 101.997 128.756 101.655 130.506 101.676C134.162 101.72 137.666 103.139 140.323 105.65C142.979 108.161 144.593 111.581 144.842 115.228L145.631 128.78Z" fill="#A38F78"/>
</g>
<path d="M131.942 126.451C128.92 126.415 126.022 125.242 123.826 123.165C121.631 121.088 120.298 118.26 120.094 115.244V115.244C119.991 113.801 120.188 112.352 120.674 110.988C121.16 109.625 121.923 108.377 122.915 107.324C123.908 106.271 125.108 105.435 126.44 104.869C127.772 104.304 129.207 104.02 130.654 104.038V104.038C133.672 104.08 136.564 105.257 138.755 107.333C140.945 109.409 142.275 112.233 142.48 115.244V115.244C142.582 116.686 142.385 118.133 141.9 119.494C141.416 120.856 140.654 122.102 139.665 123.155C138.675 124.208 137.477 125.044 136.148 125.611C134.819 126.179 133.387 126.464 131.942 126.451V126.451Z" fill="white"/>
<path d="M129.98 113.365L127.613 112.943C127.726 112.262 128.092 111.65 128.638 111.228C129.327 110.786 130.139 110.577 130.956 110.63C131.859 110.558 132.761 110.787 133.52 111.282C133.777 111.476 133.988 111.723 134.139 112.007C134.29 112.291 134.376 112.605 134.392 112.926C134.42 113.294 134.329 113.661 134.134 113.973C133.906 114.319 133.595 114.601 133.23 114.795C133.512 114.852 133.783 114.952 134.035 115.091C134.337 115.266 134.59 115.515 134.77 115.814C134.959 116.137 135.065 116.503 135.077 116.877C135.106 117.396 134.994 117.913 134.753 118.373C134.514 118.846 134.13 119.23 133.657 119.469C133.034 119.755 132.353 119.888 131.668 119.859C131.009 119.882 130.351 119.783 129.728 119.568C129.267 119.391 128.855 119.106 128.528 118.735C128.18 118.329 127.916 117.857 127.75 117.349L130.21 117.02C130.28 117.408 130.456 117.768 130.72 118.061C130.938 118.262 131.224 118.371 131.52 118.368C131.674 118.373 131.827 118.343 131.967 118.28C132.107 118.217 132.232 118.124 132.331 118.006C132.544 117.728 132.642 117.379 132.605 117.031C132.605 116.674 132.473 116.33 132.232 116.066C132.115 115.953 131.975 115.865 131.823 115.807C131.67 115.748 131.508 115.721 131.345 115.727C131.074 115.74 130.807 115.789 130.55 115.875V114.105C130.66 114.11 130.769 114.11 130.879 114.105C131.025 114.109 131.171 114.084 131.307 114.031C131.444 113.979 131.568 113.899 131.673 113.798C131.771 113.702 131.846 113.586 131.895 113.458C131.943 113.331 131.963 113.194 131.953 113.058C131.947 112.813 131.847 112.579 131.673 112.406C131.485 112.239 131.24 112.153 130.988 112.165C130.861 112.159 130.733 112.179 130.613 112.224C130.494 112.269 130.384 112.339 130.293 112.428C130.089 112.697 129.979 113.027 129.98 113.365V113.365Z" fill="#263238"/>
<path d="M149.056 129.279C148.933 129.278 148.815 129.23 148.726 129.146C148.636 129.061 148.582 128.946 148.574 128.824L145.461 74.6102C145.451 74.5439 145.455 74.4763 145.473 74.4117C145.491 74.3471 145.522 74.2869 145.564 74.235C145.606 74.183 145.659 74.1405 145.719 74.11C145.778 74.0795 145.844 74.0618 145.911 74.058C145.978 74.0542 146.044 74.0643 146.107 74.0878C146.17 74.1113 146.227 74.1476 146.275 74.1944C146.323 74.2412 146.361 74.2974 146.386 74.3596C146.411 74.4217 146.422 74.4884 146.42 74.5554L149.511 128.78C149.518 128.907 149.475 129.032 149.391 129.127C149.307 129.223 149.189 129.281 149.062 129.29L149.056 129.279Z" fill="#A38F78"/>
<path d="M150.59 156.383C150.469 156.383 150.351 156.337 150.263 156.253C150.174 156.169 150.121 156.055 150.114 155.933L148.552 128.824C148.556 128.704 148.605 128.589 148.689 128.503C148.773 128.417 148.886 128.365 149.006 128.358C149.127 128.351 149.245 128.39 149.338 128.466C149.432 128.542 149.493 128.65 149.511 128.769L151.073 155.879C151.079 156.006 151.034 156.13 150.949 156.224C150.864 156.319 150.745 156.376 150.618 156.383H150.59Z" fill="#E0E0E0"/>
<path d="M146.93 74.5828C146.939 74.7132 146.921 74.844 146.877 74.9671C146.833 75.0902 146.764 75.2029 146.675 75.2981C146.585 75.3933 146.477 75.469 146.357 75.5203C146.236 75.5717 146.107 75.5977 145.976 75.5966C145.699 75.5974 145.432 75.4933 145.229 75.3052C145.026 75.1171 144.901 74.859 144.88 74.5828C144.871 74.452 144.889 74.3206 144.933 74.1972C144.978 74.0737 145.047 73.9607 145.137 73.8655C145.227 73.7702 145.336 73.6946 145.457 73.6436C145.578 73.5926 145.708 73.5672 145.839 73.569C146.115 73.5696 146.381 73.6743 146.583 73.8623C146.785 74.0502 146.909 74.3075 146.93 74.5828V74.5828Z" fill="white"/>
<path d="M145.976 76.0788C145.58 76.0742 145.201 75.9204 144.913 75.6481C144.626 75.3759 144.452 75.0052 144.425 74.6102C144.412 74.414 144.439 74.2172 144.505 74.032C144.571 73.8468 144.675 73.6774 144.81 73.5343C144.945 73.3912 145.108 73.2775 145.289 73.2005C145.47 73.1235 145.665 73.0848 145.861 73.0867C146.257 73.0927 146.636 73.2469 146.923 73.5189C147.21 73.7909 147.385 74.1608 147.412 74.5554V74.5554C147.428 74.7551 147.401 74.9559 147.334 75.1447C147.267 75.3335 147.161 75.5061 147.023 75.6514C146.887 75.7911 146.725 75.9012 146.544 75.9747C146.364 76.0483 146.171 76.0838 145.976 76.0788V76.0788ZM145.861 74.0512C145.796 74.0498 145.731 74.0617 145.671 74.0862C145.611 74.1107 145.556 74.1473 145.51 74.1937C145.464 74.2412 145.429 74.2982 145.408 74.3606C145.386 74.4231 145.378 74.4896 145.384 74.5554C145.399 74.7033 145.467 74.8406 145.576 74.9416C145.685 75.0425 145.828 75.1001 145.976 75.1034C146.041 75.1048 146.106 75.0929 146.166 75.0684C146.227 75.0439 146.281 75.0073 146.327 74.9609C146.371 74.9119 146.404 74.8547 146.426 74.7926C146.448 74.7306 146.457 74.6648 146.453 74.5992C146.438 74.4514 146.37 74.314 146.261 74.213C146.152 74.1121 146.01 74.0545 145.861 74.0512V74.0512Z" fill="#A38F78"/>
<path d="M148.508 101.692C148.516 101.823 148.498 101.954 148.453 102.077C148.409 102.2 148.339 102.313 148.249 102.408C148.159 102.503 148.051 102.579 147.93 102.63C147.81 102.681 147.68 102.707 147.549 102.706C147.272 102.707 147.005 102.603 146.802 102.415C146.598 102.227 146.474 101.969 146.453 101.692C146.443 101.562 146.461 101.431 146.504 101.307C146.548 101.184 146.617 101.071 146.706 100.975C146.796 100.88 146.905 100.804 147.025 100.753C147.146 100.702 147.276 100.677 147.407 100.679C147.684 100.676 147.953 100.78 148.157 100.968C148.362 101.156 148.487 101.415 148.508 101.692Z" fill="white"/>
<path d="M147.533 103.183C147.138 103.178 146.759 103.025 146.471 102.754C146.184 102.483 146.009 102.114 145.982 101.72C145.967 101.52 145.994 101.319 146.061 101.131C146.128 100.942 146.233 100.769 146.371 100.624C146.505 100.482 146.668 100.369 146.848 100.293C147.028 100.217 147.222 100.178 147.418 100.18C147.813 100.184 148.191 100.337 148.479 100.609C148.766 100.88 148.941 101.249 148.968 101.643V101.643C148.982 101.839 148.955 102.036 148.889 102.22C148.822 102.405 148.719 102.574 148.584 102.717C148.449 102.86 148.286 102.973 148.105 103.049C147.924 103.126 147.729 103.164 147.533 103.161V103.183ZM147.418 101.155C147.352 101.155 147.287 101.168 147.227 101.193C147.167 101.219 147.112 101.256 147.067 101.303C147.022 101.352 146.988 101.409 146.967 101.471C146.945 101.533 146.936 101.599 146.941 101.665C146.955 101.813 147.024 101.95 147.133 102.051C147.242 102.152 147.384 102.21 147.533 102.213C147.598 102.214 147.662 102.201 147.723 102.176C147.783 102.15 147.837 102.113 147.882 102.066C147.926 102.018 147.961 101.962 147.983 101.901C148.005 101.839 148.014 101.774 148.009 101.709C147.996 101.559 147.927 101.42 147.817 101.317C147.707 101.215 147.562 101.157 147.412 101.155H147.418Z" fill="#A38F78"/>
<path d="M150.048 128.78C150.057 128.911 150.039 129.042 149.995 129.166C149.95 129.289 149.881 129.402 149.791 129.497C149.701 129.593 149.592 129.668 149.471 129.719C149.35 129.77 149.22 129.796 149.089 129.794C148.817 129.788 148.556 129.681 148.359 129.493C148.161 129.306 148.041 129.052 148.02 128.78C148.011 128.65 148.029 128.519 148.073 128.396C148.117 128.273 148.186 128.16 148.275 128.065C148.365 127.969 148.473 127.894 148.593 127.842C148.714 127.791 148.843 127.765 148.974 127.766C149.247 127.771 149.509 127.877 149.707 128.065C149.906 128.253 150.027 128.508 150.048 128.78V128.78Z" fill="white"/>
<path d="M149.089 130.292C148.693 130.287 148.314 130.132 148.027 129.86C147.74 129.588 147.565 129.218 147.538 128.824C147.522 128.624 147.549 128.423 147.616 128.234C147.683 128.046 147.789 127.873 147.927 127.728C148.061 127.585 148.223 127.472 148.403 127.395C148.584 127.319 148.778 127.281 148.974 127.284C149.369 127.288 149.748 127.442 150.035 127.713C150.322 127.984 150.497 128.353 150.525 128.747V128.747C150.543 128.947 150.518 129.148 150.452 129.337C150.386 129.526 150.28 129.699 150.141 129.843C150.006 129.986 149.843 130.1 149.662 130.178C149.481 130.255 149.286 130.294 149.089 130.292ZM148.974 128.265C148.909 128.264 148.844 128.276 148.784 128.3C148.724 128.325 148.669 128.361 148.623 128.407C148.535 128.507 148.49 128.637 148.497 128.769C148.513 128.916 148.581 129.053 148.69 129.154C148.799 129.255 148.941 129.313 149.089 129.317C149.154 129.317 149.219 129.305 149.279 129.279C149.34 129.254 149.394 129.216 149.44 129.169C149.486 129.122 149.521 129.065 149.542 129.002C149.564 128.94 149.572 128.873 149.566 128.807V128.807C149.55 128.66 149.481 128.524 149.372 128.425C149.263 128.325 149.121 128.268 148.974 128.265V128.265Z" fill="#E0E0E0"/>
<path d="M151.604 155.906C151.613 156.036 151.595 156.167 151.551 156.29C151.507 156.413 151.439 156.526 151.349 156.621C151.259 156.717 151.151 156.792 151.031 156.844C150.911 156.895 150.781 156.921 150.651 156.92C150.374 156.921 150.107 156.816 149.903 156.628C149.7 156.44 149.575 156.182 149.555 155.906C149.546 155.775 149.564 155.644 149.608 155.52C149.652 155.397 149.722 155.284 149.812 155.189C149.902 155.093 150.011 155.018 150.132 154.967C150.252 154.916 150.383 154.89 150.514 154.892C150.79 154.893 151.055 154.998 151.258 155.185C151.46 155.373 151.583 155.631 151.604 155.906V155.906Z" fill="white"/>
<path d="M150.651 157.397C150.256 157.392 149.877 157.239 149.59 156.968C149.302 156.697 149.127 156.327 149.1 155.933C149.082 155.734 149.106 155.533 149.172 155.344C149.239 155.155 149.345 154.982 149.483 154.837C149.618 154.694 149.782 154.58 149.963 154.503C150.144 154.426 150.339 154.387 150.536 154.388C150.931 154.394 151.31 154.548 151.597 154.82C151.884 155.092 152.059 155.462 152.086 155.857C152.099 156.052 152.072 156.249 152.005 156.433C151.939 156.618 151.835 156.786 151.7 156.929C151.565 157.071 151.402 157.185 151.222 157.261C151.041 157.338 150.847 157.377 150.651 157.375V157.397ZM150.536 155.369C150.47 155.369 150.405 155.381 150.345 155.407C150.285 155.432 150.23 155.47 150.185 155.517C150.139 155.564 150.104 155.621 150.082 155.684C150.06 155.746 150.052 155.813 150.059 155.879C150.074 156.026 150.142 156.164 150.251 156.265C150.36 156.366 150.502 156.423 150.651 156.427C150.716 156.428 150.78 156.416 150.841 156.391C150.901 156.367 150.956 156.33 151.001 156.284C151.089 156.185 151.135 156.055 151.127 155.922C151.114 155.774 151.046 155.635 150.937 155.533C150.828 155.431 150.685 155.372 150.536 155.369V155.369Z" fill="#E0E0E0"/>
<path d="M232.105 84.6769C232.473 85.2249 232.768 85.7346 233.07 86.2716C233.371 86.8087 233.651 87.3293 233.925 87.8608C234.473 88.9239 234.982 90.0145 235.454 91.1159C236.4 93.342 237.16 95.6422 237.728 97.9933L237.92 98.8921L238.013 99.3414V99.451L238.051 99.6812C238.075 99.8263 238.092 99.9727 238.101 100.12C238.119 101.025 237.931 101.922 237.553 102.745C236.993 103.956 236.266 105.083 235.393 106.093C233.836 107.934 232.071 109.589 230.133 111.025L228.379 109.184C229.741 107.455 231.007 105.653 232.171 103.786C232.687 102.967 233.106 102.092 233.421 101.177C233.509 100.947 233.538 100.698 233.503 100.454C233.503 100.454 233.503 100.454 233.503 100.454L233.47 100.361L233.36 99.9716L233.13 99.2044C232.47 97.147 231.679 95.1336 230.763 93.1764C230.308 92.1791 229.809 91.2091 229.316 90.2337C229.064 89.7514 228.806 89.2692 228.543 88.7924C228.28 88.3157 227.995 87.8279 227.76 87.4279L232.105 84.6769Z" fill="#FA7A35"/>
<path d="M229.656 108.203L225.535 108.372L227.179 111.907C227.179 111.907 230.111 111.743 231.212 109.967L229.656 108.203Z" fill="#FA7A35"/>
<path d="M224.516 109.962L225.535 113.129L227.195 111.913L225.535 108.372L224.516 109.962Z" fill="#FA7A35"/>
<path d="M221.978 223.288C222.426 223.276 222.87 223.215 223.305 223.107C223.327 223.102 223.348 223.09 223.364 223.074C223.381 223.057 223.392 223.037 223.398 223.014C223.402 222.991 223.399 222.968 223.391 222.947C223.382 222.925 223.367 222.907 223.348 222.894C223.179 222.778 221.666 221.798 221.08 222.061C221.014 222.091 220.957 222.137 220.915 222.196C220.873 222.254 220.846 222.323 220.839 222.395C220.812 222.507 220.815 222.624 220.848 222.735C220.881 222.845 220.942 222.945 221.025 223.025C221.301 223.224 221.639 223.318 221.978 223.288V223.288ZM222.97 222.937C222.093 223.113 221.441 223.08 221.189 222.85C221.135 222.796 221.096 222.728 221.075 222.654C221.055 222.58 221.055 222.502 221.074 222.428C221.076 222.396 221.086 222.365 221.103 222.338C221.121 222.311 221.145 222.289 221.173 222.274C221.485 222.137 222.357 222.559 222.97 222.937Z" fill="#4A9DF7"/>
<path d="M223.277 223.107C223.297 223.113 223.318 223.113 223.337 223.107C223.355 223.096 223.37 223.081 223.381 223.063C223.391 223.045 223.397 223.024 223.398 223.003C223.398 222.943 223.398 221.496 222.85 221.014C222.783 220.953 222.704 220.907 222.618 220.879C222.532 220.852 222.441 220.843 222.351 220.855C222.256 220.858 222.164 220.892 222.091 220.952C222.017 221.013 221.966 221.096 221.945 221.189C221.825 221.737 222.724 222.833 223.195 223.107C223.221 223.117 223.251 223.117 223.277 223.107V223.107ZM222.455 221.074C222.551 221.076 222.642 221.113 222.713 221.178C223.036 221.469 223.135 222.274 223.157 222.762C222.685 222.378 222.126 221.567 222.203 221.222C222.203 221.167 222.247 221.096 222.4 221.08L222.455 221.074Z" fill="#4A9DF7"/>
<path d="M184.013 221.052C184.034 221.053 184.055 221.049 184.074 221.041C184.093 221.032 184.109 221.019 184.122 221.003C184.137 220.983 184.145 220.959 184.145 220.934C184.145 220.91 184.137 220.886 184.122 220.866C183.969 220.669 182.621 218.975 181.892 218.926H181.843C181.777 218.927 181.712 218.945 181.656 218.979C181.599 219.013 181.552 219.06 181.519 219.118C181.46 219.205 181.425 219.305 181.415 219.409C181.405 219.514 181.422 219.619 181.465 219.715C181.755 220.384 183.174 220.811 183.996 221.047L184.013 221.052ZM181.881 219.162C182.281 219.189 183.125 220.038 183.701 220.729C182.605 220.406 181.848 220.006 181.684 219.633C181.656 219.569 181.646 219.5 181.652 219.431C181.659 219.362 181.683 219.296 181.722 219.238C181.735 219.215 181.754 219.195 181.777 219.182C181.801 219.168 181.827 219.161 181.854 219.162H181.881Z" fill="#4A9DF7"/>
<path d="M184.013 221.052C184.033 221.05 184.053 221.042 184.069 221.029C184.086 221.017 184.098 221 184.106 220.981C184.106 220.932 184.605 219.699 184.254 218.964C184.203 218.856 184.131 218.758 184.041 218.678C183.952 218.598 183.847 218.537 183.733 218.499C183.416 218.383 183.251 218.499 183.185 218.597C182.851 219.052 183.476 220.515 183.914 221.014C183.927 221.027 183.942 221.038 183.959 221.044C183.976 221.051 183.995 221.054 184.013 221.052ZM183.536 218.674C183.648 218.687 183.755 218.729 183.846 218.795C183.937 218.861 184.01 218.95 184.057 219.052C184.213 219.594 184.186 220.171 183.98 220.696C183.575 220.11 183.202 219.014 183.399 218.74C183.41 218.713 183.429 218.69 183.454 218.674C183.478 218.659 183.507 218.651 183.536 218.652V218.674Z" fill="#4A9DF7"/>
<path d="M220.126 67.5903C219.578 70.5715 218.285 77.0872 220.378 79.0271C220.378 79.0271 219.584 82.063 214.049 82.1726C207.961 82.2877 211.123 79.2134 211.123 79.2134C214.438 78.3531 214.339 75.898 213.747 73.5964L220.126 67.5903Z" fill="#FA7A35"/>
<path d="M221.206 76.2487C221.054 75.851 220.754 75.5277 220.368 75.3468C219.983 75.1659 219.543 75.1415 219.14 75.2787C217.237 75.8677 215.27 76.2247 213.282 76.3418C212.926 76.365 212.583 76.4777 212.283 76.6693C211.983 76.8609 211.737 77.1253 211.566 77.4378L209.215 81.5807L222.62 79.9367L221.206 76.2487Z" fill="#4A9DF7"/>
<path d="M207.867 62.6419C207.903 62.6321 207.937 62.6154 207.966 62.5925C208.015 62.5528 208.046 62.4956 208.053 62.4332C208.06 62.3708 208.043 62.308 208.004 62.2583C207.778 61.9585 207.482 61.7184 207.142 61.5589C206.802 61.3994 206.429 61.3253 206.053 61.3431C205.99 61.35 205.933 61.3815 205.893 61.4307C205.853 61.48 205.834 61.543 205.84 61.6061C205.842 61.6369 205.851 61.6669 205.866 61.6941C205.88 61.7214 205.9 61.7455 205.924 61.7649C205.948 61.7844 205.976 61.7988 206.006 61.8073C206.036 61.8158 206.067 61.8182 206.097 61.8144V61.8144C206.394 61.8079 206.688 61.8721 206.955 62.0017C207.221 62.1313 207.453 62.3226 207.632 62.5597C207.66 62.5935 207.697 62.6191 207.738 62.6336C207.78 62.6481 207.824 62.6509 207.867 62.6419V62.6419Z" fill="#263238"/>
<path d="M206.596 65.5792C206.314 66.5443 205.901 67.4663 205.369 68.3192C205.587 68.4458 205.831 68.5232 206.083 68.5459C206.335 68.5686 206.588 68.5361 206.826 68.4507L206.596 65.5792Z" fill="#FF5652"/>
<path d="M206.925 64.8503C206.958 65.2558 206.766 65.6011 206.503 65.6285C206.24 65.6559 206.004 65.3435 205.955 64.938C205.905 64.5325 206.108 64.1872 206.371 64.1653C206.634 64.1434 206.892 64.4448 206.925 64.8503Z" fill="#263238"/>
<path d="M206.503 64.1763L205.516 63.9899C205.516 63.9899 206.075 64.6968 206.503 64.1763Z" fill="#263238"/>
<path d="M188.802 224.214L183.942 222.543L187.372 211.731L192.227 213.408L188.802 224.214Z" fill="#FA7A35"/>
<path d="M228.889 223.146H223.869L223.414 211.528H228.434L228.889 223.146Z" fill="#FA7A35"/>
<path d="M223.71 222.411H229.344C229.439 222.41 229.532 222.444 229.605 222.507C229.677 222.569 229.725 222.656 229.738 222.751L230.319 227.212C230.329 227.325 230.315 227.439 230.279 227.547C230.242 227.655 230.184 227.754 230.107 227.838C230.03 227.922 229.937 227.989 229.833 228.035C229.729 228.081 229.616 228.105 229.502 228.105C227.535 228.072 226.593 227.957 224.116 227.957C222.587 227.957 220.362 228.11 218.252 228.11C216.142 228.11 216.06 226.034 216.948 225.842C220.888 224.998 221.524 223.831 222.866 222.718C223.104 222.522 223.402 222.414 223.71 222.411V222.411Z" fill="#263238"/>
<path d="M184.577 220.57L189.789 223.02C189.879 223.056 189.953 223.126 189.994 223.214C190.036 223.302 190.043 223.403 190.014 223.496L188.671 227.683C188.629 227.789 188.565 227.885 188.483 227.964C188.402 228.044 188.304 228.106 188.198 228.146C188.091 228.187 187.977 228.204 187.863 228.198C187.75 228.192 187.638 228.162 187.537 228.111C185.734 227.228 184.906 226.713 182.605 225.639C181.191 224.976 178.221 223.743 176.259 222.828C174.297 221.913 175.113 220.038 176.007 220.252C180.007 221.222 181.947 220.871 183.679 220.471C183.981 220.404 184.297 220.439 184.577 220.57V220.57Z" fill="#263238"/>
<path opacity="0.2" d="M187.372 211.736L185.531 217.523L190.463 218.981L192.233 213.408L187.372 211.736Z" fill="black"/>
<path opacity="0.2" d="M228.434 211.533H223.414L223.65 217.518H228.669L228.434 211.533Z" fill="black"/>
<path d="M230.187 79.6627C232.275 80.0792 234.544 87.5266 234.544 87.5266L228.686 93.8998C228.686 93.8998 223.754 86.9621 224.735 84.3536C225.776 81.652 227.721 79.175 230.187 79.6627Z" fill="#4A9DF7"/>
<path opacity="0.4" d="M230.187 79.6627C232.275 80.0792 234.544 87.5266 234.544 87.5266L228.686 93.8998C228.686 93.8998 223.754 86.9621 224.735 84.3536C225.776 81.652 227.721 79.175 230.187 79.6627Z" fill="white"/>
<path opacity="0.4" d="M226.91 84.4961C225.853 83.5535 225.14 83.8549 224.658 84.6276C224.192 86.8634 227.058 91.4666 228.215 93.2093C228.73 91.094 229.311 86.6388 226.91 84.4961Z" fill="#4A9DF7"/>
<path d="M203.39 81.3944C203.018 83.5864 202.935 90.2665 206.36 110.526L226.746 110.126C226.357 101.846 226.319 96.7384 230.187 79.6627C227.327 79.1297 224.431 78.8055 221.524 78.6928C218.438 78.534 215.345 78.5963 212.268 78.8791C209.303 79.2024 206.048 79.8491 204.596 80.156C204.293 80.2167 204.016 80.3674 203.801 80.5885C203.586 80.8095 203.443 81.0905 203.39 81.3944V81.3944Z" fill="#4A9DF7"/>
<path opacity="0.4" d="M203.39 81.3944C203.018 83.5864 202.935 90.2665 206.36 110.526L226.746 110.126C226.357 101.846 226.319 96.7384 230.187 79.6627C227.327 79.1297 224.431 78.8055 221.524 78.6928C218.438 78.534 215.345 78.5963 212.268 78.8791C209.303 79.2024 206.048 79.8491 204.596 80.156C204.293 80.2167 204.016 80.3674 203.801 80.5885C203.586 80.8095 203.443 81.0905 203.39 81.3944V81.3944Z" fill="white"/>
<path d="M220.345 62.187C220.439 67.1684 220.587 69.2782 218.296 72.051C214.849 76.2323 208.728 75.339 207.15 70.5057C205.725 66.1546 205.807 58.7346 210.487 56.3015C211.506 55.7557 212.649 55.483 213.804 55.5098C214.96 55.5366 216.089 55.8622 217.082 56.4547C218.074 57.0472 218.896 57.8866 219.468 58.8911C220.04 59.8956 220.342 61.0311 220.345 62.187V62.187Z" fill="#FA7A35"/>
<path d="M206.503 60.8882C210.465 60.0991 215.665 58.7565 216.701 55.8631C217.737 52.9696 206.01 50.7119 206.503 60.8882Z" fill="#263238"/>
<path d="M209.55 62.198C209.002 61.9185 207.966 60.1813 208.607 57.1564C209.248 54.1314 214.027 51.4188 217.77 53.5505C213.813 55.074 209.55 62.198 209.55 62.198Z" fill="#4A9DF7"/>
<path d="M209.215 59.0634C208.547 61.8637 209.215 63.8639 210.311 64.8942C210.311 64.8942 207.571 82.9453 221.271 80.9834C234.971 79.0216 226.987 58.5154 223.781 55.5069C220.576 52.4984 211.983 51.0133 209.215 59.0634Z" fill="#263238"/>
<path d="M209.298 63.42C208.738 64.3191 208.477 65.3722 208.552 66.4285C208.651 67.7656 209.698 67.7656 210.465 66.9765C211.232 66.1874 211.906 64.527 211.517 63.5077C211.128 62.4884 209.884 62.472 209.298 63.42Z" fill="#FA7A35"/>
<path d="M211.747 110.417C211.747 110.417 214.854 144.754 217.989 164.082C220.521 179.689 222.663 216.208 222.663 216.208H229.502C229.502 216.208 231.733 180.588 230.407 165.101C227.042 125.98 233.097 122.325 226.746 110.126L211.747 110.417Z" fill="#4A9DF7"/>
<path opacity="0.4" d="M218.701 121.897C216.92 124.517 214.542 127.536 213.769 130.725C214.383 136.518 215.101 142.924 215.879 149.083C217.764 143.905 220.986 133.553 218.701 121.897Z" fill="black"/>
<path d="M206.36 110.526C206.36 110.526 198.19 147.472 195.4 162.526C192.485 178.188 185.728 213.676 185.728 213.676L192.551 217.183C192.551 217.183 205.155 174.439 206.843 166.559C211.292 150.086 225.54 110.17 225.54 110.17L206.36 110.526Z" fill="#4A9DF7"/>
<path d="M184.309 215.139L192.6 218.444L194.211 215.556L185.339 212.01L184.309 215.139Z" fill="#263238"/>
<path d="M221.726 216.345H230.434L230.938 213.287L221.721 212.975L221.726 216.345Z" fill="#263238"/>
<path d="M227.047 108.926L227.979 110.729C228.05 110.866 227.88 111.014 227.645 111.019L206.273 111.441C206.086 111.441 205.933 111.354 205.922 111.239L205.73 109.425C205.73 109.299 205.873 109.189 206.075 109.184L226.719 108.778C226.782 108.771 226.845 108.781 226.903 108.807C226.961 108.833 227.011 108.874 227.047 108.926V108.926Z" fill="#263238"/>
<path d="M224.285 111.282H224.833C224.943 111.282 225.031 111.222 225.02 111.156L224.746 108.794C224.746 108.723 224.642 108.668 224.532 108.668H223.984C223.874 108.668 223.792 108.729 223.798 108.8L224.072 111.162C224.083 111.244 224.176 111.288 224.285 111.282Z" fill="#4A9DF7"/>
<path d="M210.887 111.545H211.435C211.544 111.545 211.627 111.485 211.616 111.419L211.347 109.057C211.347 108.986 211.243 108.931 211.128 108.931H210.58C210.465 108.931 210.383 108.992 210.394 109.063L210.662 111.425C210.679 111.496 210.777 111.551 210.887 111.545Z" fill="#4A9DF7"/>
<path d="M206.793 86.1236C205.668 88.485 204.398 90.7745 202.99 92.9791C202.283 94.0751 201.56 95.1711 200.754 96.2671C200.371 96.8151 199.938 97.3248 199.527 97.8508C199.116 98.3769 198.65 98.8866 198.168 99.3852C197.661 99.9344 197.111 100.442 196.524 100.903C195.954 101.346 195.358 101.752 194.737 102.12C193.56 102.814 192.331 103.415 191.06 103.917C188.606 104.886 186.056 105.593 183.454 106.027L182.796 103.577C185.046 102.639 187.241 101.576 189.372 100.394C190.396 99.8294 191.381 99.1978 192.321 98.503C192.758 98.1797 193.175 97.8302 193.57 97.4563C193.955 97.0992 194.307 96.7086 194.622 96.289C196.094 94.4073 197.43 92.4241 198.623 90.3542C199.253 89.3075 199.834 88.2279 200.426 87.1539C201.017 86.0798 201.593 84.9619 202.13 83.9261L206.793 86.1236Z" fill="#FA7A35"/>
<path d="M204.881 80.0792C200.064 81.1205 198.442 88.1677 198.442 88.1677L204.59 93.4669C204.59 93.4669 210.848 87.0334 210.618 83.17C210.47 80.2984 207.506 79.5148 204.881 80.0792Z" fill="#4A9DF7"/>
<path opacity="0.4" d="M204.881 80.0792C200.064 81.1205 198.442 88.1677 198.442 88.1677L204.59 93.4669C204.59 93.4669 210.848 87.0334 210.618 83.17C210.47 80.2984 207.506 79.5148 204.881 80.0792Z" fill="white"/>
<path d="M185.317 105.621L180.445 108.093L178.637 103.928C178.637 103.928 182.95 102.931 184.802 103.857L185.317 105.621Z" fill="#FA7A35"/>
<path d="M178.588 108.948L176.697 106.126L178.637 103.928L180.445 108.093L178.588 108.948Z" fill="#FA7A35"/>
</svg>
