<?xml version="1.0" encoding="UTF-8"?><svg id="b" xmlns="http://www.w3.org/2000/svg" viewBox="0 0 62.28 25.92"><defs><style>.e{fill:#000091;}.f{fill:#0071bc;}.g{fill:#c9191e;}</style></defs><g id="c"><g><path class="e" d="m23.32,7.85V.65h1.84l1.74,2.96,1.74-2.96h1.84v7.2h-1.46V2.73l-1.6,2.65h-1.03l-1.6-2.65v5.12h-1.46Z"/><path class="e" d="m34.71,2.46c.42,0,.8.07,1.15.22s.65.35.9.6c.25.25.44.55.58.89s.21.71.21,1.09-.07.75-.21,1.09-.33.64-.58.89c-.25.25-.55.45-.9.6s-.73.22-1.15.22-.8-.07-1.15-.22-.65-.35-.9-.6-.44-.55-.58-.89-.21-.71-.21-1.09.07-.75.21-1.09.33-.64.58-.89c.25-.25.55-.45.9-.6s.73-.22,1.15-.22Zm.02,4.36c.41,0,.76-.15,1.04-.45.28-.3.42-.67.42-1.12s-.14-.83-.42-1.12c-.28-.29-.63-.44-1.04-.44s-.79.15-1.08.44c-.28.3-.43.67-.43,1.12s.14.83.43,1.12c.28.3.64.44,1.08.44Z"/><path class="e" d="m38.75,7.85V2.67h1.31v.41c.18-.17.39-.32.64-.44.25-.12.55-.18.89-.18.28,0,.54.05.79.14.24.1.46.24.64.43.18.19.33.43.43.72s.16.62.16,1.01v3.09h-1.33v-3.04c0-.34-.09-.62-.27-.82s-.43-.3-.75-.3-.59.09-.78.26c-.19.17-.33.34-.43.51v3.39h-1.31Z"/><path class="e" d="m26.53,15.11c.41,0,.78-.09,1.1-.27.32-.18.58-.42.79-.71l1.15.88c-.33.45-.75.8-1.28,1.07-.52.27-1.11.4-1.76.4-.56,0-1.08-.1-1.55-.31-.47-.21-.88-.48-1.21-.82-.34-.34-.6-.75-.78-1.21-.18-.46-.28-.95-.28-1.47s.09-1,.28-1.47c.19-.46.45-.87.78-1.21.34-.34.74-.62,1.21-.82.47-.21.99-.31,1.55-.31.65,0,1.24.14,1.76.41.52.27.95.62,1.28,1.05l-1.15.9c-.21-.3-.47-.53-.79-.72s-.68-.27-1.1-.27c-.34,0-.65.06-.94.19-.29.13-.53.3-.74.51-.2.22-.36.47-.48.77-.12.3-.17.62-.17.96s.06.66.17.96c.12.3.28.56.48.77.2.22.45.39.74.51.29.13.6.19.94.19Z"/><path class="e" d="m33.03,10.88c.42,0,.8.07,1.15.22s.65.35.9.6c.25.25.44.55.58.89s.21.71.21,1.09-.07.75-.21,1.09-.33.64-.58.89c-.25.25-.55.45-.9.6s-.73.22-1.15.22-.8-.07-1.15-.22-.65-.35-.9-.6-.44-.55-.58-.89-.21-.71-.21-1.09.07-.75.21-1.09.33-.64.58-.89c.25-.25.55-.45.9-.6s.73-.22,1.15-.22Zm.02,4.36c.41,0,.76-.15,1.04-.45.28-.3.42-.67.42-1.12s-.14-.83-.42-1.12c-.28-.29-.63-.44-1.04-.44s-.79.15-1.08.44c-.28.3-.43.67-.43,1.12s.14.83.43,1.12c.28.3.64.44,1.08.44Z"/><path class="e" d="m37.06,16.27v-5.19h1.31v.39c.17-.17.37-.31.61-.43s.51-.17.82-.17c.34,0,.65.08.93.23.28.15.51.38.68.67.19-.23.42-.44.69-.63.27-.19.6-.28,1.01-.28.27,0,.52.05.75.14.23.09.43.23.61.41s.31.41.41.69.15.6.15.96v3.19h-1.32v-3.14c0-.32-.08-.56-.24-.75-.16-.18-.39-.27-.68-.27-.27,0-.5.08-.67.24-.17.16-.31.33-.41.5,0,.03.01.07.01.11v3.3h-1.33v-3.14c0-.32-.08-.56-.24-.75s-.38-.27-.68-.27-.53.09-.7.26-.31.34-.4.51v3.39h-1.31Z"/><path class="e" d="m46.52,18.8v-7.72h1.31v.37c.21-.19.44-.33.71-.43s.57-.15.91-.15c.41,0,.78.08,1.11.23.33.15.6.35.83.61.23.25.4.55.52.89.12.34.18.7.18,1.08s-.06.74-.18,1.08c-.12.34-.29.64-.52.89-.23.25-.5.46-.83.61-.33.15-.69.23-1.11.23-.34,0-.64-.05-.91-.15-.27-.1-.5-.24-.71-.43v2.9h-1.31Zm1.32-4.34c.17.25.38.45.61.58s.51.2.81.2c.44,0,.79-.15,1.06-.44.27-.29.4-.67.4-1.12s-.13-.83-.4-1.12c-.27-.29-.62-.44-1.06-.44-.3,0-.57.07-.81.2s-.44.33-.61.58h-.01s0,1.57,0,1.57h.01Z"/><path class="e" d="m53.53,14.38v-2.1h-.97v-1.19h.97v-1.3h1.32v1.3h1.58v1.19h-1.58v2.1c0,.29.07.49.22.62.15.12.35.18.6.18.18,0,.33-.01.45-.03.12-.02.23-.05.32-.08v1.14c-.13.05-.28.1-.44.12-.16.03-.35.04-.56.04-.64,0-1.13-.17-1.44-.52-.32-.35-.47-.84-.47-1.47Z"/><path class="e" d="m62.28,15.43c-.24.32-.56.58-.95.77s-.83.28-1.32.28c-.46,0-.87-.08-1.23-.23-.36-.15-.66-.35-.91-.61-.24-.25-.43-.55-.56-.89-.13-.34-.19-.7-.19-1.08s.06-.75.18-1.09c.12-.34.29-.64.52-.89.23-.25.5-.45.83-.6.33-.15.71-.22,1.13-.22.71,0,1.29.22,1.73.65.44.44.66.99.66,1.67,0,.14,0,.28-.03.41s-.04.24-.06.33h-3.63c.04.43.2.76.48,1s.64.36,1.08.36c.28,0,.54-.06.76-.17.23-.11.41-.26.55-.45l.94.74Zm-2.48-3.46c-.32,0-.58.08-.79.24-.21.16-.36.41-.45.75h2.34c0-.25-.11-.48-.29-.68-.19-.2-.45-.3-.8-.3Z"/><path class="e" d="m23.32,24.69v-7.2h2.38c.79,0,1.41.19,1.87.58.46.38.68.91.68,1.57s-.23,1.18-.68,1.56c-.46.38-1.08.58-1.87.58h-.92v2.91h-1.46Zm2.44-5.96h-.98v1.8h.98c.31,0,.55-.08.73-.24.17-.16.26-.38.26-.68,0-.27-.09-.49-.26-.65-.18-.16-.42-.24-.73-.24Z"/><path class="e" d="m29.26,24.69v-5.19h1.31v.51c.17-.17.37-.32.59-.44s.48-.18.78-.18c.09,0,.17,0,.25.02s.14.03.21.05v1.37c-.08-.02-.17-.04-.26-.05s-.2-.02-.31-.02c-.32,0-.58.07-.79.22s-.36.3-.46.45v3.25h-1.31Z"/><path class="e" d="m35.76,19.3c.42,0,.8.07,1.15.22s.65.35.9.6c.25.25.44.55.58.89s.21.71.21,1.09-.07.75-.21,1.09-.33.64-.58.89c-.25.25-.55.45-.9.6s-.73.22-1.15.22-.8-.07-1.15-.22-.65-.35-.9-.6-.44-.55-.58-.89-.21-.71-.21-1.09.07-.75.21-1.09.33-.64.58-.89c.25-.25.55-.45.9-.6s.73-.22,1.15-.22Zm.02,4.36c.41,0,.76-.15,1.04-.45.28-.3.42-.67.42-1.12s-.14-.83-.42-1.12c-.28-.29-.63-.44-1.04-.44s-.79.15-1.08.44c-.28.3-.43.67-.43,1.12s.14.83.43,1.12c.28.3.64.44,1.08.44Z"/></g></g><g id="d"><g><path class="g" d="m5.87,21.62c-.01-.3.05-.59.18-.86l3.75-7.45c.11-.22.05-.46-.11-.64-1.41-1.46-1.69-3.74-.32-5.5.91-1.17,2.46-1.8,3.98-1.68-1.79.98-2.96,2.86-2.85,4.97.08,1.49.79,2.8,1.87,3.72-.04.03-.09.06-.12.12l-1.34,2.66c-.31.2-1.34-.22-1.5.1-.16.32.82.82.86,1.18.01.12-.12.34-.21.42-.26.21-1.18.05-1.33.35s.7.74.69,1.07c0,.22-.14.38-.33.5-.31.2-1-.07-1.16.25-.16.32.49.67.52,1.02.02.19-.18.59-.35.7-.62.4-1.77.83-1.77.83-.16.04-.42-.49-.41-.72l-.05-1.03Z"/><g><path class="e" d="m11.83,2.45c.12.07.3.04.37-.09.71-1.13,1.99-1.83,3.32-1.83,2.17,0,3.93,1.75,3.93,3.92,0,.88-.3,1.69-.79,2.35-.44.6-1.06,1.06-1.78,1.32-.42.16-.88.25-1.36.25-.14,0-.25.12-.25.26,0,.14.11.26.25.26.53,0,1.02-.09,1.48-.26.41-.14.78-.34,1.11-.58.18-.12.34-.26.49-.41.14-.16.28-.32.42-.48.6-.74.95-1.69.95-2.72,0-2.45-1.99-4.44-4.46-4.44-1.52,0-2.96.79-3.76,2.08-.09.12-.05.28.07.37Z"/><path class="e" d="m11.12,9.31c.35-1.79,1.87-3.25,3.71-3.56,1.33-.22,2.57.13,3.53.82-.43.56-1.01.99-1.69,1.23-.25-.29-.6-.48-1.02-.48-.73,0-1.33.59-1.33,1.31,0,.71.6,1.3,1.33,1.3.6,0,1.09-.39,1.26-.91.94-.29,1.76-.85,2.36-1.61.62.77.99,1.73.99,2.78,0,1.93-1.24,3.59-3,4.22-.16.06-.27.2-.27.37v3.1c-.19.32-1.31.37-1.31.74,0,.37,1.12.42,1.31.74.06.11.05.37,0,.49-.14.31-1.05.56-1.05.91,0,.34.97.4,1.12.71.1.21.05.42-.07.61-.19.32-.94.37-.94.74,0,.37.75.42.94.74.1.18.1.64,0,.81-.38.64-1.23,1.55-1.23,1.55-.13.11-.6-.29-.7-.5l-.52-.95c-.15-.27-.23-.58-.23-.89v-8.65c0-.25-.16-.46-.39-.55-1.95-.77-3.24-2.79-2.8-5.05Z"/></g><path class="f" d="m7.19,4.62c1.41-1.17,3.51-1.33,5.13-.39.58.34.66.32,1.03.81-1.7-.66-3.3.23-4.52,1.72-1.43,1.74-1.26,4.26.32,5.82-.15-.04-.31-.07-.46-.12-.16-.06-.33-.02-.44.11l-1.97,2.39c-.35.13-1.25-.55-1.48-.26s.6,1.04.54,1.4c-.02.12-.2.32-.31.37-.31.15-1.17-.23-1.39.03s.5.92.41,1.26c-.06.22-.23.35-.44.43-.35.13-.96-.31-1.19-.03s.31.8.25,1.17c-.03.2-.33.56-.52.63-.7.26-1.93.42-1.93.42-.17,0-.28-.6-.22-.83l.2-1.06c.06-.31.19-.59.39-.83l5.49-6.68c.16-.19.17-.46.05-.68-1.02-1.83-.73-4.21,1.04-5.68Z"/></g></g></svg>