<svg width="396" height="89" viewBox="0 0 396 89" fill="none" xmlns="http://www.w3.org/2000/svg">
    <g filter="url(#filter0_d_155_72825)">
        <g clip-path="url(#clip0_155_72825)">
            <path d="M65.3676 27.6008L39.9628 13.0782L14.558 27.7413C14.4012 27.8295 14.2707 27.9571 14.1797 28.1111C14.0886 28.265 14.0403 28.4399 14.0396 28.6183V56.9838C14.0495 57.16 14.1016 57.3314 14.1918 57.4839C14.2819 57.6365 14.4075 57.7656 14.558 57.8608L39.9594 72.2544L65.3643 57.6834C65.5149 57.5883 65.6404 57.4591 65.7307 57.3067C65.8209 57.1542 65.8729 56.9826 65.8827 56.8064V28.4845C65.8837 28.3052 65.8365 28.1291 65.746 27.9738C65.6555 27.8187 65.5249 27.6898 65.3676 27.6008Z" fill="#000091"/>
            <path d="M30.8864 28.4376L22.3656 42.8781L14.6445 27.5221L23.777 22.3119L31.3828 27.6008L30.8864 28.4376ZM65.8845 56.8566V28.4744C65.8845 28.2962 65.8364 28.1211 65.7454 27.9673C65.6543 27.8135 65.5233 27.6864 65.3661 27.5991L39.9629 13.0782" fill="#E1000F"/>
            <path d="M14.0429 56.8566L39.9662 13.0782V72.2628L14.558 57.8608C14.4075 57.7656 14.2819 57.6365 14.1918 57.4839C14.1016 57.3314 14.0495 57.16 14.0396 56.9838V28.6183L14.0429 56.8566ZM55.8404 22.1529L65.0881 27.4334L57.4822 42.7475L48.3549 27.2894L55.8404 22.1529Z" fill="#006ADC"/>
            <path d="M73.1853 22.9228L40.6711 4.47887C40.4522 4.37114 40.2109 4.31506 39.9662 4.31506C39.7216 4.31506 39.4803 4.37114 39.2614 4.47887L6.74716 22.9228C6.55144 23.0515 6.38907 23.2238 6.27311 23.4258C6.15716 23.6279 6.09087 23.8541 6.07959 24.086V60.9069C6.08956 61.1402 6.15523 61.368 6.27124 61.5717C6.38725 61.7752 6.55032 61.9489 6.74716 62.0785L39.2597 80.5224C39.4786 80.63 39.7199 80.6861 39.9645 80.6861C40.2092 80.6861 40.4505 80.63 40.6694 80.5224L73.1853 62.0785C73.3822 61.9489 73.5452 61.7752 73.6612 61.5717C73.7773 61.368 73.8429 61.1402 73.8529 60.9069V24.086C73.8415 23.8541 73.7753 23.6279 73.6594 23.4258C73.5433 23.2238 73.381 23.0515 73.1853 22.9228ZM24.3597 52.6406H24.4936C24.4224 52.6406 24.3597 52.6523 24.3597 52.7243C24.3597 52.8917 24.6156 52.7243 24.6986 52.8917C24.296 52.9025 23.9136 53.0682 23.6329 53.3536C23.6329 53.439 23.8023 53.439 23.8887 53.439C23.7616 53.6063 23.5058 53.5226 23.4194 53.6917C23.4653 53.7369 23.5246 53.7662 23.5888 53.7754C23.5041 53.7754 23.4194 53.7754 23.4194 53.8607V54.1135C23.2059 54.1135 23.1212 54.2808 22.9501 54.3662C23.2889 54.6189 23.5041 54.3662 23.8447 54.3662C22.9501 54.7009 22.2249 55.1662 21.3303 55.4189C21.1608 55.4189 21.3303 55.6716 21.1608 55.6716C21.4167 55.839 21.5455 55.588 21.7996 55.588C20.6915 56.2189 19.5411 56.7595 18.3482 57.4826C18.2563 57.5729 18.1968 57.6904 18.1788 57.8173H17.8399C17.6705 57.901 17.7552 58.1119 17.5841 58.2809C17.967 58.5336 18.4313 57.9462 18.6922 58.2809C18.7769 58.2809 18.5228 58.3646 18.3533 58.3646C18.2686 58.3646 18.2686 58.532 18.1839 58.532H17.923C17.7535 58.6575 17.5841 58.7428 17.5841 58.9939C17.5106 58.9805 17.4348 58.9892 17.3665 59.019C17.2981 59.049 17.2405 59.0985 17.2012 59.1613C19.0209 59.1541 20.8248 58.8265 22.5282 58.1939C23.8492 57.5294 25.0456 56.6469 26.0659 55.5846C26.1118 55.6298 26.1415 55.6885 26.1506 55.752C25.9014 56.4825 25.4231 57.1155 24.785 57.5596C24.3157 57.8123 23.9751 58.1905 23.599 58.3596C23.3477 58.4983 23.1054 58.6526 22.8738 58.8215C21.8025 59.1507 20.7027 59.3815 19.5885 59.5111L19.0717 59.5847C18.6905 59.6399 18.311 59.7002 17.9348 59.7655L14.558 57.8608C14.4345 57.784 14.3277 57.6836 14.2439 57.5654C14.1601 57.4472 14.101 57.3139 14.0701 57.1729C14.1265 57.143 14.1799 57.1077 14.2293 57.0675C14.1768 57.0124 14.1109 56.9714 14.0379 56.9487V55.8608C15.8134 55.5488 17.5426 55.0192 19.1852 54.2842C17.6311 53.2172 15.8844 52.4542 14.0396 52.0364V49.5008C14.98 49.6529 15.9081 49.8724 16.8166 50.1569C17.5159 50.4106 18.187 50.7348 18.8193 51.1243C19.0677 51.3603 19.339 51.5715 19.6292 51.7552C19.8336 51.8704 20.0621 51.9378 20.2971 51.9524C20.532 51.967 20.7672 51.9281 20.9846 51.8389H21.5438C22.7576 51.6408 23.8929 51.1167 24.8257 50.3243C24.8257 50.4079 24.9104 50.4079 24.9951 50.4079C24.8624 51.0751 24.6173 51.7154 24.2699 52.3025C24.275 52.3879 24.1886 52.5569 24.3597 52.6406ZM29.1327 58.6173C29.5579 58.45 29.8104 58.1537 30.1984 57.9863C30.1137 58.07 30.1137 58.2391 30.029 58.3211C29.7111 58.5172 29.4117 58.7413 29.1344 58.9905C28.1759 59.8249 27.2784 60.7253 26.4488 61.6852C26.0219 62.1873 25.5542 62.6525 25.0934 63.1162C24.93 63.267 24.7543 63.404 24.5681 63.5262L20.2866 61.0994C20.8956 61.1501 21.5087 61.1203 22.1097 61.0107C22.6085 60.8724 23.0934 60.6893 23.5583 60.4634V60.6307C24.7443 60.1671 25.6457 59.1144 26.8402 58.7361C26.8826 58.7361 27.0537 58.9035 27.2232 58.8198C27.53 58.4441 27.9202 58.1432 28.3634 57.94C28.8067 57.7368 29.2914 57.637 29.7799 57.6483C29.7799 57.7319 29.7799 57.8156 29.8646 57.8156H29.907C29.6511 58.0265 29.3529 58.2357 29.0598 58.4466C28.9632 58.5336 29.048 58.6173 29.1327 58.6173ZM14.0396 48.3008V47.9895C14.9175 47.7627 15.8229 47.6567 16.7302 47.6748C16.9984 47.6326 17.2718 47.6326 17.5401 47.6748C16.3446 47.6736 15.1587 47.8857 14.0396 48.3008ZM65.8861 56.8164C65.8763 56.9927 65.8243 57.1642 65.7341 57.3167C65.6438 57.4692 65.5183 57.5984 65.3677 57.6934L48.2905 67.4861C46.3298 66.9318 44.402 66.2697 42.5162 65.5028C42.2429 64.9154 42.0943 64.279 42.0797 63.6328C42.0652 62.9864 42.185 62.3441 42.4315 61.7454C42.5669 61.2299 42.7671 60.7335 43.0279 60.2676C43.0702 60.2257 43.1126 60.1839 43.1126 60.1404C43.1238 60.1404 43.1346 60.1358 43.1426 60.1281C43.1506 60.1203 43.155 60.1096 43.155 60.0985C43.3432 59.773 43.5567 59.4624 43.7937 59.1696L43.8191 59.1445L43.853 59.1094L43.8784 59.0843C43.8784 59.0424 43.9208 59.0006 43.9632 58.9571C44.0055 58.8717 44.0902 58.8299 44.1326 58.7462C44.4301 58.4351 44.7586 58.1547 45.1136 57.9094C45.474 57.7803 45.8447 57.6812 46.2217 57.6131C47.5958 57.713 48.9623 57.8963 50.3135 58.1621C50.4796 58.1867 50.6392 58.2436 50.7828 58.3294C51.293 58.4275 51.8201 58.3989 52.3162 58.2458C52.6397 58.1874 52.9426 58.0479 53.1962 57.8412C53.4499 57.6344 53.6456 57.3667 53.7649 57.0641C53.914 56.7943 53.9992 56.4946 54.0138 56.1875C54.0285 55.8805 53.9723 55.5741 53.8496 55.2917C53.548 54.8298 53.8276 54.5603 54.1563 54.3043L54.2715 54.2122C54.4179 54.1098 54.5495 53.9881 54.6629 53.8507C54.8763 53.4289 54.4934 53.1812 54.407 52.7963C54.3223 52.6289 54.0241 52.7126 53.853 52.4615C54.4494 52.2088 55.3016 51.7435 54.9187 51.0272C54.6629 50.6473 54.2799 49.9728 54.7493 49.5929C55.3457 49.2581 56.1979 49.3401 56.4538 48.7912C56.5375 48.472 56.5358 48.1369 56.449 47.8186C56.3624 47.5003 56.1935 47.2097 55.959 46.9752L55.832 46.7945C55.7049 46.6154 55.5795 46.4363 55.4744 46.2589C55.2052 45.8174 54.9063 45.3941 54.5798 44.9919C54.2071 44.4706 53.9063 43.9027 53.6852 43.3032C53.4294 42.6705 53.7699 42.1216 53.7699 41.4889C53.795 40.2701 53.6076 39.0564 53.2159 37.9006C53.0024 37.3097 52.9177 36.6771 52.6619 36.1281C52.6297 35.7753 52.4968 35.4387 52.2789 35.1574C52.2369 35.0719 52.2149 34.978 52.2149 34.8829C52.2149 34.7879 52.2369 34.694 52.2789 34.6084C52.6263 34.3664 52.9543 34.0985 53.26 33.8067C53.3543 33.6021 53.3721 33.3709 53.3101 33.1545C53.2481 32.9381 53.1102 32.7505 52.9211 32.6251C52.367 32.3724 52.4128 33.1741 52.0265 33.3431H51.7706C51.6859 33.1323 51.8554 33.0469 52.0265 32.8795C52.0265 32.7958 52.0265 32.6268 51.9418 32.6268C51.6029 32.6268 51.303 32.5414 51.2166 32.3741C50.3999 31.3687 49.3042 30.6207 48.0634 30.2217C48.382 30.3183 48.7115 30.3745 49.0445 30.3891C49.6165 30.5086 50.212 30.45 50.749 30.2217C51.1336 30.0945 51.2183 29.42 51.3877 29.0401C51.4221 28.8562 51.417 28.6672 51.373 28.4853C51.3289 28.3034 51.2468 28.1326 51.1319 27.984C50.7471 27.4314 50.2161 26.9937 49.5968 26.7187C49.2986 26.5915 48.8293 26.3388 48.4464 26.1279C48.3159 26.0372 48.1726 25.9661 48.0211 25.917C42.9974 23.4316 32.6552 25.5823 31.8673 25.917H31.8521C31.1261 26.1249 30.4183 26.3909 29.7359 26.712C28.7962 27.0566 27.9477 27.6068 27.2537 28.3213C26.5598 29.0356 26.0385 29.8959 25.7288 30.8376C24.7613 31.4654 23.9816 32.3374 23.4702 33.3632C22.745 34.7022 21.681 35.8888 21.8504 37.4035C22.0199 38.7089 22.3198 39.8872 22.5756 41.2345C22.6484 41.6898 22.7617 42.1378 22.9145 42.5735C23.0839 43.0354 22.9145 43.6262 23.1703 44.0044C23.2974 44.2572 23.2127 44.5517 23.5549 44.7208V45.0555C23.6396 45.1392 23.6396 45.2229 23.8108 45.2229V45.5576C24.5473 46.2664 25.1786 47.0743 25.6864 47.9577C25.8558 48.4196 24.8765 48.2104 24.5004 48.0414C23.7964 47.5886 23.152 47.051 22.5824 46.4413C22.5358 46.4862 22.5054 46.5449 22.496 46.6087C22.8348 47.1978 24.031 47.9142 23.3906 48.2924C23.0517 48.4598 22.6654 48.0397 22.3248 48.3778C22.2401 48.5033 22.3248 48.6723 22.3248 48.8397C21.8555 48.505 21.3455 48.6723 20.8762 48.505C20.5373 48.4213 20.4492 47.7903 20.0663 47.7903C19.0556 47.5466 18.0309 47.3639 16.9979 47.243C16.0217 47.0984 15.0379 47.0095 14.0514 46.9769V28.6183C14.0522 28.4399 14.1005 28.265 14.1915 28.1111C14.2825 27.9571 14.4131 27.8295 14.5699 27.7413L39.9628 13.0782L65.3677 27.6008C65.5245 27.6888 65.6552 27.8163 65.7462 27.9703C65.8373 28.1243 65.8856 28.2993 65.8861 28.4778V56.8164ZM52.4094 42.9902C52.3582 43.0689 52.2872 43.133 52.2035 43.1767C52.1198 43.2203 52.0261 43.2421 51.9316 43.2396C51.7618 43.3808 51.6022 43.5335 51.4538 43.6965C51.6232 43.6965 51.4538 43.9459 51.6232 43.9459C51.2759 44.3191 51.7537 45.1074 51.2759 45.2731C50.6505 45.4386 49.9918 45.4386 49.3664 45.2731C49.4594 45.2533 49.5543 45.2443 49.6493 45.2463H49.7934C49.8996 45.2589 50.0073 45.2455 50.107 45.2068C50.2066 45.1683 50.295 45.1059 50.3643 45.0254V44.6907C50.3643 44.607 50.2779 44.607 50.1949 44.607C50.1503 44.654 50.0902 44.6836 50.0255 44.6907C50.0212 44.6153 49.9941 44.543 49.9475 44.4833C49.9009 44.4235 49.8372 44.379 49.7646 44.3559C49.5394 44.3855 49.3101 44.3593 49.0977 44.2796C48.8854 44.1998 48.6964 44.0691 48.548 43.899C48.7778 43.7899 49.038 43.7604 49.2867 43.8153C49.5036 43.8153 49.4172 43.4421 49.6781 43.2764H49.9391C50.4592 42.6538 51.4148 42.4881 51.5893 41.8655C51.5893 41.6981 51.1115 41.6981 50.7642 41.6161C50.2998 41.5599 49.8289 41.5882 49.3749 41.6998C48.7652 41.7828 48.1676 41.9361 47.5941 42.1567C48.069 41.8123 48.5972 41.5462 49.158 41.3684C49.5517 41.2186 49.9591 41.1065 50.3745 41.0337L50.5982 40.9902L50.8235 40.945C51.1309 40.8543 51.4582 40.8543 51.7656 40.945C52.1569 41.1123 52.8076 41.1123 52.894 41.36C53.0634 41.817 52.6331 42.2722 52.1569 42.6053C52.0604 42.7408 52.4094 42.8312 52.4094 42.9902Z" fill="white"/>
        </g>
        <!--<path d="M54.3999 13.3252C54.3999 12.43 55.1112 11.7043 55.9887 11.7043H83.7931C84.6706 11.7043 85.382 12.43 85.382 13.3252V25.4813C85.382 26.3765 84.6706 27.1022 83.7931 27.1022H55.9887C55.1112 27.1022 54.3999 26.3765 54.3999 25.4813V13.3252Z" fill="#FBD335"/>-->
        <!--<path d="M58.0923 23.8605V14.7839H61.0285C62.003 14.7839 62.7698 15.026 63.3291 15.51C63.8968 15.9941 64.1807 16.6554 64.1807 17.4939C64.1807 18.3238 63.8968 18.9808 63.3291 19.4648C62.7698 19.9489 62.003 20.191 61.0285 20.191H59.8972V23.8605H58.0923ZM61.1047 16.3529H59.8972V18.622H61.1047C61.4861 18.622 61.7826 18.5226 61.9945 18.3238C62.2148 18.125 62.325 17.8397 62.325 17.468C62.325 17.1222 62.2148 16.8499 61.9945 16.6511C61.7826 16.4523 61.4861 16.3529 61.1047 16.3529Z" fill="black"/>-->
        <!--<path d="M65.8006 23.8605V14.7839H68.5207C69.4952 14.7839 70.2663 15.026 70.834 15.51C71.4017 15.9941 71.6856 16.6554 71.6856 17.4939C71.6856 18.0385 71.5585 18.514 71.3043 18.9202C71.0586 19.3179 70.7111 19.6248 70.262 19.8409L73.0584 23.8605H70.8976L68.5334 20.191H67.6055V23.8605H65.8006ZM68.6224 16.3529H67.6055V18.622H68.6224C69.0037 18.622 69.3003 18.5226 69.5121 18.3238C69.7239 18.125 69.8299 17.8397 69.8299 17.468C69.8299 17.1222 69.7239 16.8499 69.5121 16.6511C69.3003 16.4523 69.0037 16.3529 68.6224 16.3529Z" fill="black"/>-->
        <!--<path d="M78.1821 14.5246C78.877 14.5246 79.5125 14.6542 80.0887 14.9136C80.6734 15.1729 81.1733 15.5187 81.5886 15.9509C82.0038 16.3831 82.3258 16.8931 82.5546 17.481C82.7834 18.0601 82.8977 18.6739 82.8977 19.3222C82.8977 19.9705 82.7834 20.5886 82.5546 21.1764C82.3258 21.7556 82.0038 22.2613 81.5886 22.6935C81.1733 23.1257 80.6734 23.4715 80.0887 23.7309C79.5125 23.9902 78.877 24.1198 78.1821 24.1198C77.4873 24.1198 76.8475 23.9902 76.2628 23.7309C75.6781 23.4715 75.1782 23.1257 74.763 22.6935C74.3478 22.2613 74.0258 21.7556 73.797 21.1764C73.5682 20.5886 73.4538 19.9705 73.4538 19.3222C73.4538 18.6739 73.5682 18.0601 73.797 17.481C74.0258 16.8931 74.3478 16.3831 74.763 15.9509C75.1782 15.5187 75.6781 15.1729 76.2628 14.9136C76.8475 14.6542 77.4873 14.5246 78.1821 14.5246ZM78.1821 22.3953C78.5973 22.3953 78.9786 22.3175 79.3261 22.1619C79.682 21.9977 79.9828 21.7815 80.2285 21.5136C80.4827 21.2369 80.6819 20.9128 80.8259 20.5411C80.97 20.1607 81.042 19.7544 81.042 19.3222C81.042 18.89 80.97 18.488 80.8259 18.1163C80.6819 17.736 80.4827 17.4118 80.2285 17.1438C79.9828 16.8672 79.682 16.6511 79.3261 16.4955C78.9786 16.3313 78.5973 16.2491 78.1821 16.2491C77.7669 16.2491 77.3814 16.3313 77.0255 16.4955C76.6696 16.6511 76.3645 16.8672 76.1103 17.1438C75.8646 17.4118 75.6697 17.736 75.5256 18.1163C75.3815 18.488 75.3095 18.89 75.3095 19.3222C75.3095 19.7544 75.3815 20.1607 75.5256 20.5411C75.6697 20.9128 75.8646 21.2369 76.1103 21.5136C76.3645 21.7815 76.6696 21.9977 77.0255 22.1619C77.3814 22.3175 77.7669 22.3953 78.1821 22.3953Z" fill="black"/>-->
        <path d="M97 55.4728V28.5266H103.932L110.477 39.6131L117.022 28.5266H123.954V55.4728H118.455V36.3025L112.414 46.2341H108.541L102.499 36.3025V55.4728H97Z" fill="#000091"/>
        <path d="M139.892 35.3017C141.467 35.3017 142.913 35.584 144.23 36.1486C145.546 36.6875 146.669 37.4317 147.599 38.3812C148.554 39.3051 149.29 40.4086 149.806 41.6918C150.323 42.9749 150.581 44.3351 150.581 45.7722C150.581 47.2093 150.323 48.5695 149.806 49.8526C149.29 51.1358 148.554 52.2521 147.599 53.2016C146.669 54.1255 145.546 54.8697 144.23 55.4343C142.913 55.9732 141.467 56.2427 139.892 56.2427C138.317 56.2427 136.871 55.9732 135.555 55.4343C134.238 54.8697 133.102 54.1255 132.146 53.2016C131.217 52.2521 130.494 51.1358 129.978 49.8526C129.461 48.5695 129.203 47.2093 129.203 45.7722C129.203 44.3351 129.461 42.9749 129.978 41.6918C130.494 40.4086 131.217 39.3051 132.146 38.3812C133.102 37.4317 134.238 36.6875 135.555 36.1486C136.871 35.584 138.317 35.3017 139.892 35.3017ZM139.969 51.6234C141.519 51.6234 142.822 51.0716 143.881 49.9681C144.94 48.8389 145.469 47.4403 145.469 45.7722C145.469 44.0784 144.94 42.6798 143.881 41.5763C142.822 40.4728 141.519 39.921 139.969 39.921C138.343 39.921 136.987 40.4728 135.903 41.5763C134.845 42.6798 134.315 44.0784 134.315 45.7722C134.315 47.466 134.845 48.8646 135.903 49.9681C136.987 51.0716 138.343 51.6234 139.969 51.6234Z" fill="#000091"/>
        <path d="M155.067 55.4728V36.0716H159.985V37.6113C160.657 36.9698 161.457 36.4308 162.386 35.9946C163.342 35.5326 164.465 35.3017 165.756 35.3017C166.814 35.3017 167.795 35.4813 168.699 35.8406C169.628 36.1999 170.429 36.7388 171.1 37.4574C171.797 38.1759 172.339 39.0741 172.727 40.152C173.14 41.2298 173.346 42.4873 173.346 43.9245V55.4728H168.35V44.1169C168.35 42.8338 168.002 41.8201 167.305 41.0759C166.634 40.306 165.704 39.921 164.516 39.921C163.277 39.921 162.296 40.2546 161.573 40.9219C160.876 41.5635 160.347 42.1922 159.985 42.8081V55.4728H155.067Z" fill="#000091"/>
        <path d="M192.06 51.1229C193.609 51.1229 194.977 50.7893 196.165 50.1221C197.378 49.4292 198.372 48.531 199.147 47.4275L203.485 50.738C202.245 52.4061 200.645 53.7406 198.682 54.7414C196.72 55.7423 194.513 56.2427 192.06 56.2427C189.943 56.2427 187.993 55.8578 186.212 55.0879C184.431 54.318 182.907 53.2915 181.642 52.0083C180.377 50.7252 179.396 49.2239 178.699 47.5044C178.002 45.7594 177.653 43.9245 177.653 41.9997C177.653 40.075 178.002 38.2529 178.699 36.5335C179.396 34.7884 180.377 33.2743 181.642 31.9911C182.907 30.708 184.431 29.6815 186.212 28.9116C187.993 28.1417 189.943 27.7567 192.06 27.7567C194.513 27.7567 196.72 28.27 198.682 29.2965C200.645 30.2974 202.245 31.6062 203.485 33.223L199.147 36.572C198.372 35.4685 197.378 34.5831 196.165 33.9159C194.977 33.223 193.609 32.8765 192.06 32.8765C190.795 32.8765 189.62 33.1203 188.536 33.6079C187.451 34.0699 186.522 34.7114 185.747 35.5326C184.999 36.3282 184.405 37.2906 183.966 38.4197C183.527 39.5232 183.307 40.7166 183.307 41.9997C183.307 43.2829 183.527 44.489 183.966 45.6182C184.405 46.7217 184.999 47.6841 185.747 48.5053C186.522 49.3009 187.451 49.9424 188.536 50.43C189.62 50.892 190.795 51.1229 192.06 51.1229Z" fill="#000091"/>
        <path d="M216.515 35.3017C218.09 35.3017 219.536 35.584 220.853 36.1486C222.169 36.6875 223.292 37.4317 224.222 38.3812C225.177 39.3051 225.913 40.4086 226.429 41.6918C226.946 42.9749 227.204 44.3351 227.204 45.7722C227.204 47.2093 226.946 48.5695 226.429 49.8526C225.913 51.1358 225.177 52.2521 224.222 53.2016C223.292 54.1255 222.169 54.8697 220.853 55.4343C219.536 55.9732 218.09 56.2427 216.515 56.2427C214.94 56.2427 213.494 55.9732 212.178 55.4343C210.861 54.8697 209.725 54.1255 208.77 53.2016C207.84 52.2521 207.117 51.1358 206.601 49.8526C206.085 48.5695 205.826 47.2093 205.826 45.7722C205.826 44.3351 206.085 42.9749 206.601 41.6918C207.117 40.4086 207.84 39.3051 208.77 38.3812C209.725 37.4317 210.861 36.6875 212.178 36.1486C213.494 35.584 214.94 35.3017 216.515 35.3017ZM216.593 51.6234C218.142 51.6234 219.446 51.0716 220.504 49.9681C221.563 48.8389 222.092 47.4403 222.092 45.7722C222.092 44.0784 221.563 42.6798 220.504 41.5763C219.446 40.4728 218.142 39.921 216.593 39.921C214.966 39.921 213.611 40.4728 212.526 41.5763C211.468 42.6798 210.938 44.0784 210.938 45.7722C210.938 47.466 211.468 48.8646 212.526 49.9681C213.611 51.0716 214.966 51.6234 216.593 51.6234Z" fill="#000091"/>
        <path d="M231.69 55.4728V36.0716H236.608V37.5344C237.254 36.8928 238.016 36.3667 238.893 35.9561C239.771 35.5198 240.804 35.3017 241.992 35.3017C243.257 35.3017 244.418 35.5968 245.477 36.187C246.561 36.7516 247.426 37.5857 248.072 38.6892C248.795 37.8167 249.66 37.0339 250.667 36.341C251.673 35.6481 252.939 35.3017 254.462 35.3017C255.469 35.3017 256.411 35.4813 257.289 35.8406C258.167 36.1742 258.928 36.6875 259.574 37.3804C260.219 38.0476 260.723 38.9073 261.084 39.9595C261.472 40.986 261.665 42.1794 261.665 43.5395V55.4728H256.708V43.732C256.708 42.5515 256.398 41.6276 255.779 40.9604C255.185 40.2675 254.333 39.921 253.223 39.921C252.19 39.921 251.351 40.229 250.705 40.8449C250.06 41.4351 249.543 42.0511 249.156 42.6926C249.182 42.8209 249.195 42.9621 249.195 43.1161C249.195 43.27 249.195 43.4112 249.195 43.5395V55.4728H244.199V43.732C244.199 42.5515 243.902 41.6276 243.308 40.9604C242.714 40.2675 241.862 39.921 240.752 39.921C239.642 39.921 238.764 40.2546 238.119 40.9219C237.473 41.5635 236.97 42.1922 236.608 42.8081V55.4728H231.69Z" fill="#000091"/>
        <path d="M267.279 64.9425V36.0716H272.197V37.4574C272.971 36.7645 273.862 36.2384 274.869 35.8791C275.876 35.4941 277.012 35.3017 278.277 35.3017C279.826 35.3017 281.208 35.584 282.421 36.1486C283.66 36.7131 284.706 37.4702 285.558 38.4197C286.41 39.3693 287.055 40.4856 287.494 41.7688C287.959 43.0262 288.191 44.3607 288.191 45.7722C288.191 47.1837 287.959 48.531 287.494 49.8141C287.055 51.0716 286.41 52.1751 285.558 53.1247C284.706 54.0742 283.66 54.8312 282.421 55.3958C281.208 55.9604 279.826 56.2427 278.277 56.2427C277.012 56.2427 275.876 56.0502 274.869 55.6653C273.862 55.306 272.971 54.7799 272.197 54.087V64.9425H267.279ZM272.236 48.6978C272.881 49.6473 273.643 50.3787 274.521 50.892C275.424 51.3796 276.444 51.6234 277.58 51.6234C279.232 51.6234 280.562 51.0716 281.569 49.9681C282.576 48.8646 283.079 47.466 283.079 45.7722C283.079 44.0784 282.576 42.6798 281.569 41.5763C280.562 40.4728 279.232 39.921 277.58 39.921C276.444 39.921 275.424 40.1777 274.521 40.6909C273.643 41.1785 272.881 41.8971 272.236 42.8466L272.197 42.8081V48.7363L272.236 48.6978Z" fill="#000091"/>
        <path d="M293.706 48.3898V40.5369H290.065V36.0716H293.706V31.2213H298.663V36.0716H304.627V40.5369H298.663V48.3898C298.663 49.4677 298.934 50.2376 299.476 50.6995C300.044 51.1614 300.806 51.3924 301.761 51.3924C302.433 51.3924 303.001 51.3539 303.465 51.2769C303.93 51.1999 304.33 51.0973 304.666 50.969V55.2419C304.175 55.4472 303.62 55.6011 303.001 55.7038C302.407 55.8064 301.71 55.8578 300.909 55.8578C298.482 55.8578 296.675 55.2034 295.487 53.8945C294.3 52.5857 293.706 50.7508 293.706 48.3898Z" fill="#000091"/>
        <path d="M326.623 52.3163C325.719 53.5224 324.532 54.4848 323.06 55.2034C321.589 55.8963 319.936 56.2427 318.103 56.2427C316.373 56.2427 314.824 55.9604 313.456 55.3958C312.113 54.8312 310.977 54.0742 310.048 53.1247C309.144 52.1751 308.447 51.0716 307.956 49.8141C307.492 48.531 307.259 47.1837 307.259 45.7722C307.259 44.3351 307.479 42.9878 307.918 41.7303C308.382 40.4471 309.041 39.3308 309.893 38.3812C310.745 37.4317 311.79 36.6875 313.03 36.1486C314.269 35.584 315.689 35.3017 317.29 35.3017C319.975 35.3017 322.144 36.1229 323.796 37.7653C325.448 39.3821 326.275 41.4608 326.275 44.0014C326.275 44.5404 326.236 45.0536 326.158 45.5412C326.107 46.0288 326.042 46.4394 325.965 46.7731H312.294C312.449 48.3642 313.056 49.6088 314.114 50.507C315.173 51.4052 316.528 51.8543 318.181 51.8543C319.239 51.8543 320.194 51.649 321.046 51.2384C321.898 50.8021 322.583 50.2376 323.099 49.5447L326.623 52.3163ZM317.29 39.3821C316.102 39.3821 315.108 39.6901 314.308 40.306C313.507 40.8962 312.939 41.8201 312.604 43.0776H321.395C321.369 42.128 320.995 41.2812 320.272 40.5369C319.575 39.767 318.581 39.3821 317.29 39.3821Z" fill="#000091"/>
        <path d="M332.126 55.4728V28.5266H341.072C344.042 28.5266 346.378 29.2452 348.082 30.6823C349.812 32.1195 350.677 34.0827 350.677 36.572C350.677 39.0356 349.812 40.986 348.082 42.4232C346.378 43.8603 344.042 44.5789 341.072 44.5789H337.626V55.4728H332.126ZM341.305 33.1845H337.626V39.921H341.305C342.467 39.921 343.37 39.6259 344.016 39.0356C344.687 38.4454 345.023 37.5985 345.023 36.495C345.023 35.4685 344.687 34.6601 344.016 34.0698C343.37 33.4796 342.467 33.1845 341.305 33.1845Z" fill="#000091"/>
        <path d="M354.491 55.4728V36.0716H359.41V37.9963C360.055 37.3547 360.791 36.8158 361.617 36.3795C362.469 35.9176 363.45 35.6866 364.56 35.6866C364.896 35.6866 365.206 35.7123 365.49 35.7636C365.774 35.8149 366.032 35.8791 366.264 35.9561V41.0759C365.955 40.9989 365.619 40.9347 365.258 40.8834C364.922 40.8321 364.535 40.8064 364.096 40.8064C362.908 40.8064 361.914 41.0759 361.114 41.6148C360.339 42.1537 359.771 42.7183 359.41 43.3085V55.4728H354.491Z" fill="#000091"/>
        <path d="M378.989 35.3017C380.564 35.3017 382.01 35.584 383.327 36.1486C384.644 36.6875 385.767 37.4317 386.696 38.3812C387.652 39.3051 388.387 40.4086 388.904 41.6918C389.42 42.9749 389.678 44.3351 389.678 45.7722C389.678 47.2093 389.42 48.5695 388.904 49.8526C388.387 51.1358 387.652 52.2521 386.696 53.2016C385.767 54.1255 384.644 54.8697 383.327 55.4343C382.01 55.9732 380.564 56.2427 378.989 56.2427C377.415 56.2427 375.969 55.9732 374.652 55.4343C373.335 54.8697 372.199 54.1255 371.244 53.2016C370.314 52.2521 369.592 51.1358 369.075 49.8526C368.559 48.5695 368.301 47.2093 368.301 45.7722C368.301 44.3351 368.559 42.9749 369.075 41.6918C369.592 40.4086 370.314 39.3051 371.244 38.3812C372.199 37.4317 373.335 36.6875 374.652 36.1486C375.969 35.584 377.415 35.3017 378.989 35.3017ZM379.067 51.6234C380.616 51.6234 381.92 51.0716 382.978 49.9681C384.037 48.8389 384.566 47.4403 384.566 45.7722C384.566 44.0784 384.037 42.6798 382.978 41.5763C381.92 40.4728 380.616 39.921 379.067 39.921C377.44 39.921 376.085 40.4728 375.001 41.5763C373.942 42.6798 373.413 44.0784 373.413 45.7722C373.413 47.466 373.942 48.8646 375.001 49.9681C376.085 51.0716 377.44 51.6234 379.067 51.6234Z" fill="#000091"/>
    </g>
    <defs>
        <filter id="filter0_d_155_72825" x="0.0795898" y="0.00543213" width="395.599" height="88.9891" filterUnits="userSpaceOnUse" color-interpolation-filters="sRGB">
            <feFlood flood-opacity="0" result="BackgroundImageFix"/>
            <feColorMatrix in="SourceAlpha" type="matrix" values="0 0 0 0 0 0 0 0 0 0 0 0 0 0 0 0 0 0 127 0" result="hardAlpha"/>
            <feOffset dy="2"/>
            <feGaussianBlur stdDeviation="3"/>
            <feColorMatrix type="matrix" values="0 0 0 0 0 0 0 0 0 0 0 0 0 0 0.0705882 0 0 0 0.16 0"/>
            <feBlend mode="normal" in2="BackgroundImageFix" result="effect1_dropShadow_155_72825"/>
            <feBlend mode="normal" in="SourceGraphic" in2="effect1_dropShadow_155_72825" result="shape"/>
        </filter>
        <clipPath id="clip0_155_72825">
            <rect width="67.7733" height="76.9891" fill="white" transform="translate(6.07959 4.00543)"/>
        </clipPath>
    </defs>
</svg>
