<svg width="49" height="56" viewBox="0 0 49 56" fill="none" xmlns="http://www.w3.org/2000/svg">
<g clip-path="url(#clip0_173_39368)">
<path d="M42.3688 17.1627L24.2139 6.59933L6.05898 17.2649C5.94691 17.3291 5.85364 17.4219 5.7886 17.5339C5.72355 17.6459 5.68902 17.7731 5.68848 17.9029V38.5352C5.69557 38.6634 5.73285 38.7881 5.79728 38.899C5.8617 39.01 5.95139 39.1038 6.05898 39.1731L24.2115 49.6427L42.3664 39.0441C42.474 38.9749 42.5637 38.8809 42.6283 38.77C42.6927 38.6591 42.7298 38.5343 42.7369 38.4062V17.8055C42.7376 17.6751 42.7038 17.547 42.6392 17.434C42.5745 17.3212 42.4811 17.2274 42.3688 17.1627Z" fill="#000091"/>
<path d="M17.7274 17.7714L11.6383 28.275L6.12061 17.1055L12.6469 13.3157L18.0822 17.1627L17.7274 17.7714ZM42.7379 38.4427V17.7982C42.7379 17.6685 42.7036 17.5412 42.6385 17.4293C42.5734 17.3174 42.4798 17.225 42.3674 17.1615L24.2138 6.59933" fill="#E1000F"/>
<path d="M5.6909 38.4427L24.2163 6.59933V49.6488L6.05898 39.1731C5.95139 39.1038 5.8617 39.01 5.79728 38.899C5.73285 38.788 5.69557 38.6634 5.68848 38.5352V17.9028L5.6909 38.4427ZM35.5604 13.2001L42.169 17.0409L36.7337 28.1801L30.211 16.9362L35.5604 13.2001Z" fill="#006ADC"/>
<path d="M47.9554 13.7601L24.7199 0.344372C24.5635 0.266007 24.3911 0.22522 24.2162 0.22522C24.0414 0.22522 23.869 0.266007 23.7125 0.344372L0.477059 13.7601C0.337196 13.8537 0.221159 13.9789 0.138298 14.1259C0.0554347 14.2729 0.00806342 14.4374 0 14.6061V41.3887C0.00712796 41.5585 0.0540559 41.7241 0.13696 41.8723C0.219863 42.0203 0.336395 42.1467 0.477059 42.2409L23.7113 55.6566C23.8677 55.7349 24.0402 55.7756 24.215 55.7756C24.3898 55.7756 24.5623 55.7349 24.7187 55.6566L47.9554 42.2409C48.0961 42.1467 48.2126 42.0203 48.2955 41.8723C48.3784 41.7241 48.4253 41.5585 48.4324 41.3887V14.6061C48.4243 14.4374 48.377 14.2729 48.2942 14.1259C48.2112 13.9789 48.0952 13.8537 47.9554 13.7601ZM13.0634 35.3761H13.1591C13.1082 35.3761 13.0634 35.3846 13.0634 35.4369C13.0634 35.5587 13.2463 35.4369 13.3056 35.5587C13.0179 35.5666 12.7446 35.6871 12.544 35.8947C12.544 35.9568 12.6651 35.9568 12.7268 35.9568C12.636 36.0785 12.4532 36.0176 12.3914 36.1406C12.4243 36.1734 12.4666 36.1948 12.5125 36.2014C12.452 36.2014 12.3914 36.2014 12.3914 36.2635V36.4474C12.2389 36.4474 12.1783 36.5691 12.056 36.6312C12.2982 36.815 12.452 36.6312 12.6954 36.6312C12.056 36.8747 11.5378 37.2131 10.8985 37.3969C10.7774 37.3969 10.8985 37.5808 10.7774 37.5808C10.9603 37.7025 11.0523 37.5199 11.2339 37.5199C10.442 37.9788 9.61989 38.3721 8.76748 38.898C8.70181 38.9637 8.65928 39.0492 8.6464 39.1414H8.40424C8.28316 39.2023 8.3437 39.3557 8.22141 39.4787C8.49505 39.6625 8.82681 39.2352 9.01328 39.4787C9.07382 39.4787 8.8922 39.5395 8.77111 39.5395C8.71057 39.5395 8.71057 39.6613 8.65003 39.6613H8.46357C8.34249 39.7526 8.22141 39.8147 8.22141 39.9973C8.16891 39.9875 8.1147 39.9939 8.06588 40.0155C8.01705 40.0373 7.97589 40.0734 7.94776 40.119C9.24821 40.1138 10.5373 39.8755 11.7546 39.4154C12.6986 38.9321 13.5536 38.2901 14.2827 37.5174C14.3155 37.5503 14.3367 37.593 14.3433 37.6392C14.1652 38.1706 13.8233 38.631 13.3674 38.954C13.032 39.1378 12.7886 39.4129 12.5198 39.5359C12.3402 39.6368 12.1671 39.749 12.0016 39.8719C11.236 40.1113 10.4501 40.2792 9.6538 40.3734L9.2845 40.427C9.01207 40.4672 8.74084 40.511 8.47204 40.5585L6.0589 39.1731C5.97061 39.1172 5.89429 39.0442 5.83441 38.9582C5.77453 38.8723 5.73231 38.7753 5.71018 38.6728C5.75054 38.651 5.78867 38.6253 5.824 38.5961C5.78648 38.556 5.73938 38.5262 5.68718 38.5096V37.7183C6.95602 37.4914 8.19173 37.1062 9.36562 36.5715C8.25497 35.7954 7.00673 35.2404 5.68839 34.9366V33.0922C6.36047 33.2029 7.02372 33.3625 7.67291 33.5694C8.17269 33.754 8.65227 33.9898 9.10409 34.2731C9.28163 34.4448 9.47548 34.5984 9.68286 34.7321C9.82898 34.8158 9.99225 34.8649 10.1602 34.8755C10.3281 34.8861 10.4961 34.8578 10.6515 34.7929H11.0511C11.9185 34.6488 12.7299 34.2676 13.3964 33.6912C13.3964 33.7521 13.457 33.7521 13.5175 33.7521C13.4227 34.2373 13.2475 34.7031 12.9993 35.1301C13.0029 35.1922 12.9411 35.3152 13.0634 35.3761ZM16.4743 39.7234C16.7782 39.6016 16.9586 39.3861 17.2359 39.2644C17.1754 39.3253 17.1754 39.4482 17.1148 39.5079C16.8877 39.6506 16.6737 39.8136 16.4755 39.9948C15.7905 40.6017 15.1492 41.2567 14.5564 41.9548C14.2512 42.3201 13.9171 42.6585 13.5877 42.9957C13.471 43.1054 13.3454 43.2051 13.2124 43.294L10.1526 41.5288C10.5879 41.5656 11.026 41.544 11.4555 41.4642C11.812 41.3637 12.1585 41.2305 12.4907 41.0661V41.1879C13.3383 40.8507 13.9824 40.0849 14.8361 39.8098C14.8663 39.8098 14.9886 39.9315 15.1097 39.8707C15.329 39.5974 15.6078 39.3785 15.9246 39.2307C16.2413 39.0829 16.5877 39.0103 16.9368 39.0185C16.9368 39.0794 16.9368 39.1402 16.9974 39.1402H17.0276C16.8448 39.2936 16.6317 39.4458 16.4222 39.5992C16.3532 39.6625 16.4138 39.7234 16.4743 39.7234ZM5.68839 32.2194V31.9929C6.31577 31.828 6.9628 31.7509 7.61116 31.7641C7.80288 31.7334 7.99821 31.7334 8.18992 31.7641C7.33563 31.7632 6.48818 31.9174 5.68839 32.2194ZM42.7392 38.4134C42.7322 38.5416 42.695 38.6664 42.6306 38.7773C42.5661 38.8882 42.4763 38.9822 42.3687 39.0514L30.1649 46.1743C28.7638 45.7711 27.3861 45.2895 26.0385 44.7317C25.8432 44.3044 25.737 43.8415 25.7266 43.3715C25.7162 42.9014 25.8018 42.4341 25.9779 41.9987C26.0747 41.6237 26.2178 41.2626 26.4042 40.9237C26.4344 40.8933 26.4647 40.8628 26.4647 40.8312C26.4727 40.8312 26.4804 40.8279 26.4861 40.8223C26.4918 40.8166 26.495 40.8088 26.495 40.8008C26.6295 40.564 26.782 40.338 26.9514 40.1251L26.9696 40.1068L26.9938 40.0813L27.012 40.063C27.012 40.0326 27.0422 40.0021 27.0725 39.9705C27.1028 39.9084 27.1633 39.878 27.1936 39.8171C27.4062 39.5908 27.641 39.3869 27.8947 39.2084C28.1522 39.1145 28.4171 39.0425 28.6865 38.9929C29.6685 39.0656 30.645 39.1989 31.6106 39.3922C31.7293 39.4101 31.8434 39.4515 31.946 39.514C32.3106 39.5853 32.6873 39.5645 33.0418 39.4531C33.273 39.4106 33.4895 39.3092 33.6707 39.1589C33.852 39.0084 33.9918 38.8137 34.0771 38.5936C34.1836 38.3974 34.2445 38.1793 34.2549 37.956C34.2655 37.7327 34.2253 37.5098 34.1376 37.3044C33.9221 36.9684 34.1219 36.7724 34.3568 36.5861L34.4391 36.5192C34.5437 36.4447 34.6378 36.3562 34.7188 36.2562C34.8714 35.9494 34.5977 35.7693 34.536 35.4893C34.4754 35.3675 34.2623 35.4284 34.14 35.2458C34.5662 35.062 35.1753 34.7235 34.9016 34.2025C34.7188 33.9261 34.4451 33.4355 34.7805 33.1592C35.2067 32.9157 35.8158 32.9754 35.9986 32.5761C36.0584 32.3439 36.0572 32.1002 35.9952 31.8686C35.9334 31.6371 35.8126 31.4257 35.6451 31.2552L35.5543 31.1237C35.4634 30.9934 35.3738 30.8632 35.2988 30.7341C35.1064 30.413 34.8928 30.1051 34.6595 29.8126C34.3931 29.4334 34.1782 29.0203 34.0202 28.5842C33.8373 28.1241 34.0807 27.7248 34.0807 27.2646C34.0986 26.3781 33.9647 25.4952 33.6848 24.6545C33.5322 24.2248 33.4717 23.7646 33.2888 23.3653C33.2658 23.1086 33.1709 22.8638 33.0152 22.6592C32.9852 22.597 32.9694 22.5287 32.9694 22.4595C32.9694 22.3904 32.9852 22.3221 33.0152 22.2599C33.2634 22.0838 33.4978 21.8889 33.7162 21.6768C33.7837 21.5279 33.7964 21.3597 33.7521 21.2023C33.7078 21.0449 33.6092 20.9085 33.4741 20.8173C33.0781 20.6334 33.1108 21.2166 32.8348 21.3395H32.6519C32.5914 21.1861 32.7125 21.1241 32.8348 21.0023C32.8348 20.9414 32.8348 20.8185 32.7742 20.8185C32.5321 20.8185 32.3178 20.7564 32.256 20.6347C31.6724 19.9034 30.8894 19.3593 30.0027 19.0691C30.2303 19.1393 30.4658 19.1802 30.7037 19.1908C31.1125 19.2778 31.5381 19.2352 31.9218 19.0691C32.1967 18.9766 32.2572 18.486 32.3783 18.2096C32.4029 18.0758 32.3992 17.9384 32.3678 17.8061C32.3363 17.6737 32.2776 17.5496 32.1955 17.4414C31.9205 17.0395 31.541 16.7211 31.0985 16.5211C30.8854 16.4286 30.55 16.2448 30.2763 16.0914C30.1831 16.0254 30.0807 15.9736 29.9724 15.938C26.3824 14.1301 18.9916 15.6945 18.4285 15.938H18.4176C17.8988 16.0892 17.3931 16.2826 16.9053 16.5162C16.2338 16.7669 15.6275 17.167 15.1315 17.6868C14.6357 18.2063 14.2631 18.8321 14.0418 19.5171C13.3504 19.9737 12.7932 20.608 12.4278 21.3541C11.9095 22.3281 11.1491 23.1912 11.2702 24.2929C11.3913 25.2425 11.6056 26.0995 11.7885 27.0795C11.8404 27.4107 11.9215 27.7366 12.0306 28.0534C12.1517 28.3894 12.0306 28.8192 12.2134 29.0943C12.3043 29.2781 12.2437 29.4924 12.4883 29.6154V29.8588C12.5488 29.9197 12.5488 29.9806 12.6711 29.9806V30.2241C13.1975 30.7396 13.6486 31.3273 14.0115 31.9698C14.1326 32.3058 13.4327 32.1536 13.1639 32.0307C12.6608 31.7014 12.2004 31.3103 11.7933 30.8668C11.76 30.8995 11.7383 30.9422 11.7315 30.9886C11.9737 31.4171 12.8285 31.9381 12.3709 32.2133C12.1287 32.335 11.8526 32.0294 11.6093 32.2754C11.5487 32.3667 11.6093 32.4896 11.6093 32.6114C11.2739 32.3679 10.9094 32.4896 10.574 32.3679C10.3318 32.307 10.2689 31.8481 9.99524 31.8481C9.27301 31.6708 8.54073 31.5379 7.80247 31.45C7.10489 31.3448 6.40185 31.2801 5.69687 31.2564V17.9028C5.69741 17.7731 5.73194 17.6458 5.79699 17.5338C5.86203 17.4218 5.9553 17.3291 6.06737 17.2649L24.2138 6.59932L42.3687 17.1627C42.4808 17.2267 42.5742 17.3195 42.6392 17.4315C42.7043 17.5435 42.7388 17.6708 42.7392 17.8006V38.4134ZM33.1084 28.3566C33.0718 28.4138 33.0211 28.4604 32.9613 28.4922C32.9015 28.524 32.8345 28.5398 32.767 28.538C32.6456 28.6407 32.5316 28.7517 32.4255 28.8703C32.5466 28.8703 32.4255 29.0517 32.5466 29.0517C32.2984 29.3232 32.6398 29.8966 32.2984 30.0171C31.8515 30.1375 31.3807 30.1375 30.9338 30.0171C31.0003 30.0027 31.0681 29.9962 31.136 29.9976H31.2389C31.3148 30.0068 31.3918 29.997 31.463 29.9689C31.5342 29.9409 31.5974 29.8955 31.647 29.8369V29.5934C31.647 29.5326 31.5852 29.5326 31.5259 29.5326C31.494 29.5668 31.4511 29.5883 31.4048 29.5934C31.4018 29.5387 31.3824 29.4861 31.3491 29.4426C31.3158 29.3992 31.2703 29.3668 31.2183 29.35C31.0574 29.3715 30.8936 29.3524 30.7418 29.2945C30.59 29.2364 30.455 29.1413 30.349 29.0176C30.5132 28.9382 30.6991 28.9168 30.8769 28.9568C31.0319 28.9568 30.9701 28.6853 31.1566 28.5648H31.3431C31.7148 28.1119 32.3977 27.9914 32.5224 27.5385C32.5224 27.4168 32.1809 27.4168 31.9327 27.3571C31.6008 27.3162 31.2643 27.3368 30.9399 27.418C30.5042 27.4784 30.0771 27.5899 29.6673 27.7503C30.0067 27.4998 30.3841 27.3062 30.7849 27.1769C31.0663 27.068 31.3573 26.9864 31.6542 26.9334L31.8141 26.9018L31.9751 26.8689C32.1947 26.8029 32.4287 26.8029 32.6483 26.8689C32.928 26.9907 33.393 26.9907 33.4547 27.1708C33.5758 27.5032 33.2682 27.8343 32.928 28.0766C32.859 28.1752 33.1084 28.2409 33.1084 28.3566Z" fill="white"/>
</g>
<defs>
<clipPath id="clip0_173_39368">
<rect width="48.4324" height="56" fill="white"/>
</clipPath>
</defs>
</svg>
