<svg width="192" height="23" viewBox="0 0 192 23" fill="none" xmlns="http://www.w3.org/2000/svg">
<path d="M0.472 17H3.88V4.952L7.624 11.24H10.024L13.768 4.952V17H17.176V0.199999H12.928L8.824 7.256L4.72 0.199999H0.472V17ZM27.0528 4.424C23.1168 4.424 20.4288 7.328 20.4288 10.952C20.4288 14.576 23.1168 17.48 27.0528 17.48C30.9888 17.48 33.6768 14.576 33.6768 10.952C33.6768 7.328 30.9888 4.424 27.0528 4.424ZM27.1008 14.6C25.0848 14.6 23.5968 13.064 23.5968 10.952C23.5968 8.84 25.0848 7.304 27.1008 7.304C29.0448 7.304 30.5088 8.84 30.5088 10.952C30.5088 13.04 29.0448 14.6 27.1008 14.6ZM36.4568 17H39.5048V9.104C39.9608 8.336 40.7768 7.304 42.3128 7.304C43.8008 7.304 44.7128 8.312 44.7128 9.92V17H47.7848V9.8C47.7848 6.224 45.6968 4.424 43.0808 4.424C41.4728 4.424 40.3448 5.048 39.5048 5.864V4.904H36.4568V17ZM63.5226 14.6C61.4826 14.6 60.0186 13.088 60.0186 10.952C60.0186 8.84 61.4826 7.304 63.4746 7.304C64.7226 7.304 65.6826 7.856 66.2586 8.696L68.6346 6.872C67.5066 5.384 65.7306 4.424 63.5226 4.424C59.3466 4.424 56.8506 7.424 56.8506 10.952C56.8506 14.48 59.3466 17.48 63.5226 17.48C65.7306 17.48 67.5066 16.52 68.6346 15.032L66.2586 13.208C65.6826 14.048 64.7226 14.6 63.5226 14.6ZM76.2012 4.424C72.2652 4.424 69.5772 7.328 69.5772 10.952C69.5772 14.576 72.2652 17.48 76.2012 17.48C80.1372 17.48 82.8252 14.576 82.8252 10.952C82.8252 7.328 80.1372 4.424 76.2012 4.424ZM76.2492 14.6C74.2332 14.6 72.7452 13.064 72.7452 10.952C72.7452 8.84 74.2332 7.304 76.2492 7.304C78.1932 7.304 79.6572 8.84 79.6572 10.952C79.6572 13.04 78.1932 14.6 76.2492 14.6ZM85.6053 17H88.6533V9.104C89.1093 8.336 89.8293 7.304 91.2213 7.304C92.5893 7.304 93.3813 8.216 93.3813 9.68V17H96.4532V9.56C96.4532 9.368 96.4532 9.2 96.4293 9.032C96.9093 8.216 97.6293 7.304 98.9493 7.304C100.317 7.304 101.109 8.216 101.109 9.68V17H104.181V9.56C104.181 6.152 102.213 4.424 99.7173 4.424C97.6773 4.424 96.5253 5.336 95.6613 6.392C94.8693 5.096 93.5253 4.424 91.9893 4.424C90.5013 4.424 89.4693 5.024 88.6533 5.816V4.904H85.6053V17ZM107.66 22.904H110.708V16.016C111.644 16.952 112.82 17.48 114.476 17.48C118.316 17.48 120.62 14.48 120.62 10.952C120.62 7.424 118.316 4.424 114.476 4.424C112.82 4.424 111.644 4.952 110.708 5.888V4.904H107.66V22.904ZM114.044 7.304C116.108 7.304 117.452 8.84 117.452 10.952C117.452 13.064 116.108 14.6 114.044 14.6C112.652 14.6 111.524 14 110.708 12.848V9.056C111.476 7.928 112.628 7.304 114.044 7.304ZM124.037 12.584C124.037 15.536 125.477 17.24 128.501 17.24C129.509 17.24 130.229 17.12 130.829 16.856V14.192C130.421 14.36 129.869 14.456 129.029 14.456C127.829 14.456 127.109 13.928 127.109 12.584V7.64H130.805V4.904H127.109V1.88H124.037V4.904H121.781V7.64H124.037V12.584ZM144.437 15.032L142.253 13.304C141.605 14.168 140.453 14.744 139.133 14.744C137.237 14.744 135.845 13.832 135.557 11.576H144.029C144.125 11.168 144.221 10.544 144.221 9.872C144.221 6.704 142.013 4.424 138.653 4.424C134.693 4.424 132.437 7.376 132.437 10.952C132.437 14.48 134.861 17.48 139.157 17.48C141.437 17.48 143.309 16.544 144.437 15.032ZM138.581 6.92C140.285 6.92 141.173 8.144 141.221 9.368H135.653C135.989 7.784 137.021 6.92 138.581 6.92ZM153.668 22.904H156.716V16.016C157.652 16.952 158.828 17.48 160.484 17.48C164.324 17.48 166.628 14.48 166.628 10.952C166.628 7.424 164.324 4.424 160.484 4.424C158.828 4.424 157.652 4.952 156.716 5.888V4.904H153.668V22.904ZM160.052 7.304C162.116 7.304 163.46 8.84 163.46 10.952C163.46 13.064 162.116 14.6 160.052 14.6C158.66 14.6 157.532 14 156.716 12.848V9.056C157.484 7.928 158.636 7.304 160.052 7.304ZM169.418 17H172.466V9.248C172.922 8.48 173.882 7.664 175.37 7.664C175.922 7.664 176.33 7.736 176.714 7.832V4.832C176.426 4.736 176.066 4.664 175.658 4.664C174.29 4.664 173.258 5.288 172.466 6.104V4.904H169.418V17ZM184.412 4.424C180.476 4.424 177.788 7.328 177.788 10.952C177.788 14.576 180.476 17.48 184.412 17.48C188.348 17.48 191.036 14.576 191.036 10.952C191.036 7.328 188.348 4.424 184.412 4.424ZM184.46 14.6C182.444 14.6 180.956 13.064 180.956 10.952C180.956 8.84 182.444 7.304 184.46 7.304C186.404 7.304 187.868 8.84 187.868 10.952C187.868 13.04 186.404 14.6 184.46 14.6Z" fill="url(#paint0_linear_173_39366)"/>
<defs>
<linearGradient id="paint0_linear_173_39366" x1="121.456" y1="-1" x2="121.456" y2="22.3333" gradientUnits="userSpaceOnUse">
<stop stop-color="#006ADC"/>
<stop offset="1" stop-color="#000091" stop-opacity="0.98"/>
</linearGradient>
</defs>
</svg>
