<svg width="384" height="346" viewBox="0 0 384 346" fill="none" xmlns="http://www.w3.org/2000/svg">
<g clip-path="url(#clip0_0_3)">
<path d="M49.3125 101.311L49.3124 86.437H317.523V101.311V266.735C317.523 274.95 310.864 281.609 302.649 281.609H64.1864C55.9717 281.609 49.3125 274.95 49.3125 266.735V101.311Z" fill="#EDEDED" stroke="#000091"/>
<path d="M208.303 271.285V327.117H158.538V271.285H175.158V289.464C175.158 291.657 176.03 293.76 177.58 295.311C179.131 296.861 181.234 297.732 183.427 297.732C185.62 297.732 187.724 296.861 189.274 295.311C190.825 293.76 191.696 291.657 191.696 289.464V271.285H208.303Z" fill="#000091"/>
<path d="M48.8124 243.438H318.005V266.744C318.005 270.821 316.385 274.732 313.502 277.615C310.618 280.498 306.708 282.118 302.631 282.118L48.8123 282.165L48.8124 243.438Z" fill="#000091"/>
<path d="M129.045 316.903H237.79V330.434H129.045V316.903Z" fill="#000091"/>
<path d="M183.416 268.449C186.554 268.449 189.098 265.905 189.098 262.767C189.098 259.629 186.554 257.085 183.416 257.085C180.278 257.085 177.734 259.629 177.734 262.767C177.734 265.905 180.278 268.449 183.416 268.449Z" fill="white"/>
<path d="M305.907 222.18C279.732 222.18 258.516 235.556 258.516 235.556V280.12C258.515 289.983 260.922 299.697 265.528 308.419C270.133 317.141 276.797 324.607 284.942 330.169L305.907 344.493L326.871 330.169C335.014 324.606 341.677 317.139 346.281 308.417C350.884 299.696 353.29 289.982 353.289 280.12V235.556C353.289 235.556 332.077 222.18 305.907 222.18Z" fill="white"/>
<path d="M305.39 345.249L284.425 330.929C276.155 325.284 269.388 317.705 264.713 308.85C260.038 299.996 257.596 290.133 257.6 280.12V235.556C257.6 235.401 257.639 235.247 257.714 235.111C257.79 234.975 257.899 234.86 258.031 234.777C258.241 234.644 279.774 221.264 305.907 221.264C332.041 221.264 353.564 234.644 353.784 234.777C353.916 234.86 354.025 234.975 354.1 235.111C354.176 235.247 354.215 235.401 354.215 235.556V280.12C354.217 290.133 351.775 299.995 347.1 308.85C342.425 317.704 335.659 325.284 327.39 330.929L306.425 345.249C306.273 345.354 306.092 345.41 305.907 345.41C305.723 345.41 305.542 345.354 305.39 345.249ZM259.433 236.069V280.12C259.432 289.835 261.803 299.404 266.34 307.994C270.878 316.585 277.445 323.937 285.47 329.413L305.921 343.384L326.368 329.413C334.388 323.934 340.949 316.58 345.481 307.99C350.013 299.4 352.379 289.832 352.373 280.12V236.069C349.248 234.237 329.461 223.097 305.898 223.097C282.336 223.097 262.558 234.223 259.433 236.069Z" fill="#000091"/>
<path d="M288.787 324.546C281.557 319.611 275.641 312.985 271.554 305.243C267.467 297.502 265.332 288.879 265.335 280.125V239.548C271.869 236.138 287.724 229.008 305.907 229.008C324.09 229.008 339.936 236.143 346.48 239.548V280.12C346.486 288.873 344.354 297.496 340.27 305.238C336.186 312.981 330.273 319.609 323.045 324.546L305.907 336.241L288.787 324.546Z" fill="#FCC63A"/>
<path d="M280.609 274.097L287.433 267.273L307.396 287.236L300.572 294.06L280.609 274.097Z" fill="white"/>
<path d="M324.38 256.61L331.204 263.434L300.574 294.064L293.75 287.24L324.38 256.61Z" fill="white"/>
<path d="M353.343 220.123C353.207 220.125 353.073 220.097 352.949 220.041C352.826 219.985 352.716 219.902 352.629 219.799C352.541 219.695 352.477 219.574 352.442 219.443C352.407 219.312 352.402 219.175 352.426 219.041L355.093 204.488C355.11 204.365 355.151 204.246 355.215 204.14C355.278 204.033 355.363 203.941 355.463 203.868C355.563 203.795 355.678 203.743 355.799 203.716C355.92 203.688 356.045 203.686 356.167 203.708C356.289 203.73 356.405 203.777 356.508 203.846C356.612 203.914 356.7 204.003 356.768 204.107C356.836 204.211 356.882 204.327 356.904 204.449C356.926 204.571 356.922 204.697 356.894 204.818L354.246 219.357C354.21 219.571 354.1 219.765 353.934 219.905C353.769 220.045 353.559 220.122 353.343 220.123ZM362.856 224.623C362.68 224.624 362.508 224.574 362.36 224.48C362.212 224.386 362.094 224.251 362.02 224.092C361.946 223.932 361.919 223.755 361.943 223.581C361.967 223.407 362.041 223.244 362.155 223.11L371.723 211.842C371.794 211.733 371.888 211.64 371.998 211.569C372.109 211.499 372.233 211.453 372.362 211.435C372.492 211.416 372.624 211.426 372.749 211.463C372.875 211.5 372.991 211.563 373.09 211.648C373.189 211.734 373.269 211.84 373.323 211.958C373.378 212.077 373.407 212.206 373.407 212.337C373.408 212.468 373.381 212.597 373.327 212.717C373.274 212.836 373.196 212.943 373.097 213.029L363.552 224.297C363.467 224.399 363.36 224.48 363.24 224.537C363.12 224.593 362.989 224.622 362.856 224.623ZM367.296 233.815C367.081 233.815 366.872 233.738 366.707 233.6C366.543 233.461 366.432 233.269 366.395 233.057C366.357 232.844 366.396 232.626 366.504 232.439C366.612 232.253 366.782 232.11 366.985 232.037L382.455 226.506C382.679 226.442 382.918 226.466 383.125 226.572C383.332 226.679 383.491 226.86 383.569 227.08C383.647 227.299 383.639 227.54 383.546 227.753C383.453 227.967 383.283 228.137 383.069 228.229C366.577 234.145 367.539 233.815 367.296 233.815Z" fill="#18753C"/>
<mask id="mask0_0_3" style="mask-type:luminance" maskUnits="userSpaceOnUse" x="94" y="144" width="156" height="72">
<path d="M245.135 144.157L94.204 155.009L98.5658 215.672L249.497 204.82L245.135 144.157Z" fill="white"/>
</mask>
<g mask="url(#mask0_0_3)">
<g filter="url(#filter0_d_0_3)">
<path d="M237.185 147.339L239.901 185.115L246.792 191.406L244.157 153.311L237.185 147.339Z" fill="white"/>
<path d="M99.4888 196.081L106.353 202.479L245.442 192.478L238.439 186.09L99.4888 196.081Z" fill="white"/>
<path d="M235.391 146.598L96.0598 156.616L98.7785 194.427L238.11 184.408L235.391 146.598Z" fill="#000091"/>
<path d="M237.033 144.74L94.204 155.009L97.1716 196.283L105.926 204.285L105.958 204.247L248.717 193.983L245.752 152.744L237.033 144.74ZM96.0597 156.616L235.391 146.598L238.11 184.409L98.7784 194.427L96.0597 156.616ZM106.353 202.479L99.489 196.081L238.44 186.09L245.442 192.478L106.353 202.479ZM246.792 191.406L239.901 185.115L237.185 147.339L244.157 153.311L246.792 191.406Z" fill="#000091"/>
<path d="M208.169 192.026L208.358 194.657L209.769 195.878L215.712 205.927L226.174 205.244L227.298 202.484L228.298 198.479L227.64 189.338L226.265 188.114L223.538 186.988L219.534 185.988L215.621 186.269L215.151 179.725L212.554 179.912L213.587 194.281L210.766 191.839L208.169 192.026Z" fill="white"/>
<path d="M211.238 180.006L212.554 179.912L213.587 194.281L212.271 194.376L212.176 193.06L210.861 193.155L210.766 191.839L212.082 191.744L211.238 180.006ZM227.64 189.338L228.298 198.479L229.613 198.384L228.956 189.243L227.64 189.338ZM206.761 190.839L207.043 194.752L208.358 194.657L208.172 192.06L210.769 191.873L210.674 190.558L206.761 190.839ZM211.237 198.383L211.05 195.786L209.734 195.881L209.921 198.478L211.237 198.383ZM212.739 200.885L212.552 198.288L211.237 198.383L211.423 200.98L212.739 200.885ZM214.244 203.422L214.525 207.335L227.579 206.396L227.298 202.484L225.982 202.578L226.169 205.175L215.712 205.927L215.525 203.33L214.244 203.422L214.057 200.825L212.742 200.92L212.928 203.517L214.244 203.422ZM227.298 202.484L228.614 202.389L228.332 198.476L227.016 198.571L227.298 202.484ZM209.769 195.878L209.674 194.562L208.358 194.657L208.453 195.973L209.769 195.878ZM226.265 188.114L226.359 189.43L227.675 189.335L227.58 188.02L226.265 188.114ZM223.538 186.988L223.914 192.216L225.23 192.121L224.949 188.209L226.265 188.114L226.17 186.798L223.538 186.988ZM219.534 185.988L219.91 191.216L221.225 191.122L220.944 187.209L223.541 187.022L223.446 185.707L219.534 185.988ZM216.842 184.859L216.466 179.63L215.151 179.725L215.995 191.463L217.31 191.368L216.934 186.14L219.531 185.953L219.437 184.637L216.84 184.824L216.842 184.859ZM212.459 178.596L212.554 179.912L215.151 179.725L215.056 178.409L212.459 178.596Z" fill="#000091"/>
<path d="M142.435 170.586L143.097 169.877C143.376 170.177 143.675 170.403 143.984 170.548C144.301 170.692 144.632 170.752 144.972 170.728C145.37 170.699 145.667 170.566 145.865 170.326C146.071 170.088 146.165 169.799 146.141 169.467C146.113 169.076 145.911 168.788 145.532 168.599C145.153 168.404 144.742 168.21 144.294 168.027C143.852 167.836 143.441 167.594 143.055 167.308C142.669 167.023 142.457 166.589 142.415 166.011C142.397 165.748 142.43 165.491 142.517 165.248C142.604 164.999 142.734 164.777 142.912 164.59C143.086 164.397 143.301 164.238 143.549 164.113C143.805 163.99 144.089 163.917 144.393 163.895C144.909 163.858 145.364 163.937 145.764 164.134C146.164 164.321 146.51 164.585 146.809 164.919L146.125 165.608C145.888 165.319 145.629 165.101 145.354 164.961C145.086 164.813 144.789 164.751 144.47 164.774C144.128 164.798 143.862 164.922 143.669 165.145C143.482 165.36 143.4 165.62 143.422 165.918C143.45 166.309 143.652 166.601 144.031 166.796C144.41 166.985 144.817 167.178 145.259 167.369C145.707 167.553 146.121 167.791 146.507 168.076C146.893 168.362 147.106 168.799 147.148 169.384C147.17 169.689 147.131 169.977 147.032 170.242C146.939 170.499 146.799 170.728 146.608 170.923C146.427 171.117 146.198 171.273 145.928 171.393C145.665 171.51 145.371 171.579 145.052 171.602C144.508 171.641 144.023 171.575 143.6 171.404C143.174 171.233 142.789 170.958 142.438 170.586H142.435ZM148.83 166.597L148.006 166.657L148.691 163.795L149.706 163.722L148.83 166.597ZM151.635 164.266C151.462 164.278 151.309 164.23 151.172 164.121C151.045 164.005 150.976 163.861 150.963 163.684C150.95 163.507 151 163.372 151.109 163.242C151.225 163.108 151.369 163.035 151.546 163.023C151.722 163.01 151.869 163.062 151.999 163.178C152.125 163.287 152.194 163.425 152.206 163.595C152.218 163.764 152.17 163.921 152.062 164.057C151.953 164.184 151.811 164.253 151.635 164.266ZM151.665 170.928L151.287 165.665L152.173 165.602L152.551 170.865L151.665 170.928ZM153.789 168.131C153.761 167.746 153.798 167.382 153.898 167.03C154.004 166.671 154.162 166.357 154.376 166.084C154.593 165.811 154.865 165.582 155.187 165.406C155.508 165.23 155.877 165.127 156.289 165.097C156.666 165.07 157.014 165.114 157.339 165.23C157.667 165.339 157.962 165.516 158.216 165.755L157.989 162.601L158.875 162.537L159.438 170.37L158.552 170.433L158.51 169.848C158.293 170.121 158.027 170.339 157.717 170.493C157.416 170.654 157.075 170.748 156.697 170.775C156.285 170.805 155.909 170.756 155.562 170.627C155.215 170.499 154.917 170.312 154.663 170.072C154.416 169.833 154.211 169.545 154.055 169.215C153.905 168.874 153.816 168.515 153.789 168.131ZM154.731 168.063C154.75 168.34 154.814 168.6 154.922 168.836C155.029 169.072 155.169 169.277 155.345 169.446C155.524 169.614 155.735 169.741 155.972 169.832C156.208 169.923 156.467 169.953 156.744 169.933C157.108 169.907 157.434 169.8 157.731 169.612C158.023 169.417 158.261 169.152 158.44 168.826L158.293 166.78C158.062 166.476 157.785 166.249 157.468 166.105C157.151 165.961 156.813 165.901 156.456 165.927C156.179 165.947 155.927 166.017 155.706 166.138C155.485 166.258 155.294 166.414 155.141 166.61C154.995 166.801 154.886 167.025 154.81 167.274C154.737 167.523 154.711 167.789 154.731 168.066V168.063ZM165.927 169.033C165.708 169.379 165.409 169.662 165.035 169.884C164.664 170.105 164.238 170.233 163.75 170.268C163.311 170.3 162.907 170.252 162.532 170.126C162.165 169.999 161.849 169.813 161.581 169.575C161.32 169.336 161.108 169.049 160.952 168.719C160.795 168.379 160.703 168.02 160.676 167.635C160.648 167.251 160.683 166.862 160.782 166.504C160.882 166.145 161.037 165.834 161.241 165.569C161.451 165.297 161.716 165.072 162.032 164.903C162.357 164.734 162.719 164.635 163.124 164.605C163.48 164.58 163.807 164.616 164.106 164.712C164.405 164.802 164.665 164.94 164.881 165.13C165.103 165.316 165.283 165.55 165.415 165.826C165.545 166.095 165.623 166.396 165.646 166.721C165.654 166.825 165.654 166.929 165.648 167.034C165.641 167.132 165.633 167.216 165.624 167.287L161.594 167.576L161.595 167.597C161.637 168.175 161.851 168.644 162.242 168.998C162.64 169.349 163.128 169.502 163.713 169.46C164.049 169.436 164.345 169.345 164.605 169.187C164.865 169.022 165.076 168.812 165.232 168.564L165.927 169.029V169.033ZM163.186 165.367C162.76 165.397 162.411 165.541 162.134 165.801C161.86 166.057 161.684 166.418 161.613 166.879L164.736 166.654C164.695 166.278 164.534 165.966 164.248 165.715C163.972 165.456 163.615 165.339 163.182 165.37L163.186 165.367ZM167.378 169.799L166.999 164.536L167.886 164.472L167.929 165.067C168.126 164.817 168.362 164.605 168.628 164.439C168.901 164.267 169.235 164.166 169.626 164.138C170.212 164.096 170.714 164.255 171.13 164.618C171.556 164.981 171.794 165.531 171.848 166.279L172.077 169.464L171.18 169.529L170.953 166.374C170.92 165.907 170.772 165.556 170.508 165.314C170.247 165.068 169.911 164.956 169.51 164.985C169.132 165.012 168.824 165.132 168.582 165.344C168.346 165.549 168.152 165.8 168.006 166.089L168.268 169.735L167.381 169.798L167.378 169.799ZM174.041 167.548L173.848 164.865L172.854 164.936L172.796 164.122L173.79 164.051L173.695 162.735L174.592 162.671L174.686 163.986L176.515 163.855L176.573 164.669L174.745 164.8L174.938 167.484C174.968 167.896 175.081 168.166 175.278 168.298C175.483 168.429 175.748 168.483 176.066 168.46C176.239 168.448 176.387 168.427 176.514 168.397C176.637 168.367 176.746 168.328 176.843 168.279L176.9 169.072C176.779 169.13 176.647 169.174 176.499 169.205C176.356 169.244 176.191 169.269 176 169.283C175.415 169.325 174.951 169.209 174.61 168.931C174.277 168.648 174.083 168.185 174.037 167.545L174.041 167.548ZM178.224 162.354C178.05 162.366 177.897 162.318 177.761 162.21C177.634 162.093 177.564 161.949 177.552 161.772C177.539 161.596 177.588 161.46 177.697 161.33C177.813 161.197 177.958 161.123 178.134 161.111C178.311 161.098 178.457 161.15 178.587 161.266C178.714 161.375 178.783 161.513 178.795 161.683C178.807 161.852 178.759 162.009 178.651 162.146C178.541 162.272 178.4 162.341 178.224 162.354ZM178.25 169.017L177.872 163.754L178.758 163.69L179.137 168.953L178.25 169.017ZM179.949 163.605L180.943 163.533L180.896 162.886C180.856 162.321 180.992 161.848 181.31 161.471C181.623 161.083 182.064 160.87 182.628 160.829C182.919 160.809 183.186 160.838 183.421 160.919C183.656 160.992 183.859 161.099 184.022 161.244L183.515 161.932C183.417 161.834 183.3 161.759 183.161 161.706C183.031 161.646 182.873 161.623 182.693 161.636C182.406 161.656 182.177 161.77 182.004 161.978C181.838 162.184 181.767 162.461 181.792 162.8L181.84 163.469L183.668 163.337L183.726 164.151L181.898 164.282L182.218 168.732L181.321 168.796L181.002 164.347L180.008 164.418L179.949 163.605ZM185.097 161.86C184.923 161.872 184.767 161.824 184.634 161.715C184.507 161.599 184.438 161.455 184.425 161.278C184.412 161.101 184.462 160.966 184.571 160.836C184.686 160.702 184.831 160.629 185.007 160.617C185.184 160.604 185.33 160.656 185.46 160.772C185.587 160.881 185.656 161.019 185.668 161.189C185.68 161.358 185.632 161.515 185.524 161.651C185.414 161.778 185.273 161.847 185.097 161.86ZM185.127 168.522L184.748 163.259L185.635 163.196L186.013 168.459L185.127 168.522ZM192.505 167.122C192.287 167.468 191.987 167.751 191.613 167.973C191.243 168.194 190.817 168.322 190.328 168.357C189.889 168.389 189.485 168.341 189.111 168.215C188.743 168.088 188.427 167.902 188.159 167.664C187.898 167.425 187.686 167.138 187.53 166.808C187.373 166.468 187.282 166.109 187.254 165.724C187.226 165.34 187.261 164.951 187.36 164.593C187.46 164.234 187.612 163.924 187.819 163.658C188.029 163.386 188.295 163.161 188.61 162.992C188.935 162.823 189.297 162.724 189.702 162.694C190.059 162.669 190.385 162.704 190.684 162.801C190.983 162.891 191.244 163.029 191.459 163.219C191.681 163.405 191.862 163.639 191.993 163.915C192.124 164.184 192.201 164.485 192.224 164.81C192.232 164.914 192.232 165.018 192.226 165.123C192.219 165.221 192.211 165.305 192.202 165.376L188.172 165.665L188.173 165.686C188.215 166.264 188.43 166.733 188.821 167.087C189.218 167.438 189.706 167.591 190.291 167.549C190.627 167.525 190.923 167.434 191.184 167.276C191.443 167.111 191.654 166.901 191.81 166.653L192.505 167.118V167.122ZM189.764 163.456C189.338 163.486 188.99 163.63 188.713 163.89C188.439 164.146 188.263 164.507 188.191 164.968L191.315 164.743C191.274 164.367 191.112 164.055 190.826 163.804C190.55 163.545 190.193 163.428 189.761 163.459L189.764 163.456ZM193.956 167.888L193.578 162.625L194.464 162.561L194.511 163.219C194.689 162.976 194.897 162.773 195.129 162.617C195.369 162.461 195.658 162.371 195.991 162.347C196.074 162.341 196.154 162.342 196.231 162.35C196.308 162.352 196.378 162.361 196.442 162.377L196.508 163.294C196.43 163.279 196.349 163.268 196.265 163.26C196.181 163.252 196.087 163.252 195.983 163.259C195.644 163.283 195.359 163.387 195.135 163.571C194.911 163.747 194.726 163.976 194.586 164.251L194.843 167.824L193.956 167.888ZM202.378 167.494C201.862 167.531 201.437 167.426 201.095 167.176C200.758 166.929 200.568 166.573 200.535 166.113C200.506 165.708 200.627 165.358 200.901 165.056C201.179 164.758 201.599 164.54 202.156 164.409L203.901 163.991L203.875 163.624C203.849 163.261 203.711 162.989 203.458 162.805C203.208 162.621 202.896 162.543 202.529 162.569C202.221 162.591 201.948 162.677 201.709 162.827C201.475 162.969 201.287 163.16 201.151 163.403L200.446 162.938C200.652 162.61 200.932 162.339 201.279 162.133C201.626 161.928 202.032 161.808 202.493 161.775C203.161 161.727 203.697 161.869 204.097 162.206C204.5 162.535 204.72 162.986 204.762 163.564L205.015 167.092L204.129 167.156L204.081 166.488C203.907 166.779 203.666 167.015 203.366 167.19C203.065 167.365 202.735 167.465 202.378 167.491V167.494ZM201.423 166.018C201.439 166.239 201.543 166.423 201.734 166.563C201.925 166.702 202.172 166.761 202.47 166.739C202.82 166.714 203.122 166.606 203.379 166.413C203.644 166.22 203.859 165.964 204.017 165.654L203.945 164.65L202.41 165.031C202.054 165.113 201.792 165.239 201.63 165.411C201.475 165.582 201.406 165.786 201.423 166.014V166.018ZM205.596 161.76L206.555 161.691L208.55 165.906L209.921 161.449L210.88 161.381L209.202 166.791L208.031 166.876L205.596 161.76ZM216.878 165.369C216.659 165.716 216.359 165.998 215.986 166.22C215.615 166.442 215.189 166.57 214.701 166.605C214.261 166.636 213.858 166.589 213.483 166.463C213.116 166.336 212.799 166.15 212.532 165.912C212.271 165.673 212.059 165.385 211.903 165.055C211.746 164.715 211.654 164.356 211.627 163.972C211.599 163.588 211.634 163.199 211.733 162.84C211.833 162.481 211.984 162.171 212.191 161.906C212.402 161.633 212.667 161.409 212.982 161.24C213.308 161.07 213.67 160.971 214.075 160.942C214.431 160.916 214.758 160.952 215.057 161.049C215.356 161.139 215.616 161.277 215.832 161.466C216.054 161.652 216.234 161.886 216.366 162.162C216.496 162.431 216.574 162.732 216.597 163.058C216.604 163.162 216.605 163.266 216.599 163.371C216.592 163.469 216.584 163.553 216.575 163.623L212.545 163.913L212.546 163.934C212.588 164.512 212.802 164.98 213.193 165.335C213.591 165.686 214.079 165.839 214.664 165.797C215 165.772 215.296 165.681 215.556 165.524C215.816 165.359 216.027 165.149 216.183 164.901L216.878 165.366V165.369ZM214.14 161.703C213.714 161.734 213.366 161.877 213.089 162.137C212.815 162.393 212.639 162.754 212.568 163.215L215.691 162.991C215.65 162.614 215.488 162.302 215.202 162.051C214.926 161.793 214.569 161.676 214.137 161.707L214.14 161.703ZM220.69 165.335C221.009 165.312 221.295 165.222 221.541 165.065C221.787 164.902 221.984 164.692 222.126 164.446L222.875 164.938C222.656 165.285 222.363 165.567 222.003 165.787C221.64 166.008 221.221 166.136 220.74 166.171C220.307 166.202 219.91 166.154 219.543 166.027C219.175 165.9 218.859 165.714 218.591 165.476C218.33 165.237 218.115 164.95 217.952 164.62C217.795 164.28 217.703 163.921 217.676 163.537C217.648 163.153 217.688 162.788 217.795 162.436C217.908 162.076 218.077 161.761 218.304 161.487C218.535 161.213 218.825 160.983 219.167 160.806C219.509 160.628 219.899 160.523 220.331 160.492C220.806 160.458 221.235 160.528 221.627 160.702C222.026 160.868 222.356 161.105 222.621 161.406L221.95 162.001C221.774 161.777 221.546 161.602 221.273 161.482C221.003 161.356 220.71 161.304 220.391 161.327C220.111 161.347 219.855 161.417 219.62 161.539C219.392 161.659 219.198 161.816 219.045 162.012C218.892 162.204 218.772 162.428 218.693 162.677C218.613 162.927 218.584 163.193 218.604 163.47C218.623 163.747 218.691 164.01 218.806 164.253C218.92 164.488 219.067 164.693 219.25 164.861C219.436 165.022 219.65 165.146 219.896 165.236C220.139 165.323 220.406 165.356 220.69 165.335ZM143.791 181.995L143.235 174.256L145.79 174.073C146.638 174.012 147.321 174.171 147.836 174.548C148.361 174.925 148.647 175.472 148.699 176.188C148.75 176.905 148.544 177.473 148.078 177.921C147.62 178.368 146.97 178.624 146.122 178.685L145.138 178.755L145.363 181.885L143.795 181.998L143.791 181.995ZM145.952 175.401L144.902 175.476L145.042 177.412L146.091 177.336C146.423 177.313 146.673 177.211 146.848 177.028C147.026 176.845 147.106 176.595 147.083 176.277C147.062 175.982 146.948 175.757 146.746 175.601C146.55 175.445 146.284 175.38 145.952 175.404V175.401ZM150.179 181.536L149.779 175.961L151.184 175.86L151.224 176.414C151.394 176.217 151.594 176.046 151.821 175.905C152.054 175.756 152.33 175.67 152.648 175.647C152.745 175.64 152.832 175.641 152.916 175.648C152.997 175.657 153.075 175.672 153.142 175.688L153.248 177.159C153.156 177.145 153.061 177.131 152.956 177.125C152.858 177.118 152.747 177.119 152.622 177.128C152.283 177.152 152.005 177.249 151.787 177.421C151.577 177.593 151.426 177.767 151.334 177.944L151.585 181.438L150.18 181.539L150.179 181.536ZM156.757 175.237C157.207 175.204 157.625 175.254 158.014 175.39C158.402 175.518 158.736 175.707 159.023 175.961C159.315 176.208 159.546 176.508 159.721 176.868C159.897 177.228 159.997 177.61 160.027 178.026C160.057 178.441 160.012 178.834 159.89 179.216C159.767 179.593 159.583 179.93 159.329 180.223C159.075 180.517 158.778 180.743 158.412 180.933C158.046 181.116 157.64 181.222 157.19 181.254C156.739 181.287 156.322 181.24 155.933 181.112C155.544 180.976 155.207 180.784 154.914 180.541C154.628 180.287 154.401 179.983 154.225 179.623C154.05 179.267 153.949 178.881 153.919 178.465C153.889 178.05 153.934 177.656 154.056 177.275C154.179 176.898 154.36 176.564 154.608 176.279C154.855 175.993 155.168 175.748 155.535 175.568C155.9 175.378 156.307 175.269 156.757 175.237ZM157.115 179.923C157.558 179.891 157.917 179.705 158.199 179.368C158.477 179.021 158.6 178.609 158.566 178.131C158.532 177.653 158.35 177.252 158.026 176.959C157.702 176.662 157.316 176.533 156.873 176.565C156.409 176.598 156.033 176.785 155.747 177.122C155.469 177.463 155.346 177.875 155.38 178.36C155.415 178.845 155.597 179.239 155.921 179.532C156.252 179.829 156.651 179.957 157.115 179.923ZM165.196 179.199C165.64 179.168 166.024 179.043 166.35 178.828C166.682 178.605 166.947 178.325 167.146 177.991L168.454 178.854C168.135 179.357 167.705 179.774 167.165 180.102C166.625 180.43 166.005 180.62 165.306 180.671C164.7 180.714 164.138 180.643 163.613 180.458C163.088 180.273 162.63 180.01 162.244 179.669C161.858 179.328 161.546 178.916 161.309 178.435C161.076 177.947 160.938 177.428 160.898 176.874C160.858 176.32 160.921 175.79 161.083 175.284C161.244 174.768 161.494 174.315 161.83 173.918C162.164 173.525 162.579 173.196 163.072 172.941C163.565 172.683 164.115 172.532 164.717 172.489C165.417 172.439 166.058 172.542 166.64 172.796C167.221 173.043 167.706 173.388 168.092 173.826L166.922 174.878C166.677 174.575 166.375 174.343 166.015 174.178C165.662 174.005 165.263 173.932 164.82 173.964C164.46 173.99 164.129 174.083 163.828 174.248C163.529 174.402 163.276 174.608 163.071 174.859C162.873 175.103 162.723 175.392 162.622 175.727C162.52 176.054 162.482 176.401 162.509 176.768C162.535 177.136 162.623 177.481 162.77 177.794C162.918 178.103 163.107 178.365 163.339 178.588C163.577 178.801 163.857 178.965 164.175 179.085C164.493 179.194 164.834 179.236 165.197 179.21L165.196 179.199ZM171.853 174.151C172.304 174.119 172.721 174.169 173.11 174.304C173.499 174.433 173.833 174.621 174.119 174.876C174.412 175.123 174.642 175.423 174.818 175.783C174.993 176.142 175.094 176.525 175.124 176.94C175.154 177.356 175.109 177.749 174.986 178.13C174.864 178.508 174.679 178.845 174.426 179.138C174.172 179.431 173.875 179.658 173.509 179.848C173.143 180.031 172.736 180.137 172.286 180.169C171.836 180.201 171.418 180.155 171.03 180.026C170.641 179.89 170.303 179.699 170.011 179.455C169.725 179.201 169.497 178.897 169.322 178.537C169.147 178.181 169.046 177.795 169.016 177.38C168.986 176.964 169.031 176.571 169.153 176.19C169.276 175.812 169.457 175.479 169.704 175.193C169.952 174.907 170.265 174.662 170.631 174.483C170.997 174.293 171.403 174.183 171.853 174.151ZM172.211 178.838C172.654 178.806 173.014 178.62 173.296 178.283C173.573 177.936 173.697 177.523 173.663 177.045C173.628 176.568 173.446 176.167 173.122 175.873C172.798 175.576 172.413 175.447 171.97 175.479C171.506 175.513 171.129 175.7 170.844 176.037C170.566 176.377 170.442 176.79 170.477 177.274C170.512 177.759 170.693 178.153 171.017 178.447C171.348 178.743 171.747 178.871 172.211 178.838ZM176.602 179.636L176.201 174.061L177.607 173.96L177.639 174.403C177.816 174.206 178.033 174.034 178.291 173.89C178.555 173.739 178.869 173.65 179.239 173.623C179.54 173.602 179.825 173.634 180.092 173.719C180.366 173.803 180.606 173.943 180.811 174.133C181.023 174.327 181.197 174.572 181.33 174.876C181.47 175.175 181.555 175.535 181.585 175.947L181.823 179.264L180.397 179.366L180.162 176.105C180.136 175.738 180.014 175.451 179.802 175.254C179.596 175.046 179.321 174.954 178.982 174.978C178.642 175.003 178.355 175.121 178.161 175.326C177.977 175.524 177.837 175.715 177.746 175.899L178.008 179.538L176.602 179.639V179.636ZM183.416 179.146L183.015 173.571L184.421 173.47L184.453 173.913C184.63 173.716 184.847 173.544 185.105 173.4C185.369 173.249 185.683 173.16 186.053 173.133C186.355 173.112 186.639 173.144 186.906 173.229C187.18 173.314 187.42 173.453 187.625 173.643C187.837 173.837 188.011 174.082 188.145 174.386C188.285 174.685 188.37 175.045 188.399 175.457L188.638 178.774L187.211 178.876L186.977 175.615C186.95 175.248 186.829 174.961 186.616 174.764C186.41 174.556 186.135 174.464 185.796 174.488C185.457 174.513 185.169 174.631 184.975 174.836C184.791 175.034 184.652 175.225 184.56 175.409L184.822 179.048L183.416 179.149V179.146ZM195.296 177.38C195.062 177.745 194.746 178.046 194.338 178.284C193.933 178.511 193.466 178.646 192.943 178.684C192.448 178.719 192.003 178.671 191.6 178.537C191.204 178.401 190.866 178.206 190.58 177.956C190.301 177.701 190.081 177.4 189.916 177.046C189.758 176.689 189.664 176.306 189.635 175.9C189.606 175.495 189.64 175.096 189.739 174.727C189.844 174.351 190.011 174.015 190.234 173.724C190.457 173.433 190.739 173.197 191.085 173.019C191.426 172.831 191.826 172.722 192.283 172.689C193.048 172.634 193.685 172.825 194.193 173.262C194.697 173.692 194.976 174.274 195.028 175.001C195.039 175.157 195.039 175.303 195.025 175.447C195.021 175.586 195.009 175.709 194.995 175.804L191.093 176.084C191.171 176.538 191.37 176.883 191.689 177.121C192.009 177.359 192.406 177.459 192.877 177.425C193.179 177.403 193.448 177.325 193.682 177.19C193.915 177.048 194.101 176.871 194.232 176.659L195.297 177.383L195.296 177.38ZM192.363 173.856C192.024 173.881 191.746 173.991 191.531 174.184C191.314 174.37 191.171 174.648 191.1 175.016L193.61 174.835C193.583 174.562 193.459 174.327 193.235 174.128C193.022 173.92 192.73 173.83 192.36 173.856H192.363ZM199.188 176.898C199.461 176.878 199.696 176.802 199.895 176.67C200.101 176.53 200.263 176.358 200.38 176.158L201.56 176.929C201.325 177.287 201.016 177.585 200.625 177.818C200.242 178.054 199.796 178.187 199.287 178.224C198.809 178.258 198.37 178.21 197.974 178.075C197.578 177.94 197.24 177.745 196.954 177.494C196.675 177.239 196.455 176.938 196.29 176.584C196.125 176.227 196.025 175.845 195.996 175.44C195.967 175.035 196.008 174.645 196.124 174.275C196.236 173.898 196.414 173.561 196.651 173.269C196.898 172.977 197.204 172.735 197.577 172.549C197.949 172.358 198.373 172.248 198.854 172.213C199.363 172.176 199.824 172.248 200.237 172.423C200.657 172.602 201.009 172.848 201.29 173.169L200.233 174.101C200.087 173.92 199.903 173.777 199.68 173.675C199.463 173.565 199.213 173.52 198.925 173.541C198.468 173.574 198.099 173.76 197.82 174.097C197.542 174.437 197.419 174.85 197.453 175.335C197.488 175.82 197.67 176.214 197.994 176.507C198.325 176.804 198.724 176.931 199.188 176.898ZM202.93 175.696L202.768 173.442L201.729 173.517L201.637 172.236L202.676 172.161L202.575 170.769L203.992 170.667L204.092 172.059L205.795 171.937L205.887 173.218L204.184 173.34L204.346 175.594C204.368 175.903 204.46 176.119 204.626 176.243C204.798 176.362 205.021 176.413 205.291 176.393C205.481 176.379 205.643 176.357 205.777 176.323C205.907 176.293 206.019 176.254 206.113 176.209L206.201 177.434C206.067 177.503 205.911 177.56 205.736 177.6C205.569 177.644 205.372 177.672 205.144 177.688C204.451 177.738 203.922 177.588 203.555 177.235C203.189 176.882 202.982 176.368 202.933 175.689L202.93 175.696Z" fill="white"/>
<path d="M129.354 168.485L120.615 164.234L112.578 169.74C112.528 169.775 112.49 169.819 112.462 169.874C112.435 169.928 112.425 169.988 112.43 170.046L113.111 179.527C113.115 179.586 113.14 179.643 113.175 179.689C113.21 179.739 113.255 179.777 113.305 179.805L122.037 184.012L130.077 178.537C130.123 178.502 130.161 178.454 130.189 178.403C130.216 178.349 130.23 178.292 130.225 178.234L129.545 168.767C129.54 168.708 129.522 168.65 129.488 168.601C129.453 168.551 129.408 168.512 129.354 168.485Z" fill="#000091"/>
<path d="M117.989 169.584L115.521 174.613L112.604 169.665L115.495 167.707L118.132 169.295L117.99 169.588L117.989 169.584ZM130.23 178.251L129.548 168.763C129.544 168.705 129.522 168.647 129.491 168.597C129.456 168.547 129.411 168.509 129.357 168.481L120.622 164.23" fill="#FCC63A"/>
<path d="M113.111 179.482L120.619 164.233L122.041 184.015L113.305 179.805C113.255 179.777 113.21 179.735 113.175 179.689C113.14 179.64 113.119 179.585 113.111 179.527L112.43 170.046L113.108 179.485L113.111 179.482ZM126.079 166.89L129.26 168.436L127.118 173.734L123.734 168.785L126.082 166.889L126.079 166.89Z" fill="#0063CB"/>
<path d="M131.825 166.738L120.644 161.346C120.569 161.317 120.488 161.302 120.408 161.308C120.329 161.313 120.25 161.336 120.18 161.38L109.886 168.315C109.823 168.361 109.776 168.424 109.743 168.496C109.709 168.568 109.694 168.642 109.696 168.722L110.581 181.031C110.587 181.111 110.617 181.185 110.659 181.248C110.703 181.315 110.762 181.366 110.828 181.407L122.004 186.798C122.08 186.828 122.161 186.843 122.24 186.837C122.32 186.831 122.398 186.808 122.468 186.765L132.763 179.83C132.825 179.78 132.873 179.721 132.906 179.649C132.939 179.577 132.955 179.499 132.953 179.423L132.067 167.114C132.059 167.038 132.032 166.963 131.989 166.896C131.946 166.83 131.887 166.778 131.821 166.738H131.825ZM116.417 177.827L116.462 177.824C116.438 177.826 116.417 177.831 116.419 177.855C116.423 177.91 116.502 177.849 116.534 177.902C116.403 177.915 116.279 177.98 116.192 178.084C116.194 178.111 116.249 178.107 116.277 178.105C116.24 178.164 116.151 178.142 116.127 178.2C116.142 178.213 116.164 178.221 116.185 178.223C116.157 178.225 116.129 178.227 116.131 178.255L116.137 178.338C116.068 178.343 116.044 178.401 115.987 178.433C116.104 178.508 116.171 178.419 116.282 178.411C115.995 178.543 115.768 178.716 115.476 178.824C115.421 178.828 115.482 178.907 115.427 178.911C115.514 178.961 115.553 178.874 115.636 178.868C115.284 179.106 114.92 179.313 114.542 179.584C114.513 179.617 114.499 179.657 114.495 179.699L114.384 179.707C114.331 179.738 114.363 179.806 114.312 179.869C114.446 179.942 114.585 179.738 114.679 179.842C114.707 179.84 114.626 179.874 114.57 179.878C114.543 179.88 114.547 179.935 114.519 179.937L114.432 179.943C114.38 179.989 114.327 180.021 114.333 180.107C114.308 180.106 114.284 180.111 114.261 180.119C114.237 180.132 114.221 180.15 114.209 180.172C114.811 180.129 115.399 179.975 115.944 179.723C116.365 179.47 116.738 179.148 117.049 178.767C117.063 178.78 117.075 178.8 117.08 178.82C117.015 179.072 116.874 179.295 116.673 179.455C116.524 179.549 116.422 179.686 116.301 179.75C116.222 179.801 116.146 179.859 116.074 179.923C115.728 180.059 115.37 180.161 115.007 180.233L114.839 180.269C114.715 180.296 114.589 180.325 114.469 180.355L113.308 179.798C113.265 179.777 113.228 179.745 113.197 179.705C113.167 179.669 113.143 179.625 113.129 179.578C113.145 179.566 113.162 179.554 113.178 179.539C113.16 179.523 113.138 179.511 113.113 179.506L113.087 179.142C113.665 178.996 114.223 178.779 114.749 178.494C114.211 178.174 113.615 177.959 112.995 177.865L112.934 177.016C113.25 177.046 113.559 177.097 113.867 177.168C114.106 177.238 114.335 177.33 114.552 177.443C114.641 177.517 114.736 177.579 114.834 177.635C114.906 177.668 114.98 177.687 115.06 177.685C115.136 177.683 115.215 177.667 115.286 177.63L115.469 177.617C115.866 177.522 116.228 177.319 116.517 177.034C116.519 177.061 116.546 177.059 116.574 177.057C116.545 177.282 116.481 177.503 116.381 177.708C116.383 177.736 116.359 177.797 116.42 177.82L116.417 177.827ZM118.136 179.712C118.274 179.646 118.35 179.54 118.474 179.475C118.449 179.505 118.453 179.56 118.427 179.59C118.328 179.663 118.233 179.747 118.149 179.836C117.854 180.139 117.577 180.459 117.327 180.8C117.197 180.977 117.056 181.143 116.915 181.31C116.863 181.366 116.811 181.415 116.752 181.461L115.281 180.753C115.483 180.755 115.686 180.73 115.881 180.678C116.044 180.621 116.199 180.547 116.345 180.46L116.349 180.516C116.73 180.332 117.002 179.961 117.388 179.804C117.402 179.803 117.461 179.854 117.518 179.823C117.609 179.691 117.73 179.581 117.874 179.501C118.014 179.421 118.172 179.379 118.335 179.371C118.337 179.398 118.338 179.426 118.366 179.424L118.38 179.423C118.302 179.498 118.207 179.578 118.115 179.654C118.086 179.684 118.115 179.71 118.143 179.708L118.136 179.712ZM112.906 176.625L112.899 176.521C113.184 176.424 113.479 176.368 113.781 176.353C113.87 176.333 113.96 176.326 114.048 176.334C113.653 176.362 113.267 176.46 112.906 176.625ZM130.229 178.24C130.234 178.299 130.217 178.36 130.193 178.41C130.165 178.464 130.127 178.509 130.081 178.543L124.679 182.221C124.018 182.08 123.365 181.908 122.724 181.697C122.619 181.506 122.556 181.298 122.533 181.08C122.514 180.866 122.537 180.648 122.605 180.442C122.638 180.265 122.692 180.094 122.767 179.932C122.78 179.917 122.793 179.903 122.792 179.889C122.795 179.889 122.799 179.888 122.802 179.885C122.805 179.881 122.805 179.877 122.805 179.874C122.859 179.762 122.921 179.653 122.994 179.547L123 179.54L123.01 179.529L123.016 179.521C123.016 179.521 123.028 179.492 123.041 179.478C123.053 179.449 123.079 179.433 123.091 179.404C123.181 179.294 123.285 179.192 123.397 179.101C123.511 179.051 123.633 179.007 123.756 178.974C124.212 178.976 124.667 179.002 125.12 179.06C125.176 179.063 125.229 179.08 125.28 179.104C125.452 179.123 125.624 179.104 125.783 179.04C125.889 179.012 125.986 178.96 126.064 178.884C126.142 178.809 126.202 178.714 126.233 178.611C126.275 178.518 126.295 178.415 126.295 178.311C126.291 178.207 126.266 178.108 126.218 178.017C126.106 177.869 126.193 177.772 126.295 177.681L126.33 177.647C126.376 177.609 126.418 177.564 126.45 177.517C126.509 177.37 126.378 177.296 126.341 177.169C126.31 177.116 126.211 177.151 126.15 177.072C126.341 176.975 126.61 176.799 126.469 176.569C126.376 176.446 126.232 176.231 126.379 176.095C126.568 175.97 126.851 175.977 126.924 175.788C126.944 175.678 126.936 175.567 126.901 175.462C126.865 175.357 126.803 175.264 126.718 175.193L126.672 175.137C126.626 175.082 126.58 175.022 126.541 174.966C126.441 174.823 126.334 174.692 126.217 174.565C126.08 174.4 125.969 174.217 125.882 174.021C125.783 173.816 125.881 173.625 125.866 173.413C125.843 173.004 125.755 172.604 125.596 172.229C125.513 172.036 125.47 171.827 125.37 171.65C125.351 171.533 125.298 171.422 125.219 171.333C125.203 171.307 125.194 171.276 125.191 171.245C125.189 171.214 125.194 171.182 125.206 171.153C125.314 171.066 125.415 170.968 125.512 170.863C125.538 170.792 125.54 170.715 125.514 170.644C125.488 170.573 125.438 170.514 125.373 170.477C125.183 170.407 125.22 170.672 125.096 170.737L125.013 170.743C124.98 170.675 125.033 170.64 125.084 170.581C125.082 170.553 125.078 170.498 125.051 170.5C124.94 170.508 124.838 170.487 124.806 170.434C124.512 170.117 124.134 169.894 123.712 169.789C123.818 169.812 123.93 169.825 124.041 169.821C124.235 169.848 124.427 169.814 124.602 169.725C124.727 169.674 124.738 169.447 124.785 169.315C124.791 169.252 124.786 169.189 124.768 169.128C124.749 169.067 124.718 169.013 124.676 168.968C124.535 168.793 124.351 168.657 124.14 168.581C124.04 168.547 123.878 168.472 123.745 168.411C123.701 168.383 123.651 168.363 123.598 168.352C121.88 167.641 118.518 168.606 118.266 168.736H118.262C118.029 168.823 117.8 168.929 117.582 169.053C117.279 169.19 117.012 169.393 116.8 169.649C116.589 169.904 116.436 170.204 116.359 170.526C116.055 170.76 115.816 171.07 115.675 171.425C115.468 171.888 115.144 172.312 115.239 172.813C115.326 173.246 115.454 173.633 115.57 174.077C115.605 174.228 115.654 174.374 115.713 174.516C115.779 174.668 115.738 174.869 115.83 174.988C115.878 175.068 115.857 175.17 115.975 175.217L115.983 175.328C116.013 175.354 116.015 175.382 116.071 175.378L116.079 175.488C116.338 175.707 116.565 175.962 116.756 176.247C116.823 176.399 116.495 176.349 116.367 176.303C116.124 176.167 115.896 176.003 115.695 175.815C115.682 175.83 115.673 175.852 115.671 175.873C115.796 176.062 116.208 176.273 116.006 176.416C115.899 176.479 115.761 176.35 115.655 176.469C115.63 176.513 115.662 176.566 115.666 176.625C115.502 176.525 115.34 176.593 115.18 176.548C115.067 176.529 115.021 176.32 114.896 176.329C114.558 176.27 114.214 176.235 113.869 176.218C113.543 176.193 113.215 176.185 112.889 176.198L112.448 170.063C112.444 170.004 112.457 169.944 112.481 169.89C112.508 169.835 112.547 169.791 112.597 169.756L120.627 164.25L129.366 168.502C129.42 168.529 129.464 168.568 129.499 168.617C129.534 168.667 129.552 168.725 129.556 168.784L130.238 178.257L130.229 178.24ZM125.448 173.938C125.432 173.967 125.41 173.989 125.383 174.005C125.356 174.021 125.326 174.03 125.294 174.032C125.242 174.085 125.194 174.137 125.146 174.196C125.201 174.192 125.152 174.279 125.207 174.275C125.102 174.408 125.277 174.66 125.125 174.727C124.921 174.797 124.707 174.812 124.495 174.772C124.525 174.763 124.556 174.757 124.588 174.755L124.636 174.751C124.671 174.752 124.705 174.746 124.739 174.73C124.773 174.714 124.799 174.691 124.821 174.661L124.813 174.551C124.811 174.523 124.783 174.525 124.756 174.527C124.743 174.545 124.723 174.554 124.702 174.559C124.7 174.534 124.688 174.511 124.673 174.491C124.658 174.471 124.632 174.459 124.611 174.454C124.539 174.469 124.462 174.465 124.388 174.446C124.317 174.423 124.251 174.386 124.199 174.33C124.272 174.287 124.358 174.274 124.439 174.285C124.512 174.28 124.472 174.158 124.554 174.096L124.641 174.09C124.799 173.87 125.11 173.791 125.15 173.58C125.146 173.524 124.987 173.536 124.871 173.516C124.717 173.51 124.562 173.528 124.416 173.577C124.217 173.619 124.023 173.685 123.838 173.772C123.986 173.646 124.156 173.543 124.335 173.471C124.463 173.413 124.592 173.366 124.729 173.332L124.801 173.313L124.872 173.293C124.97 173.255 125.081 173.247 125.184 173.271C125.316 173.317 125.531 173.302 125.568 173.383C125.634 173.531 125.503 173.694 125.355 173.816C125.327 173.863 125.444 173.886 125.448 173.938Z" fill="white"/>
<path d="M138.617 159.891L124.317 160.919C123.699 160.963 123.234 161.5 123.279 162.118L123.653 167.322C123.697 167.939 124.234 168.404 124.852 168.36L139.152 167.332C139.77 167.287 140.234 166.75 140.19 166.133L139.816 160.929C139.771 160.311 139.234 159.846 138.617 159.891Z" fill="#FCC63A"/>
<path d="M125.081 167.146L124.725 162.195L126.359 162.077C126.903 162.038 127.338 162.139 127.669 162.38C128.003 162.62 128.188 162.969 128.221 163.429C128.254 163.89 128.12 164.251 127.824 164.54C127.532 164.826 127.115 164.988 126.572 165.027L125.941 165.072L126.085 167.074L125.081 167.146ZM126.462 162.929L125.791 162.978L125.88 164.217L126.552 164.169C126.763 164.154 126.925 164.086 127.035 163.971C127.148 163.855 127.2 163.694 127.185 163.49C127.171 163.303 127.098 163.159 126.969 163.056C126.844 162.958 126.674 162.914 126.462 162.929Z" fill="#161616"/>
<path d="M129.371 166.837L129.015 161.886L130.528 161.777C131.072 161.738 131.511 161.839 131.845 162.079C132.179 162.32 132.364 162.669 132.397 163.129C132.418 163.427 132.368 163.692 132.242 163.923C132.119 164.151 131.94 164.331 131.696 164.467L133.408 166.547L132.207 166.634L130.747 164.727L130.231 164.764L130.375 166.765L129.371 166.837ZM130.645 162.629L130.081 162.669L130.17 163.909L130.734 163.868C130.946 163.853 131.108 163.786 131.218 163.67C131.328 163.554 131.375 163.394 131.361 163.19C131.347 163.003 131.278 162.858 131.152 162.756C131.027 162.657 130.856 162.613 130.645 162.629Z" fill="#161616"/>
<path d="M135.896 161.249C136.283 161.221 136.641 161.265 136.97 161.384C137.306 161.502 137.596 161.669 137.845 161.888C138.094 162.107 138.291 162.371 138.442 162.684C138.593 162.99 138.679 163.321 138.705 163.674C138.73 164.028 138.692 164.371 138.587 164.699C138.481 165.023 138.321 165.313 138.11 165.565C137.898 165.817 137.631 166.028 137.316 166.19C137.004 166.355 136.656 166.449 136.271 166.477C135.887 166.505 135.522 166.461 135.186 166.343C134.851 166.224 134.56 166.057 134.311 165.838C134.062 165.62 133.862 165.356 133.715 165.049C133.564 164.737 133.477 164.405 133.452 164.052C133.427 163.699 133.465 163.359 133.57 163.034C133.675 162.703 133.835 162.413 134.047 162.161C134.259 161.909 134.525 161.699 134.841 161.537C135.156 161.371 135.508 161.277 135.896 161.249ZM136.204 165.542C136.436 165.525 136.644 165.469 136.832 165.368C137.023 165.264 137.184 165.134 137.309 164.979C137.44 164.816 137.538 164.632 137.603 164.425C137.668 164.212 137.693 163.987 137.677 163.752C137.66 163.516 137.602 163.301 137.508 163.103C137.413 162.901 137.29 162.732 137.138 162.597C136.988 162.454 136.813 162.349 136.61 162.28C136.41 162.204 136.195 162.174 135.963 162.19C135.731 162.207 135.52 162.268 135.329 162.372C135.138 162.473 134.977 162.602 134.845 162.762C134.717 162.917 134.623 163.101 134.558 163.315C134.493 163.525 134.467 163.746 134.484 163.981C134.501 164.217 134.558 164.435 134.653 164.637C134.747 164.836 134.867 165.005 135.017 165.144C135.169 165.279 135.347 165.385 135.551 165.46C135.755 165.533 135.972 165.559 136.204 165.542Z" fill="#161616"/>
</g>
</g>
<path d="M29.5318 59.0721C24.3766 59.0732 19.3108 57.7248 14.8384 55.161C14.7259 55.0961 14.6438 54.9893 14.6101 54.8639C14.5764 54.7385 14.5939 54.6049 14.6587 54.4924C14.7235 54.3799 14.8304 54.2978 14.9558 54.2641C15.0811 54.2304 15.2148 54.2479 15.3273 54.3128C21.6349 57.9394 29.0877 59.0256 36.1681 57.3502C43.2485 55.6748 49.4242 51.3638 53.4377 45.2949C57.4512 39.226 59.0007 31.8556 57.7708 24.6844C56.5409 17.5132 52.624 11.0803 46.8176 6.69565C41.0113 2.31096 33.7521 0.304121 26.518 1.08375C19.284 1.86338 12.6191 5.37086 7.8803 10.892C3.14153 16.4132 0.685232 23.5329 1.01153 30.8015C1.33784 38.0701 4.4222 44.9411 9.63662 50.0154C9.72965 50.1059 9.78295 50.2296 9.78478 50.3593C9.78662 50.489 9.73684 50.6142 9.6464 50.7072C9.55596 50.8003 9.43227 50.8535 9.30254 50.8554C9.17281 50.8572 9.04766 50.8074 8.95463 50.717C4.04059 45.9432 0.939103 39.6094 0.181284 32.8004C-0.576535 25.9914 1.05646 19.1307 4.80063 13.3932C8.5448 7.65578 14.1672 3.39851 20.705 1.35048C27.2428 -0.697548 34.2892 -0.408924 40.6376 2.16693C46.986 4.74278 52.2414 9.44562 55.5038 15.4701C58.7662 21.4945 59.8326 28.4658 58.5205 35.19C57.2083 41.9142 53.5992 47.9731 48.3112 52.3291C43.0232 56.685 36.3853 59.067 29.5343 59.0672L29.5318 59.0721Z" fill="#FF0000"/>
<path d="M50.6343 41.6799C48.5001 45.3901 45.4254 48.4721 41.7203 50.6152C38.0152 52.7582 33.8106 53.8866 29.5304 53.8866C25.2501 53.8866 21.0455 52.7582 17.3404 50.6152C13.6353 48.4721 10.5606 45.3901 8.42639 41.6799C10.5616 37.971 13.6366 34.8903 17.3416 32.7481C21.0466 30.606 25.2507 29.4781 29.5304 29.4781C33.81 29.4781 38.0141 30.606 41.7191 32.7481C45.4241 34.8903 48.4991 37.971 50.6343 41.6799Z" fill="#FF0000"/>
<path d="M29.5317 30.5382C35.4138 30.5382 40.1821 25.7698 40.1821 19.8878C40.1821 14.0058 35.4138 9.23743 29.5317 9.23743C23.6497 9.23743 18.8813 14.0058 18.8813 19.8878C18.8813 25.7698 23.6497 30.5382 29.5317 30.5382Z" fill="#FF0000"/>
<path d="M45.2909 133.128H42.3576C42.228 133.128 42.1036 133.077 42.0119 132.985C41.9202 132.893 41.8687 132.769 41.8687 132.639C41.8687 132.51 41.9202 132.385 42.0119 132.294C42.1036 132.202 42.228 132.151 42.3576 132.151H45.2909C45.4206 132.151 45.5449 132.202 45.6366 132.294C45.7283 132.385 45.7798 132.51 45.7798 132.639C45.7798 132.769 45.7283 132.893 45.6366 132.985C45.5449 133.077 45.4206 133.128 45.2909 133.128ZM39.4243 133.128H36.491C36.3613 133.128 36.237 133.077 36.1453 132.985C36.0536 132.893 36.0021 132.769 36.0021 132.639C36.0021 132.51 36.0536 132.385 36.1453 132.294C36.237 132.202 36.3613 132.151 36.491 132.151H39.4243C39.554 132.151 39.6783 132.202 39.77 132.294C39.8617 132.385 39.9132 132.51 39.9132 132.639C39.9132 132.769 39.8617 132.893 39.77 132.985C39.6783 133.077 39.554 133.128 39.4243 133.128ZM33.5577 133.128H30.6244C30.4947 133.128 30.3704 133.077 30.2787 132.985C30.187 132.893 30.1355 132.769 30.1355 132.639C30.1355 132.51 30.187 132.385 30.2787 132.294C30.3704 132.202 30.4947 132.151 30.6244 132.151H33.5577C33.6873 132.151 33.8117 132.202 33.9034 132.294C33.9951 132.385 34.0466 132.51 34.0466 132.639C34.0466 132.769 33.9951 132.893 33.9034 132.985C33.8117 133.077 33.6873 133.128 33.5577 133.128ZM29.9424 130.875C29.8127 130.875 29.6884 130.823 29.5967 130.731C29.505 130.64 29.4535 130.515 29.4535 130.386V127.452C29.4535 127.323 29.505 127.198 29.5967 127.107C29.6884 127.015 29.8127 126.964 29.9424 126.964C30.072 126.964 30.1964 127.015 30.2881 127.107C30.3798 127.198 30.4313 127.323 30.4313 127.452V130.386C30.4313 130.515 30.3798 130.64 30.2881 130.731C30.1964 130.823 30.072 130.875 29.9424 130.875ZM29.9424 125.008C29.8127 125.008 29.6884 124.956 29.5967 124.865C29.505 124.773 29.4535 124.649 29.4535 124.519V121.586C29.4535 121.456 29.505 121.332 29.5967 121.24C29.6884 121.148 29.8127 121.097 29.9424 121.097C30.072 121.097 30.1964 121.148 30.2881 121.24C30.3798 121.332 30.4313 121.456 30.4313 121.586V124.519C30.4313 124.649 30.3798 124.773 30.2881 124.865C30.1964 124.956 30.072 125.008 29.9424 125.008ZM29.9424 119.141C29.8127 119.141 29.6884 119.09 29.5967 118.998C29.505 118.906 29.4535 118.782 29.4535 118.652V115.719C29.4535 115.589 29.505 115.465 29.5967 115.373C29.6884 115.282 29.8127 115.23 29.9424 115.23C30.072 115.23 30.1964 115.282 30.2881 115.373C30.3798 115.465 30.4313 115.589 30.4313 115.719V118.652C30.4313 118.782 30.3798 118.906 30.2881 118.998C30.1964 119.09 30.072 119.141 29.9424 119.141ZM29.9424 113.275C29.8127 113.275 29.6884 113.223 29.5967 113.132C29.505 113.04 29.4535 112.915 29.4535 112.786V109.853C29.4535 109.723 29.505 109.598 29.5967 109.507C29.6884 109.415 29.8127 109.364 29.9424 109.364C30.072 109.364 30.1964 109.415 30.2881 109.507C30.3798 109.598 30.4313 109.723 30.4313 109.853V112.786C30.4313 112.915 30.3798 113.04 30.2881 113.132C30.1964 113.223 30.072 113.275 29.9424 113.275ZM29.9424 107.408C29.8127 107.408 29.6884 107.357 29.5967 107.265C29.505 107.173 29.4535 107.049 29.4535 106.919V103.986C29.4535 103.856 29.505 103.732 29.5967 103.64C29.6884 103.549 29.8127 103.497 29.9424 103.497C30.072 103.497 30.1964 103.549 30.2881 103.64C30.3798 103.732 30.4313 103.856 30.4313 103.986V106.919C30.4313 107.049 30.3798 107.173 30.2881 107.265C30.1964 107.357 30.072 107.408 29.9424 107.408ZM29.9424 101.541C29.8127 101.541 29.6884 101.49 29.5967 101.398C29.505 101.307 29.4535 101.182 29.4535 101.053V98.1193C29.4535 97.9896 29.505 97.8652 29.5967 97.7736C29.6884 97.6819 29.8127 97.6304 29.9424 97.6304C30.072 97.6304 30.1964 97.6819 30.2881 97.7736C30.3798 97.8652 30.4313 97.9896 30.4313 98.1193V101.053C30.4313 101.182 30.3798 101.307 30.2881 101.398C30.1964 101.49 30.072 101.541 29.9424 101.541ZM29.9424 95.6748C29.8127 95.6748 29.6884 95.6233 29.5967 95.5316C29.505 95.4399 29.4535 95.3156 29.4535 95.1859V92.2526C29.4535 92.123 29.505 91.9986 29.5967 91.9069C29.6884 91.8153 29.8127 91.7637 29.9424 91.7637C30.072 91.7637 30.1964 91.8153 30.2881 91.9069C30.3798 91.9986 30.4313 92.123 30.4313 92.2526V95.1859C30.4313 95.3156 30.3798 95.4399 30.2881 95.5316C30.1964 95.6233 30.072 95.6748 29.9424 95.6748ZM29.9424 89.8082C29.8127 89.8082 29.6884 89.7567 29.5967 89.665C29.505 89.5733 29.4535 89.449 29.4535 89.3193V86.386C29.4535 86.2563 29.505 86.132 29.5967 86.0403C29.6884 85.9486 29.8127 85.8971 29.9424 85.8971C30.072 85.8971 30.1964 85.9486 30.2881 86.0403C30.3798 86.132 30.4313 86.2563 30.4313 86.386V89.3193C30.4313 89.449 30.3798 89.5733 30.2881 89.665C30.1964 89.7567 30.072 89.8082 29.9424 89.8082ZM29.9424 83.9416C29.8127 83.9416 29.6884 83.8901 29.5967 83.7984C29.505 83.7067 29.4535 83.5824 29.4535 83.4527V80.5194C29.4535 80.3897 29.505 80.2654 29.5967 80.1737C29.6884 80.082 29.8127 80.0305 29.9424 80.0305C30.072 80.0305 30.1964 80.082 30.2881 80.1737C30.3798 80.2654 30.4313 80.3897 30.4313 80.5194V83.4527C30.4313 83.5824 30.3798 83.7067 30.2881 83.7984C30.1964 83.8901 30.072 83.9416 29.9424 83.9416ZM29.9424 78.075C29.8127 78.075 29.6884 78.0234 29.5967 77.9318C29.505 77.8401 29.4535 77.7157 29.4535 77.5861V74.6528C29.4535 74.5231 29.505 74.3987 29.5967 74.3071C29.6884 74.2154 29.8127 74.1639 29.9424 74.1639C30.072 74.1639 30.1964 74.2154 30.2881 74.3071C30.3798 74.3987 30.4313 74.5231 30.4313 74.6528V77.5861C30.4313 77.7157 30.3798 77.8401 30.2881 77.9318C30.1964 78.0234 30.072 78.075 29.9424 78.075ZM29.9424 72.2083C29.8127 72.2083 29.6884 72.1568 29.5967 72.0651C29.505 71.9734 29.4535 71.8491 29.4535 71.7194V68.7861C29.4535 68.6565 29.505 68.5321 29.5967 68.4404C29.6884 68.3487 29.8127 68.2972 29.9424 68.2972C30.072 68.2972 30.1964 68.3487 30.2881 68.4404C30.3798 68.5321 30.4313 68.6565 30.4313 68.7861V71.7194C30.4313 71.8491 30.3798 71.9734 30.2881 72.0651C30.1964 72.1568 30.072 72.2083 29.9424 72.2083ZM29.9424 66.3417C29.8127 66.3417 29.6884 66.2902 29.5967 66.1985C29.505 66.1068 29.4535 65.9825 29.4535 65.8528V62.9195C29.4535 62.7898 29.505 62.6655 29.5967 62.5738C29.6884 62.4821 29.8127 62.4306 29.9424 62.4306C30.072 62.4306 30.1964 62.4821 30.2881 62.5738C30.3798 62.6655 30.4313 62.7898 30.4313 62.9195V65.8528C30.4313 65.9825 30.3798 66.1068 30.2881 66.1985C30.1964 66.2902 30.072 66.3417 29.9424 66.3417Z" fill="#000091"/>
</g>
<defs>
<filter id="filter0_d_0_3" x="88.204" y="140.74" width="166.513" height="74.595" filterUnits="userSpaceOnUse" color-interpolation-filters="sRGB">
<feFlood flood-opacity="0" result="BackgroundImageFix"/>
<feColorMatrix in="SourceAlpha" type="matrix" values="0 0 0 0 0 0 0 0 0 0 0 0 0 0 0 0 0 0 127 0" result="hardAlpha"/>
<feOffset dy="2"/>
<feGaussianBlur stdDeviation="3"/>
<feColorMatrix type="matrix" values="0 0 0 0 0 0 0 0 0 0 0 0 0 0 0.0705882 0 0 0 0.16 0"/>
<feBlend mode="normal" in2="BackgroundImageFix" result="effect1_dropShadow_0_3"/>
<feBlend mode="normal" in="SourceGraphic" in2="effect1_dropShadow_0_3" result="shape"/>
</filter>
<clipPath id="clip0_0_3">
<rect width="384" height="346" fill="white"/>
</clipPath>
</defs>
</svg>
