<svg width="180" height="180" viewBox="0 0 180 180" fill="none" xmlns="http://www.w3.org/2000/svg">
<path fill-rule="evenodd" clip-rule="evenodd" d="M33.75 31.5C32.5093 31.5 31.5 30.4907 31.5 29.25C31.5 28.0092 32.5093 27 33.75 27C34.9907 27 36 28.0092 36 29.25C36 30.4907 34.9907 31.5 33.75 31.5Z" fill="#CACAFB"/>
<path fill-rule="evenodd" clip-rule="evenodd" d="M11.25 157.5C10.0093 157.5 9 156.491 9 155.25C9 154.009 10.0093 153 11.25 153C12.4907 153 13.5 154.009 13.5 155.25C13.5 156.491 12.4907 157.5 11.25 157.5Z" fill="#CACAFB"/>
<path fill-rule="evenodd" clip-rule="evenodd" d="M168.75 144C167.509 144 166.5 142.991 166.5 141.75C166.5 140.509 167.509 139.5 168.75 139.5C169.991 139.5 171 140.509 171 141.75C171 142.991 169.991 144 168.75 144Z" fill="#CACAFB"/>
<path fill-rule="evenodd" clip-rule="evenodd" d="M132.75 27C131.509 27 130.5 25.9907 130.5 24.75C130.5 23.5092 131.509 22.5 132.75 22.5C133.991 22.5 135 23.5092 135 24.75C135 25.9907 133.991 27 132.75 27Z" fill="#CACAFB"/>
<path d="M31.5143 84.6048C31.6941 82.5262 33.545 81 35.6786 81H42.75L43.0124 81.0151C44.1314 81.1451 45 82.0961 45 83.25L44.9849 83.5124C44.8549 84.6314 43.9039 85.5 42.75 85.5H36V94.5H42.75L43.0124 94.5151C44.1314 94.6451 45 95.5961 45 96.75C45 97.9926 43.9926 99 42.75 99H35.6786L35.3442 98.9875C33.2442 98.8295 31.5 97.1966 31.5 95.0625V84.9375L31.5143 84.6048Z" fill="#E1000F"/>
<path d="M62.9857 84.6048C62.806 82.5262 60.955 81 58.8214 81H51.75L51.4876 81.0151C50.3686 81.1451 49.5 82.0961 49.5 83.25L49.5151 83.5124C49.6451 84.6314 50.5961 85.5 51.75 85.5H58.5V94.5H51.75L51.4876 94.5151C50.3686 94.6451 49.5 95.5961 49.5 96.75C49.5 97.9926 50.5074 99 51.75 99H58.8214L59.1558 98.9875C61.2558 98.8295 63 97.1966 63 95.0625V84.9375L62.9857 84.6048Z" fill="#E1000F"/>
<path d="M144.321 81C146.455 81 148.306 82.5262 148.486 84.6048L148.5 84.9375V95.0625C148.5 97.1966 146.756 98.8295 144.656 98.9875L144.321 99H137.25C136.007 99 135 97.9926 135 96.75C135 95.5961 135.869 94.6451 136.988 94.5151L137.25 94.5H144V85.5H137.25C136.096 85.5 135.145 84.6314 135.015 83.5124L135 83.25C135 82.0961 135.869 81.1451 136.988 81.0151L137.25 81H144.321Z" fill="#E1000F"/>
<path d="M117.014 84.6048C117.194 82.5262 119.045 81 121.179 81H128.25L128.512 81.0151C129.631 81.1451 130.5 82.0961 130.5 83.25L130.485 83.5124C130.355 84.6314 129.404 85.5 128.25 85.5H121.5V94.5H128.25L128.512 94.5151C129.631 94.6451 130.5 95.5961 130.5 96.75C130.5 97.9926 129.493 99 128.25 99H121.179L120.844 98.9875C118.744 98.8295 117 97.1966 117 95.0625V84.9375L117.014 84.6048Z" fill="#E1000F"/>
<path fill-rule="evenodd" clip-rule="evenodd" d="M31.5 108C29.0147 108 27 110.015 27 112.5V126C27 128.485 29.0147 130.5 31.5 130.5H40.5C42.9853 130.5 45 128.485 45 126V112.5C45 110.015 42.9853 108 40.5 108H31.5ZM40.5 126V112.5H31.5V126H40.5Z" fill="#E1000F"/>
<path fill-rule="evenodd" clip-rule="evenodd" d="M54 108C51.5147 108 49.5 110.015 49.5 112.5V126C49.5 128.485 51.5147 130.5 54 130.5H63C65.4853 130.5 67.5 128.485 67.5 126V112.5C67.5 110.015 65.4853 108 63 108H54ZM63 126V112.5H54V126H63Z" fill="#E1000F"/>
<path fill-rule="evenodd" clip-rule="evenodd" d="M117 108C114.515 108 112.5 110.015 112.5 112.5V126C112.5 128.485 114.515 130.5 117 130.5H126C128.485 130.5 130.5 128.485 130.5 126V112.5C130.5 110.015 128.485 108 126 108H117ZM126 126V112.5H117V126H126Z" fill="#E1000F"/>
<path fill-rule="evenodd" clip-rule="evenodd" d="M139.5 108C137.015 108 135 110.015 135 112.5V126C135 128.485 137.015 130.5 139.5 130.5H148.5C150.985 130.5 153 128.485 153 126V112.5C153 110.015 150.985 108 148.5 108H139.5ZM148.5 126V112.5H139.5V126H148.5Z" fill="#E1000F"/>
<path d="M80.341 27.659C79.4623 26.7803 78.0377 26.7803 77.159 27.659L45.659 59.159L45.4718 59.371C44.7855 60.2536 44.8479 61.5299 45.659 62.341C46.5377 63.2197 47.9623 63.2197 48.841 62.341L80.341 30.841L80.5282 30.629C81.2145 29.7464 81.1521 28.4701 80.341 27.659Z" fill="#000091"/>
<path d="M91.3159 31.9247C90.4538 31.3018 89.2521 31.3641 88.4579 32.1116L64.3908 54.7629L64.1973 54.9691C63.4846 55.8306 63.5083 57.1082 64.2945 57.9434L64.5007 58.137C65.3621 58.8497 66.6397 58.826 67.475 58.0398L89.9977 36.8393L126.058 70.7769L126.346 71.0258C127.139 71.6544 128.123 72 129.142 72H150.75L151.012 71.9849C152.131 71.8549 153 70.9039 153 69.75C153 68.5074 151.993 67.5 150.75 67.5H129.142L91.5421 32.1116L91.3159 31.9247Z" fill="#000091"/>
<path d="M159.75 67.5C158.596 67.5 157.645 68.3686 157.515 69.4876L157.5 69.75V144H137.25C136.096 144 135.145 144.869 135.015 145.988L135 146.25C135 147.404 135.869 148.355 136.988 148.485L137.25 148.5H159.75C160.904 148.5 161.855 147.631 161.985 146.512L162 146.25V69.75C162 68.5074 160.993 67.5 159.75 67.5Z" fill="#000091"/>
<path d="M47.25 144C48.4926 144 49.5 145.007 49.5 146.25C49.5 147.404 48.6314 148.355 47.5124 148.485L47.25 148.5H29.25C28.0074 148.5 27 147.493 27 146.25C27 145.096 27.8686 144.145 28.9876 144.015L29.25 144H47.25Z" fill="#000091"/>
<path d="M22.5 146.25C22.5 147.493 21.4926 148.5 20.25 148.5C19.0074 148.5 18 147.493 18 146.25C18 145.007 19.0074 144 20.25 144C21.4926 144 22.5 145.007 22.5 146.25Z" fill="#000091"/>
<path fill-rule="evenodd" clip-rule="evenodd" d="M117 137.25C117 136.007 115.993 135 114.75 135H108V101.25L107.985 100.988C107.855 99.8686 106.904 99 105.75 99H74.25L73.9876 99.0151C72.8686 99.1451 72 100.096 72 101.25V135H65.25L64.9876 135.015C63.8686 135.145 63 136.096 63 137.25C63 138.493 64.0074 139.5 65.25 139.5H114.75L115.012 139.485C116.131 139.355 117 138.404 117 137.25ZM92.25 114.75V135H103.5V103.498H76.5V135H87.75V114.75C87.75 113.507 88.7574 112.5 90 112.5C91.1539 112.5 92.1049 113.369 92.2349 114.488L92.25 114.75Z" fill="#000091"/>
<path d="M92.25 67.5C93.4926 67.5 94.5 68.5074 94.5 69.75C94.5 70.9039 93.6314 71.8549 92.5124 71.9849L92.25 72H87.75C86.5961 72 85.6451 71.1314 85.5151 70.0124C85.5051 69.9263 85.5 69.8388 85.5 69.75V65.25C85.5 64.0074 86.5074 63 87.75 63C88.9039 63 89.8549 63.8686 89.9849 64.9876L90 65.25V67.5H92.25Z" fill="#000091"/>
<path fill-rule="evenodd" clip-rule="evenodd" d="M76.5 67.5C76.5 60.0442 82.5442 54 90 54C97.4558 54 103.5 60.0442 103.5 67.5C103.5 74.9558 97.4558 81 90 81C82.5442 81 76.5 74.9558 76.5 67.5ZM90 58.5C94.9706 58.5 99 62.5294 99 67.5C99 72.4706 94.9706 76.5 90 76.5C85.0294 76.5 81 72.4706 81 67.5C81 62.5294 85.0294 58.5 90 58.5Z" fill="#000091"/>
<path d="M103.5 92.25C103.5 91.0074 102.493 90 101.25 90H78.75L78.4876 90.0151C77.3686 90.1451 76.5 91.0961 76.5 92.25C76.5 93.4926 77.5074 94.5 78.75 94.5H101.25L101.512 94.4849C102.631 94.3549 103.5 93.4039 103.5 92.25Z" fill="#000091"/>
<path d="M126 146.25C126 145.007 124.993 144 123.75 144H56.25L55.9876 144.015C54.8686 144.145 54 145.096 54 146.25C54 147.493 55.0074 148.5 56.25 148.5H123.75L124.012 148.485C125.131 148.355 126 147.404 126 146.25Z" fill="#000091"/>
<path d="M54.659 63.659C55.5377 62.7803 56.9623 62.7803 57.841 63.659C58.6521 64.4701 58.7145 65.7464 58.0282 66.629L57.841 66.841L53.341 71.341C52.9894 71.6926 52.5333 71.9158 52.0457 71.9805L51.75 72H22.5V137.25C22.5 138.404 21.6314 139.355 20.5124 139.485L20.25 139.5C19.0961 139.5 18.1451 138.631 18.0151 137.512L18 137.25V69.75C18 68.5961 18.8686 67.6451 19.9876 67.5151L20.25 67.5H50.814L54.659 63.659Z" fill="#000091"/>
<path d="M150.75 58.5C151.993 58.5 153 59.5074 153 60.75C153 61.9039 152.131 62.8549 151.012 62.9849L150.75 63H132.75C131.507 63 130.5 61.9926 130.5 60.75C130.5 59.5961 131.369 58.6451 132.488 58.5151L132.75 58.5H150.75Z" fill="#000091"/>
<path d="M159.75 63C160.993 63 162 61.9926 162 60.75C162 59.5074 160.993 58.5 159.75 58.5C158.507 58.5 157.5 59.5074 157.5 60.75C157.5 61.9926 158.507 63 159.75 63Z" fill="#000091"/>
</svg>
