<svg width="589" height="301" viewBox="0 0 589 301" fill="none" xmlns="http://www.w3.org/2000/svg">
<path d="M562.856 166.409L561.011 181.098L556.432 217.582H464.439C465.157 209.405 466.139 197.635 467.188 184.929C467.292 183.66 467.4 182.383 467.504 181.098C470.134 149.159 473.013 113.016 473.013 113.016L485.107 115.268L508.572 119.631L518.134 121.407L543.738 126.174C556.504 128.545 565.285 147.025 562.856 166.409V166.409Z" fill="#F2F2F2"/>
<path d="M493.272 53.912L504.584 73.7042L482.841 89.11L473.566 64.7816L493.272 53.912Z" fill="#FFB6B6"/>
<path d="M478.87 72.6362C494.348 72.6362 506.895 60.0916 506.895 44.6169C506.895 29.1423 494.348 16.5976 478.87 16.5976C463.392 16.5976 450.844 29.1423 450.844 44.6169C450.844 60.0916 463.392 72.6362 478.87 72.6362Z" fill="#FFB6B6"/>
<path d="M476.857 50.8809C474.632 47.4948 475.505 45.7238 473.642 44.4794C473.642 44.4794 472.893 43.9787 467.527 43.6932C466.326 35.0492 464.826 34.0009 464.826 34.0009C463.098 32.7927 460.533 33.1853 458.938 33.9242C455.563 35.487 455.954 38.8628 453.682 39.5087C450.543 40.4011 444.832 35.3704 444.269 29.6113C443.81 24.9134 446.838 20.3507 448.039 20.5921C449.229 20.8314 452.079 17.1933 453.618 17.2494C454.669 17.2877 458.964 15.4216 460.119 15.5675C461.381 15.7268 465.541 17.8971 465.714 17.4013C466.918 13.9556 466.564 12.9995 467.587 12.0138C469.398 10.2671 472.361 11.4834 477.009 12.1365C486.572 13.4801 488.241 10.3274 493.142 12.4643C495.618 13.5438 497.69 16.455 501.732 22.2333C507.385 30.3142 510.212 34.3546 510.23 39.0673C510.248 43.8733 507.92 43.5682 506.898 50.6831C505.76 58.6032 508.178 62.2247 505.536 64.7978C503.494 66.7865 499.344 67.2585 497.163 65.5132C493.43 62.525 498.316 55.3145 494.184 50.0465C491.648 46.8128 486.548 45.374 484.212 46.9724C481.57 48.7798 483.025 54.0848 481.168 54.5879C479.577 55.0187 477.245 51.4709 476.857 50.8809L476.857 50.8809Z" fill="#2F2E41"/>
<path d="M542.142 161.236C541.36 174.599 538.255 178.818 537.167 194.599C536.93 198.064 536.787 202.086 536.787 206.882C536.787 208.105 536.794 209.287 536.794 210.442C536.794 212.901 536.747 215.225 536.461 217.582C536.244 219.464 535.87 221.359 535.252 223.357H474.891C474.885 223.343 474.885 223.329 474.877 223.316C474.524 221.781 474.3 220.313 474.13 218.907C474.076 218.458 474.028 218.017 473.988 217.582C473.933 217.072 473.885 216.57 473.838 216.074C473.654 214.097 473.471 212.229 473.036 210.442C472.452 207.976 471.392 205.652 469.217 203.411C468.327 202.494 467.437 201.78 466.567 201.155C466.398 201.04 466.234 200.924 466.064 200.809C463.659 199.158 461.383 197.969 459.412 194.599C459.378 194.552 459.351 194.498 459.324 194.45C458.984 193.859 458.101 192.31 457.462 190.245C456.789 188.098 456.382 185.401 457.115 182.643C458.862 176.108 465.331 175.455 470.617 168.852C471.188 168.139 471.752 167.351 472.289 166.474C474.68 162.588 475.326 159.164 476.087 155.095C476.209 154.436 476.318 153.784 476.406 153.152C476.475 152.676 476.536 152.208 476.583 151.746C477.004 147.867 476.8 144.524 476.305 141.535C474.688 131.745 469.917 125.686 473.287 116.902C474.348 114.144 475.85 112.071 477.364 110.298C480.572 106.541 483.868 104.103 483.297 99.2522C482.719 94.3607 479.009 93.688 478.595 89.4149C478.384 87.2547 479.09 84.9788 480.416 82.7437V82.7371C484.656 75.5425 495.243 68.9188 501.969 69.1294C503.213 69.1636 504.314 69.4419 505.231 69.9786C508.554 71.9351 507.168 76.2083 512.257 82.2004C516.042 86.65 520.322 88.43 521.947 89.2722C528.382 92.6285 533.614 102.527 537.167 115.183C537.195 115.278 537.222 115.373 537.249 115.475C539.444 123.403 540.994 132.405 541.761 141.535C542.087 145.401 542.278 149.287 542.318 153.132C542.353 156.202 542.284 158.866 542.142 161.236Z" fill="#006ADC"/>
<path d="M496.941 207.018L495.711 210.442L494.937 212.589L493.142 217.582L491.063 223.357H477.698L479.94 217.582L480.98 214.892L482.706 210.442L485.6 202.969L496.941 207.018Z" fill="#FFB6B6"/>
<path d="M537.378 114.014C537.345 114.456 537.297 114.945 537.249 115.475C536.719 120.869 535.469 130.523 533.641 141.535C532.676 147.343 531.548 153.533 530.277 159.681C527.546 172.948 524.149 186.013 520.309 194.599C519.623 196.149 518.916 197.548 518.196 198.784C517.646 199.729 517.068 200.659 516.463 201.576C514.506 204.586 512.311 207.439 510.035 210.102C509.947 210.218 509.845 210.327 509.743 210.442C509.376 210.877 508.995 211.305 508.615 211.733C506.753 213.832 504.851 215.788 503.009 217.582C500.767 219.77 498.606 221.706 496.669 223.357H474.966L474.877 223.316L471.752 221.93C471.752 221.93 472.642 220.884 474.13 218.907C474.436 218.506 474.762 218.064 475.116 217.582C475.55 216.991 476.019 216.339 476.522 215.632C477.568 214.151 478.757 212.412 480.035 210.442C482.509 206.631 485.328 201.943 488.175 196.515C488.502 195.883 488.834 195.245 489.168 194.599C489.174 194.579 489.188 194.559 489.195 194.538C489.759 193.438 490.316 192.303 490.873 191.148C495.596 181.325 496.948 173.173 497.336 170.53C497.879 166.794 498.633 161.569 498.429 155.822C498.293 152.031 497.743 148.023 496.432 144.042V144.035C496.16 143.2 495.854 142.364 495.507 141.535C494.889 140.047 494.155 138.58 493.285 137.133C489.446 130.761 486.327 130.496 483.847 123.552C483.113 121.494 481.448 116.847 481.958 111.942V111.936C482.019 111.331 482.121 110.72 482.257 110.108V110.101C482.291 109.932 482.339 109.755 482.386 109.585C482.773 108.084 483.412 106.596 484.384 105.183C486.28 102.438 488.868 100.808 491.185 99.8364L491.193 99.8294C493.87 98.7155 496.18 98.4777 496.629 98.4369C506.556 97.5539 514.255 105.896 518.461 110.455C520.085 112.214 521.573 113.689 522.932 114.891C533.512 124.334 536.414 118.301 537.167 115.183C537.283 114.701 537.345 114.286 537.378 114.014V114.014Z" fill="#006ADC"/>
<path d="M537.412 113.661C537.412 113.695 537.406 113.811 537.378 114.001C537.392 113.899 537.399 113.797 537.406 113.702C537.406 113.682 537.406 113.668 537.412 113.661Z" fill="#006ADC"/>
<path d="M483.446 257.012H119.199C115.814 257.012 113.056 259.763 113.056 263.147C113.056 266.536 115.814 269.288 119.199 269.288H483.446C486.83 269.288 489.582 266.536 489.582 263.147C489.582 259.763 486.83 257.012 483.446 257.012Z" fill="#E6E6E6"/>
<path d="M159.73 55.2144L182.687 45.5555L192.533 65.736L168.409 75.5802L159.73 55.2144Z" fill="#FFB6B6"/>
<path opacity="0.1" d="M159.73 55.2144L182.687 45.5555L192.533 65.736L168.409 75.5802L159.73 55.2144Z" fill="black"/>
<path d="M162.994 47.5243L185.64 73.6114C185.64 73.6114 169.886 123.324 154.132 127.754C138.378 132.184 109.332 153.841 109.332 153.841L72.9001 130.215L90.6235 104.128C90.6235 104.128 133.455 45.5555 144.778 45.5555C156.102 45.5555 162.994 47.5243 162.994 47.5243V47.5243Z" fill="#006ADC"/>
<path d="M132.397 217.582H79.6794L76.3464 213.128L62.7388 194.941L59.6076 190.757C59.6076 190.757 47.7921 169.1 50.2536 149.411C52.7152 129.723 78.3156 125.293 78.3156 125.293H79.3692L110.71 152.827L108.839 178.452L118.764 194.941L132.397 217.582Z" fill="#2F2E41"/>
<path d="M90.4757 217.582H76.3462V196.663L90.4757 217.582Z" fill="#2F2E41"/>
<path d="M395.229 185.825L393.471 194.941L389.109 217.582H301.482C302.166 212.508 303.102 205.203 304.101 197.318C304.2 196.531 304.303 195.738 304.402 194.941C306.907 175.119 309.65 152.689 309.65 152.689L321.17 154.087L343.521 156.795L352.629 157.897L377.018 160.855C389.178 162.327 397.543 173.795 395.229 185.825H395.229Z" fill="#F2F2F2"/>
<path d="M519.238 217.582H471.71C472.434 216.731 472.842 216.239 472.842 216.239L487.09 213.886L516.447 209.042C516.447 209.042 517.786 212.503 519.238 217.582V217.582Z" fill="#2F2E41"/>
<path d="M317.637 65.0592L338.306 94.2837L302.252 95.3602L298.382 67.896L317.637 65.0592Z" fill="#A0616A"/>
<path opacity="0.1" d="M317.637 65.0592L338.306 94.2837L302.252 95.3602L298.382 67.896L317.637 65.0592Z" fill="black"/>
<path d="M215.705 125.61C213.053 117.961 206.956 113.129 202.087 114.818C197.219 116.506 195.423 124.074 198.077 131.725C199.095 134.796 200.834 137.579 203.149 139.84L214.795 172.107L229.824 166.32L216.747 135.125C217.165 131.916 216.808 128.653 215.705 125.61Z" fill="#A0616A"/>
<path d="M355.616 110.719L355.588 140.502L352.816 151.503L347.115 174.13L342.965 194.941L339.873 210.445L338.77 215.983C337.938 216.539 337.111 217.07 336.284 217.582H264.273C260.182 215.126 257.893 213.216 257.893 213.216C257.893 213.216 259.025 212.153 260.32 210.445C262.506 207.561 265.149 202.836 263.53 198.322C263.19 197.377 263.101 196.225 263.205 194.941C263.864 186.465 272.756 172.132 272.756 172.132L270.914 150.858L270.107 141.536L275.8 96.0804L294.355 85.2962L297.558 84.9863L329.18 83.2784L342.25 84.0314L342.845 84.1939L355.616 110.719V110.719Z" fill="#CCCCCC"/>
<path d="M357.02 217.582H341.266L340.572 210.445L340.557 210.302L345.018 209.997L356.622 209.205L356.823 213.477L356.981 216.755L357.02 217.582Z" fill="#FFB6B6"/>
<path d="M360.899 117.92L367.517 156.74L362.116 194.941L361.274 200.887L359.787 211.385L359.329 214.614L359.344 214.964L359.457 217.582H340.749L340.06 210.445L340.001 209.805L338.593 195.187L338.568 194.941L335.58 163.941L341.439 141.536L341.872 139.887V139.882L344.421 101.52L342.447 84.0856L342.427 83.9231C342.466 83.9477 342.501 83.9724 342.54 83.9969C342.644 84.0609 342.747 84.1249 342.845 84.1938C354.346 91.4884 361.199 104.286 360.899 117.92Z" fill="#CCCCCC"/>
<path d="M282.502 103.519L275.308 96.0799C275.308 96.0799 259.907 103.021 259.139 106.872C258.372 110.723 231.18 167.284 231.18 167.284L219.35 135.695L203.951 145.974C203.951 145.974 216.307 195.018 227.863 197.32C239.418 199.623 278.147 139.272 278.147 139.272L282.502 103.519H282.502Z" fill="#CCCCCC"/>
<path d="M574.615 194.599H14.3784C6.44865 194.599 0 201.053 0 208.981C0 216.909 6.44864 223.357 14.3784 223.357H574.615C582.545 223.357 589 216.91 589 208.981C589 201.053 582.545 194.599 574.615 194.599Z" fill="#E6E6E6"/>
<path d="M352.337 150.776L351.248 201.593C351.143 206.512 347.124 210.445 342.202 210.445H248.701C243.896 210.445 239.929 206.69 239.667 201.893L236.888 151.076C236.604 145.894 240.731 141.536 245.922 141.536H343.291C348.364 141.536 352.446 145.705 352.337 150.776Z" fill="#3F3D56"/>
<path d="M201.394 67.4812C213.749 67.4812 223.765 57.4678 223.765 45.1156C223.765 32.7634 213.749 22.75 201.394 22.75C189.04 22.75 179.024 32.7634 179.024 45.1156C179.024 57.4678 189.04 67.4812 201.394 67.4812Z" fill="#FFB6B6"/>
<path d="M163.978 103.636L166.44 130.215L183.179 197.648L168.718 202.715L144.286 129.231L140.911 99.6984L163.978 103.636Z" fill="#FFB6B6"/>
<path d="M157.32 150.776L156.231 201.593C156.125 206.512 152.107 210.445 147.185 210.445H53.6838C48.8787 210.445 44.9117 206.69 44.6494 201.893L41.8707 151.076C41.5873 145.894 45.714 141.536 50.9051 141.536H148.274C153.347 141.536 157.429 145.705 157.32 150.776Z" fill="#3F3D56"/>
<path d="M185.844 210.789C195.601 210.789 203.511 207.291 203.511 202.976C203.511 198.661 195.601 195.164 185.844 195.164C176.087 195.164 168.177 198.661 168.177 202.976C168.177 207.291 176.087 210.789 185.844 210.789Z" fill="#FFB6B6"/>
<path d="M129.27 107.7L139.363 53.923C139.363 53.923 167.425 49.9854 168.409 59.3373C169.394 68.6893 167.706 114.394 167.706 114.394L129.27 107.7V107.7Z" fill="#006ADC"/>
<path d="M192.364 48.6322C192.364 48.6322 206.202 43.6944 212.04 41.0377C217.877 38.3809 229.474 56.9117 229.732 47.125C229.99 37.3382 225.983 33.2341 225.983 33.2341C225.983 33.2341 224.982 11.8242 203.407 14.5009C203.407 14.5009 208.153 3.78931 192.575 2.13296C176.998 0.476602 152.764 38.0851 154.934 43.7054C157.104 49.3258 159.706 53.9724 153.549 59.9819C147.391 65.9913 135.861 99.907 144.634 109.033C153.406 118.16 153.982 122.12 147.971 127.798C141.961 133.476 127.753 145.822 143.115 147.965C158.476 150.108 141.709 148.507 153.162 138.436C164.614 128.365 181.325 128.776 175.085 112.617C168.846 96.4588 179.686 73.3036 178.33 69.7909C176.974 66.2782 181.369 43.9721 181.369 43.9721C181.369 43.9721 191.599 42.4694 192.364 48.6323V48.6322Z" fill="#2F2E41"/>
<path d="M306.586 75.637C320.035 75.637 330.937 64.7367 330.937 51.2905C330.937 37.8442 320.035 26.9439 306.586 26.9439C293.136 26.9439 282.234 37.8442 282.234 51.2905C282.234 64.7367 293.136 75.637 306.586 75.637Z" fill="#A0616A"/>
<path d="M308.529 18.5582C307.824 18.9695 306.881 18.3473 306.655 17.5634C306.429 16.7796 306.692 15.9474 306.953 15.1745L308.267 11.2837C309.199 8.52429 310.188 5.66845 312.206 3.56817C315.252 0.398138 320.093 -0.408303 324.451 0.175935C330.047 0.926214 335.569 3.9559 338.171 8.96587C340.773 13.9759 339.665 20.9666 334.963 24.0923C341.664 31.7713 344 40.3293 343.632 50.5134C343.263 60.6976 332.162 70.0704 324.923 77.2447C323.306 76.265 321.837 71.6734 322.726 70.0053C323.615 68.3373 322.341 66.4049 323.442 64.8684C324.543 63.332 325.464 65.7785 324.351 64.2508C323.648 63.2867 326.39 61.069 325.346 60.492C320.296 57.7013 318.616 51.4083 315.445 46.5892C311.619 40.7766 305.072 36.8402 298.143 36.1872C294.326 35.8275 290.295 36.479 287.166 38.6944C284.038 40.9099 282.012 44.8688 282.738 48.6325C280.859 46.7252 279.923 43.93 280.276 41.2763C280.629 38.6226 282.262 36.1686 284.574 34.8181C283.168 30.1704 284.373 24.8241 287.635 21.2275C290.898 17.6309 304.134 18.2435 308.897 19.1901L308.529 18.5582Z" fill="#2F2E41"/>
<path d="M309.269 36.3283C315.578 37.0092 320.133 42.4731 323.98 47.519C326.197 50.4273 328.519 53.6391 328.464 57.2954C328.407 60.9921 325.935 64.1627 324.754 67.666C322.823 73.3923 324.705 80.2052 329.302 84.1287C324.759 84.9905 319.849 81.5854 319.065 77.03C318.152 71.7269 322.173 66.6087 321.697 61.2488C321.277 56.5266 317.555 52.8923 314.391 49.3616C311.226 45.8308 308.255 41.1456 309.71 36.6338L309.269 36.3283Z" fill="#2F2E41"/>
<path d="M403.589 197.677C397.34 201.23 394.108 207.335 396.371 211.31C398.634 215.286 405.533 215.628 411.784 212.072C414.3 210.686 416.448 208.717 418.048 206.331L444.336 190.94L436.849 178.76L411.728 195.226C408.858 195.382 406.067 196.222 403.589 197.677Z" fill="#FFB6B6"/>
<path d="M492.595 84.8112C491.81 84.4999 484.917 81.8901 478.624 85.3358C471.395 89.2939 470.278 98.3294 469.887 101.499C468.982 108.819 471.647 110.46 472.21 117.871C473.262 131.737 476.038 115.919 471.605 122.248C470.071 124.439 454.402 158.388 445.761 165.038C428.954 177.971 418.282 187.079 418.282 187.079L430.466 200.312C430.466 200.312 449.719 195.183 466.735 184.136C484.19 172.804 492.918 167.139 499.67 156.055C500.252 155.1 514.165 131.478 506.693 105.358C504.989 99.4004 501.866 88.4842 492.595 84.8112Z" fill="#006ADC"/>
<path d="M555.509 150.776L554.42 201.593C554.314 206.512 550.295 210.445 545.374 210.445H451.872C447.067 210.445 443.1 206.69 442.838 201.893L440.059 151.076C439.776 145.894 443.903 141.536 449.094 141.536H546.463C551.536 141.536 555.618 145.705 555.509 150.776Z" fill="#3F3D56"/>
</svg>
